<?xml version="1.0" standalone="no"?>
<!DOCTYPE svg PUBLIC "-//W3C//DTD SVG 1.1//EN" "http://www.w3.org/Graphics/SVG/1.1/DTD/svg11.dtd" >
<svg xmlns="http://www.w3.org/2000/svg">
<metadata>
<json>
<![CDATA[
{
	"fontFamily": "primeicons",
	"majorVersion": 1,
	"minorVersion": 0,
	"copyright": "PrimeTek Informatics",
	"designer": "",
	"description": "Icon Library for Prime UI Libraries\nFont generated by IcoMoon.",
	"fontURL": "https://github.com/primefaces/primeicons",
	"license": "MIT",
	"licenseURL": "https://opensource.org/licenses/MIT",
	"version": "Version 1.0",
	"fontId": "primeicons",
	"psName": "primeicons",
	"subFamily": "Regular",
	"fullName": "primeicons"
}
]]>
</json>
</metadata>
<defs>
<font id="primeicons" horiz-adv-x="1024">
<font-face units-per-em="1024" ascent="960" descent="-64" />
<missing-glyph horiz-adv-x="1024" />
<glyph unicode="&#x20;" horiz-adv-x="512" d="" />
<glyph unicode="&#xe900;" glyph-name="chevron-left" data-tags="chevron-left" d="M727.15-62.98c-22.26 0.083-42.397 9.109-57.018 23.67l-430.296 430.296c-14.71 14.536-23.82 34.712-23.82 57.015s9.111 42.479 23.812 57.008l430.307 430.307c14.77 15.819 35.747 25.679 59.027 25.679 44.559 0 80.681-36.122 80.681-80.681 0-23.28-9.861-44.257-25.633-58.984l-0.047-0.043-373.285-373.285 373.285-373.285c14.71-14.536 23.82-34.712 23.82-57.015s-9.111-42.479-23.812-57.008l-0.008-0.008c-14.617-14.558-34.753-23.583-56.999-23.666h-0.016z" />
<glyph unicode="&#xe901;" glyph-name="chevron-right" data-tags="chevron-right" d="M296.003 960.991c22.348-0.084 42.564-9.145 57.242-23.763l431.99-431.99c14.768-14.594 23.914-34.848 23.914-57.24s-9.147-42.646-23.906-57.232l-432-432c-14.425-13.47-33.856-21.739-55.218-21.739-44.734 0-80.999 36.265-80.999 80.999 0 21.362 8.269 40.793 21.782 55.265l-0.043-0.047 374.754 374.754-374.754 374.754c-14.768 14.594-23.914 34.848-23.914 57.24s9.147 42.646 23.906 57.232l0.008 0.008c14.675 14.615 34.89 23.676 57.223 23.759h0.016z" />
<glyph unicode="&#xe902;" glyph-name="chevron-down" data-tags="chevron-down" d="M1024.991 663.997c-0.084-22.348-9.145-42.564-23.763-57.242l-431.99-431.99c-14.594-14.768-34.848-23.914-57.24-23.914s-42.646 9.147-57.232 23.906l-432 432c-13.47 14.425-21.739 33.856-21.739 55.218 0 44.734 36.265 80.999 80.999 80.999 21.362 0 40.793-8.269 55.265-21.782l-0.047 0.043 374.754-374.754 374.754 374.754c14.594 14.768 34.848 23.914 57.24 23.914s42.646-9.147 57.232-23.906l0.008-0.008c14.615-14.675 23.676-34.89 23.759-57.223v-0.016z" />
<glyph unicode="&#xe903;" glyph-name="chevron-up" data-tags="chevron-up" d="M1.020 232.85c0.083 22.26 9.109 42.397 23.67 57.018l430.296 430.296c14.536 14.71 34.712 23.82 57.015 23.82s42.479-9.111 57.008-23.812l430.307-430.307c15.819-14.77 25.679-35.747 25.679-59.027 0-44.559-36.122-80.681-80.681-80.681-23.28 0-44.257 9.861-58.984 25.633l-0.043 0.047-373.285 373.285-373.285-373.285c-14.536-14.71-34.712-23.82-57.015-23.82s-42.479 9.111-57.008 23.812l-0.008 0.008c-14.558 14.617-23.583 34.753-23.666 56.999v0.016z" />
<glyph unicode="&#xe904;" glyph-name="caret-left" data-tags="caret-left" d="M249.013 407.919l457.064-459.173c9.185-7.96 21.253-12.812 34.456-12.812 29.126 0 52.738 23.612 52.738 52.738 0 0.054 0 0.109 0 0.163v-0.008 918.348c-0.432 29.184-24.19 52.676-53.435 52.676-13.168 0-25.224-4.763-34.539-12.659l0.077 0.064-456.362-459.877c-11.306-9.607-18.432-23.836-18.432-39.73s7.126-30.123 18.356-39.667l0.074-0.061z" />
<glyph unicode="&#xe905;" glyph-name="caret-right" data-tags="caret-right" d="M774.987 488.081l-457.064 459.173c-9.185 7.96-21.253 12.812-34.456 12.812-29.126 0-52.738-23.612-52.738-52.738 0-0.054 0-0.109 0-0.163v0.008-918.348c0.432-29.184 24.19-52.676 53.435-52.676 13.168 0 25.224 4.763 34.539 12.659l-0.077-0.064 456.362 459.877c11.306 9.607 18.432 23.836 18.432 39.73s-7.126 30.123-18.356 39.667l-0.074 0.061z" />
<glyph unicode="&#xe906;" glyph-name="caret-down" data-tags="caret-down" d="M552.081 185.013l459.173 457.064c7.96 9.185 12.812 21.253 12.812 34.456 0 29.126-23.612 52.738-52.738 52.738-0.054 0-0.109 0-0.163 0h-918.34c-29.184-0.432-52.676-24.19-52.676-53.435 0-13.168 4.763-25.224 12.659-34.539l-0.064 0.077 459.877-456.362c9.607-11.306 23.836-18.432 39.73-18.432s30.123 7.126 39.667 18.356l0.061 0.074z" />
<glyph unicode="&#xe907;" glyph-name="caret-up" data-tags="caret-up" d="M471.919 710.987l-459.173-457.064c-7.96-9.185-12.812-21.253-12.812-34.456 0-29.126 23.612-52.738 52.738-52.738 0.054 0 0.109 0 0.163 0h918.34c29.184 0.432 52.676 24.19 52.676 53.435 0 13.168-4.763 25.224-12.659 34.539l0.064-0.077-459.877 456.362c-9.607 11.306-23.836 18.432-39.73 18.432s-30.123-7.126-39.667-18.356l-0.061-0.074z" />
<glyph unicode="&#xe908;" glyph-name="search" data-tags="search" d="M459.55 923.191c-231.735 0-419.594-187.859-419.594-419.594s187.859-419.594 419.594-419.594c231.735 0 419.594 187.859 419.594 419.594v0c0 231.735-187.859 419.594-419.594 419.594v0zM459.55 241.349c-144.835 0-262.246 117.412-262.246 262.246s117.412 262.246 262.246 262.246c144.835 0 262.246-117.412 262.246-262.246v0c0-144.835-117.412-262.246-262.246-262.246v0zM691.895 155.692l111.262 111.262 241.067-241.067c20.482-20.482 20.482-53.691 0-74.175v0l-37.087-37.087c-20.482-20.482-53.691-20.482-74.175 0v0l-241.067 241.067z" />
<glyph unicode="&#xe909;" glyph-name="check" data-tags="check" d="M458.701 65.218l556.61 557.214c5.353 5.458 8.656 12.942 8.656 21.198s-3.303 15.74-8.662 21.204l-86.001 86.001c-5.458 5.353-12.942 8.656-21.198 8.656s-15.74-3.303-21.204-8.662l-492.404-492.404-257.409 256.804c-5.458 5.353-12.942 8.656-21.198 8.656s-15.74-3.303-21.204-8.662l-86.001-86.001c-5.353-5.458-8.656-12.942-8.656-21.198s3.303-15.74 8.662-21.204l321.606-321.606c16.566-16.132 39.222-26.080 64.201-26.080s47.635 9.948 64.221 26.1l-0.020-0.020z" />
<glyph unicode="&#xe90a;" glyph-name="check-circle" data-tags="check-circle" d="M512 959.977c-282.757 0-511.977-229.22-511.977-511.977s229.22-511.977 511.977-511.977c282.757 0 511.977 229.22 511.977 511.977v0c0 282.757-229.22 511.977-511.977 511.977v0zM869.745 606.713l-395.503-395.503c-11.629-11.885-27.833-19.255-45.759-19.255s-34.128 7.369-45.747 19.244l-197.763 197.763-30.719 30.078c-3.922 3.934-6.346 9.364-6.346 15.359s2.425 11.425 6.348 15.359v0l63.998 60.797c3.832 3.885 9.154 6.292 15.040 6.292s11.208-2.407 15.037-6.289l30.722-30.722 151.673-152.314 319.986 319.986 30.719 30.078c3.832 3.885 9.154 6.292 15.040 6.292s11.208-2.407 15.037-6.289l64.001-64.001c1.612-2.913 2.56-6.385 2.56-10.080 0-6.829-3.241-12.902-8.271-16.762l-0.049-0.037z" />
<glyph unicode="&#xe90b;" glyph-name="times" data-tags="times" d="M656.662 448l337.090 337.090c17.021 18.229 27.471 42.783 27.471 69.778 0 56.529-45.827 102.356-102.356 102.356-26.995 0-51.549-10.45-69.837-27.526l0.059 0.054-337.090-337.090-337.090 337.090c-18.229 17.021-42.783 27.471-69.778 27.471-56.529 0-102.356-45.827-102.356-102.356 0-26.995 10.45-51.549 27.526-69.837l-0.054 0.059 337.090-337.090-337.090-337.090c-18.662-18.442-30.219-44.037-30.219-72.332s11.558-53.89 30.209-72.322l0.010-0.010c18.518-18.496 44.090-29.934 72.332-29.934s53.813 11.438 72.332 29.936l337.089 337.089 337.090-337.090c18.518-18.496 44.090-29.934 72.332-29.934s53.813 11.438 72.332 29.936l-0.002-0.002c18.662 18.442 30.219 44.037 30.219 72.332s-11.558 53.89-30.209 72.322l-0.010 0.010z" />
<glyph unicode="&#xe90c;" glyph-name="times-circle" data-tags="times-circle" d="M512 959.999c-282.77 0-512-229.23-512-511.999s229.23-512 512-512c282.77 0 512 229.23 512 512v0c0 282.77-229.23 512-512 512v0zM753.279 279.681c9.276-9.363 15.008-22.253 15.008-36.48s-5.731-27.117-15.012-36.484l0.005 0.005c-9.43-9.128-22.297-14.753-36.48-14.753s-27.050 5.625-36.495 14.766l0.015-0.014-168.32 168.96-168.319-168.96c-9.43-9.128-22.298-14.753-36.48-14.753s-27.050 5.625-36.495 14.766l0.015-0.014c-9.276 9.363-15.007 22.253-15.007 36.48s5.732 27.117 15.012 36.485l-0.005-0.005 168.96 168.319-168.96 168.319c-7.324 8.873-11.768 20.361-11.768 32.888 0 28.63 23.21 51.84 51.84 51.84 12.526 0 24.015-4.443 32.976-11.838l-0.089 0.071 168.32-168.96 168.32 168.96c8.872 7.325 20.361 11.768 32.887 11.768 28.63 0 51.84-23.209 51.84-51.84 0-12.526-4.443-24.015-11.838-32.976l0.071 0.089-168.96-168.319z" />
<glyph unicode="&#xe90d;" glyph-name="plus" data-tags="plus" d="M648.526 584.526v307.186c0 37.701-30.563 68.264-68.264 68.264v0h-136.526c-37.701 0-68.264-30.563-68.264-68.264v0-307.186h-307.186c-37.701 0-68.264-30.563-68.264-68.264v0-136.526c0-37.701 30.563-68.264 68.264-68.264v0h307.186v-307.186c0-37.701 30.563-68.264 68.264-68.264v0h136.526c37.701 0 68.264 30.563 68.264 68.264v0 307.186h307.186c37.701 0 68.264 30.563 68.264 68.264v0 136.526c0 37.701-30.563 68.264-68.264 68.264v0z" />
<glyph unicode="&#xe90e;" glyph-name="plus-circle" data-tags="plus-circle" d="M149.776 810.224c-92.529-92.63-149.754-220.543-149.754-361.822 0-282.757 229.22-511.977 511.977-511.977s511.977 229.22 511.977 511.977c0 141.279-57.224 269.192-149.758 361.826l0.004-0.004c-92.669 92.769-220.745 150.157-362.224 150.157s-269.555-57.386-362.219-150.151l-0.004-0.004zM775.669 529.277c22.621 0 40.959-18.338 40.959-40.959v0-80.637c0-22.621-18.338-40.959-40.959-40.959v0h-182.392v-182.392c0-22.621-18.338-40.959-40.959-40.959v0h-80.637c-22.621 0-40.959 18.338-40.959 40.959v0 182.392h-182.392c-22.621 0-40.959 18.338-40.959 40.959v0 80.637c0 22.621 18.338 40.959 40.959 40.959h182.392v182.392c0 22.621 18.338 40.959 40.959 40.959v0h80.637c22.621 0 40.959-18.338 40.959-40.959v0-182.392z" />
<glyph unicode="&#xe90f;" glyph-name="minus" data-tags="minus" d="M68.288 583.162h887.426c37.701 0 68.264-30.563 68.264-68.264v-134.479c0-37.701-30.563-68.264-68.264-68.264h-887.426c-37.701 0-68.264 30.563-68.264 68.264v134.479c0 37.701 30.563 68.264 68.264 68.264z" />
<glyph unicode="&#xe910;" glyph-name="minus-circle" data-tags="minus-circle" d="M512 959.977c-282.757 0-511.977-229.22-511.977-511.977s229.22-511.977 511.977-511.977c282.757 0 511.977 229.22 511.977 511.977v0c0 282.757-229.22 511.977-511.977 511.977v0zM816.626 407.041c0-22.267-18.052-40.318-40.318-40.318v0h-528.618c-22.267 0-40.318 18.052-40.318 40.318v81.916c0 22.267 18.052 40.318 40.318 40.318v0h528.618c22.267 0 40.318-18.052 40.318-40.318v0z" />
<glyph unicode="&#xe911;" glyph-name="circle-on" data-tags="radio-on" d="M1023.977 448c0-282.757-229.22-511.977-511.977-511.977s-511.977 229.22-511.977 511.977c0 282.757 229.22 511.977 511.977 511.977s511.977-229.22 511.977-511.977z" />
<glyph unicode="&#xe912;" glyph-name="circle-off" data-tags="radio-off" d="M512 959.977c-282.757 0-511.977-229.22-511.977-511.977s229.22-511.977 511.977-511.977c282.757 0 511.977 229.22 511.977 511.977v0c0 282.757-229.22 511.977-511.977 511.977v0zM512 64.017c-212.068 0-383.983 171.915-383.983 383.983s171.915 383.983 383.983 383.983c212.068 0 383.983-171.915 383.983-383.983v0c0-212.068-171.915-383.983-383.983-383.983v0z" />
<glyph unicode="&#xe913;" glyph-name="sort-down" data-tags="sort-down" d="M552.082 185.003l459.19 457.080c7.96 9.185 12.813 21.254 12.813 34.457 0 29.127-23.613 52.74-52.74 52.74-0.054 0-0.109 0-0.163 0h-918.373c-29.185-0.432-52.677-24.191-52.677-53.437 0-13.169 4.763-25.225 12.659-34.54l-0.064 0.077 459.894-456.378c9.607-11.306 23.837-18.433 39.731-18.433s30.124 7.127 39.669 18.357l0.061 0.074z" />
<glyph unicode="&#xe914;" glyph-name="sort-up" data-tags="sort-up" d="M471.918 710.997l-459.19-457.080c-7.96-9.185-12.813-21.254-12.813-34.457 0-29.127 23.613-52.74 52.74-52.74 0.054 0 0.109 0 0.163 0h918.373c29.185 0.432 52.677 24.191 52.677 53.437 0 13.169-4.763 25.225-12.659 34.54l0.064-0.077-459.894 456.378c-9.607 11.306-23.837 18.433-39.731 18.433s-30.124-7.127-39.669-18.357l-0.061-0.074z" />
<glyph unicode="&#xe915;" glyph-name="sort" data-tags="sort" d="M162.173 531.037h699.656c0.176-0.003 0.384-0.004 0.593-0.004 22.19 0 40.179 17.989 40.179 40.179 0 10.311-3.884 19.714-10.268 26.828l0.033-0.038-350.363 348.22c-7.404 8.45-18.216 13.756-30.269 13.756s-22.865-5.306-30.229-13.71l-0.040-0.046-349.827-348.22c-5.968-7.038-9.595-16.222-9.595-26.255 0-22.282 17.897-40.383 40.101-40.71h0.031zM861.827 364.963h-699.656c-0.176 0.003-0.384 0.004-0.593 0.004-22.19 0-40.179-17.989-40.179-40.179 0-10.311 3.884-19.714 10.268-26.828l-0.033 0.038 350.363-348.22c7.404-8.45 18.216-13.756 30.269-13.756s22.865 5.306 30.229 13.71l0.040 0.046 349.827 348.22c5.968 7.038 9.595 16.222 9.595 26.255 0 22.282-17.897 40.383-40.101 40.71h-0.031z" />
<glyph unicode="&#xe916;" glyph-name="step-backward" data-tags="step-backward" d="M776.39-51.245c9.185-7.96 21.253-12.812 34.456-12.812 29.126 0 52.737 23.611 52.737 52.737 0 0.054 0 0.109 0 0.163v-0.008 918.332c-0.432 29.183-24.19 52.675-53.434 52.675-13.168 0-25.223-4.763-34.538-12.659l0.077 0.064-456.354-459.869c-11.162-9.555-18.212-23.636-18.282-39.365v-0.012c0.051-15.961 7.093-30.27 18.221-40.028l0.061-0.053zM195.576-63.902h70.317c19.417 0 35.158 15.74 35.158 35.158v0 953.49c0 19.417-15.74 35.158-35.158 35.158v0h-70.317c-19.417 0-35.158-15.74-35.158-35.158v0-953.49c0-19.417 15.74-35.158 35.158-35.158v0z" />
<glyph unicode="&#xe917;" glyph-name="step-forward" data-tags="step-forward" d="M247.61 947.245c-9.185 7.96-21.253 12.812-34.456 12.812-29.126 0-52.737-23.611-52.737-52.737 0-0.054 0-0.109 0-0.163v0.008-918.332c0.432-29.183 24.19-52.675 53.434-52.675 13.168 0 25.223 4.763 34.538 12.659l-0.077-0.064 456.354 459.869c11.162 9.555 18.212 23.636 18.282 39.365v0.012c-0.051 15.961-7.093 30.27-18.221 40.028l-0.061 0.053zM828.424 959.902h-70.317c-19.417 0-35.158-15.74-35.158-35.158v0-953.49c0-19.417 15.74-35.158 35.158-35.158v0h70.317c19.417 0 35.158 15.74 35.158 35.158v0 953.49c0 19.417-15.74 35.158-35.158 35.158v0z" />
<glyph unicode="&#xe918;" glyph-name="th-large" data-tags="th-large" d="M56.909 903.091h341.319c31.417 0 56.887-25.47 56.887-56.887v-284.432c0-31.417-25.47-56.887-56.887-56.887h-341.319c-31.417 0-56.887 25.47-56.887 56.887v284.432c0 31.417 25.47 56.887 56.887 56.887zM56.909 396.802h341.319c31.417 0 56.887-25.47 56.887-56.887v-284.432c0-31.417-25.47-56.887-56.887-56.887h-341.319c-31.417 0-56.887 25.47-56.887 56.887v284.432c0 31.417 25.47 56.887 56.887 56.887zM625.772 903.091h341.319c31.417 0 56.887-25.47 56.887-56.887v-284.432c0-31.417-25.47-56.887-56.887-56.887h-341.319c-31.417 0-56.887 25.47-56.887 56.887v284.432c0 31.417 25.47 56.887 56.887 56.887zM625.772 391.113h341.319c31.417 0 56.887-25.47 56.887-56.887v-284.432c0-31.417-25.47-56.887-56.887-56.887h-341.319c-31.417 0-56.887 25.47-56.887 56.887v284.432c0 31.417 25.47 56.887 56.887 56.887z" />
<glyph unicode="&#xe919;" glyph-name="arrow-down" data-tags="arrow-down" d="M967.429 472.254c-14.771 14.513-35.039 23.472-57.4 23.472s-42.63-8.959-57.412-23.483l0.011 0.011-259.783-260.322v667.244c0 44.649-36.196 80.845-80.845 80.845s-80.845-36.196-80.845-80.845v0-667.244l-259.783 260.322c-14.191 12.345-32.86 19.87-53.287 19.87-44.948 0-81.385-36.437-81.385-81.385 0-20.426 7.525-39.095 19.955-53.386l-0.085 0.099 398.299-397.76c14.627-14.609 34.824-23.643 57.131-23.643s42.504 9.034 57.131 23.645l398.298 397.758c14.513 14.771 23.472 35.039 23.472 57.4s-8.959 42.63-23.483 57.412l0.011-0.011z" />
<glyph unicode="&#xe91a;" glyph-name="arrow-left" data-tags="arrow-left" d="M536.254-7.429c14.513 14.771 23.472 35.039 23.472 57.4s-8.959 42.63-23.483 57.412l0.011-0.011-260.322 259.783h667.244c44.649 0 80.845 36.196 80.845 80.845s-36.196 80.845-80.845 80.845v0h-667.244l260.322 259.783c12.345 14.191 19.87 32.86 19.87 53.287 0 44.948-36.437 81.385-81.385 81.385-20.426 0-39.095-7.525-53.386-19.955l0.099 0.085-397.76-398.299c-14.609-14.627-23.643-34.824-23.643-57.131s9.034-42.504 23.645-57.131l397.758-398.298c14.771-14.513 35.039-23.472 57.4-23.472s42.63 8.959 57.412 23.483l-0.011-0.011z" />
<glyph unicode="&#xe91b;" glyph-name="arrow-right" data-tags="arrow-right" d="M487.746 903.429c-14.513-14.771-23.472-35.039-23.472-57.4s8.959-42.63 23.483-57.412l-0.011 0.011 260.322-259.783h-667.244c-44.649 0-80.845-36.196-80.845-80.845s36.196-80.845 80.845-80.845v0h667.244l-260.322-259.783c-12.345-14.191-19.87-32.86-19.87-53.287 0-44.948 36.437-81.385 81.385-81.385 20.426 0 39.095 7.525 53.386 19.955l-0.099-0.085 397.76 398.299c14.609 14.627 23.643 34.824 23.643 57.131s-9.034 42.504-23.645 57.131l-397.758 398.298c-14.771 14.513-35.039 23.472-57.4 23.472s-42.63-8.959-57.412-23.483l0.011 0.011z" />
<glyph unicode="&#xe91c;" glyph-name="arrow-up" data-tags="arrow-up" d="M56.571 423.746c14.771-14.513 35.039-23.472 57.4-23.472s42.63 8.959 57.412 23.483l-0.011-0.011 259.783 260.322v-667.244c0-44.649 36.196-80.845 80.845-80.845s80.845 36.196 80.845 80.845v0 667.244l259.783-260.322c14.191-12.345 32.86-19.87 53.287-19.87 44.948 0 81.385 36.437 81.385 81.385 0 20.426-7.525 39.095-19.955 53.386l0.085-0.099-398.299 397.76c-14.627 14.609-34.824 23.643-57.131 23.643s-42.504-9.034-57.131-23.645l-398.298-397.758c-14.513-14.771-23.472-35.039-23.472-57.4s8.959-42.63 23.483-57.412l-0.011 0.011z" />
<glyph unicode="&#xe91d;" glyph-name="bars" data-tags="bars" d="M64.021 543.995h895.956c35.344 0 63.997-28.653 63.997-63.997v-63.997c0-35.344-28.653-63.997-63.997-63.997h-895.956c-35.344 0-63.997 28.653-63.997 63.997v63.997c0 35.344 28.653 63.997 63.997 63.997zM64.021 895.979h895.956c35.344 0 63.997-28.653 63.997-63.997v-63.997c0-35.344-28.653-63.997-63.997-63.997h-895.956c-35.344 0-63.997 28.653-63.997 63.997v63.997c0 35.344 28.653 63.997 63.997 63.997zM64.021 192.012h895.956c35.344 0 63.997-28.653 63.997-63.997v-63.997c0-35.344-28.653-63.997-63.997-63.997h-895.956c-35.344 0-63.997 28.653-63.997 63.997v63.997c0 35.344 28.653 63.997 63.997 63.997z" />
<glyph unicode="&#xe91e;" glyph-name="arrow-circle-down" data-tags="arrow-circle-down" d="M0.013 448c0-282.763 229.224-511.987 511.987-511.987s511.987 229.224 511.987 511.987c0 282.763-229.224 511.987-511.987 511.987v0c-282.763 0-511.987-229.224-511.987-511.987v0zM565.759 735.993v-447.99l174.075 173.436c9.745 9.745 23.209 15.774 38.080 15.774 29.741 0 53.852-24.11 53.852-53.852 0-14.871-6.027-28.334-15.774-38.080v0l-265.594-263.674c-9.838-9.805-23.41-15.867-38.399-15.867s-28.561 6.061-38.401 15.868l0.001-0.001-265.594 266.233c-9.745 9.745-15.774 23.209-15.774 38.080 0 29.741 24.11 53.852 53.852 53.852 14.871 0 28.334-6.027 38.080-15.774v0l174.075-173.436v447.99c0 29.69 24.068 53.759 53.759 53.759s53.759-24.068 53.759-53.759v0z" />
<glyph unicode="&#xe91f;" glyph-name="arrow-circle-left" data-tags="arrow-circle-left" d="M512 959.987c-282.763 0-511.987-229.224-511.987-511.987s229.224-511.987 511.987-511.987c282.763 0 511.987 229.224 511.987 511.987v0c0 282.763-229.224 511.987-511.987 511.987v0zM799.993 394.241h-447.99l173.436-174.075c9.745-9.745 15.774-23.209 15.774-38.080 0-29.741-24.11-53.852-53.852-53.852-14.871 0-28.334 6.027-38.080 15.774v0l-263.674 265.594c-9.805 9.838-15.867 23.41-15.867 38.399s6.061 28.561 15.868 38.401l-0.001-0.001 266.233 265.594c9.745 9.745 23.209 15.774 38.080 15.774 29.741 0 53.852-24.11 53.852-53.852 0-14.871-6.027-28.334-15.774-38.080v0l-173.436-174.075h447.99c29.69 0 53.759-24.068 53.759-53.759s-24.068-53.759-53.759-53.759v0z" />
<glyph unicode="&#xe920;" glyph-name="arrow-circle-right" data-tags="arrow-circle-right" d="M512-63.987c282.763 0 511.987 229.224 511.987 511.987s-229.224 511.987-511.987 511.987c-282.763 0-511.987-229.224-511.987-511.987v0c0-282.763 229.224-511.987 511.987-511.987v0zM224.007 501.759h447.99l-175.995 174.075c-9.745 9.745-15.774 23.209-15.774 38.080 0 29.741 24.11 53.852 53.852 53.852 14.871 0 28.334-6.027 38.080-15.774v0l266.233-265.594c9.805-9.838 15.867-23.41 15.867-38.399s-6.061-28.561-15.868-38.401l0.001 0.001-266.233-265.594c-9.745-9.745-23.209-15.774-38.080-15.774-29.741 0-53.852 24.11-53.852 53.852 0 14.871 6.027 28.334 15.774 38.080v0l173.436 174.075h-447.99c-29.69 0-53.759 24.068-53.759 53.759s24.068 53.759 53.759 53.759v0z" />
<glyph unicode="&#xe921;" glyph-name="arrow-circle-up" data-tags="arrow-circle-up" d="M1023.987 448c0 282.763-229.224 511.987-511.987 511.987s-511.987-229.224-511.987-511.987c0-282.763 229.224-511.987 511.987-511.987v0c282.763 0 511.987 229.224 511.987 511.987v0zM458.241 160.007v447.99l-174.075-175.995c-9.745-9.745-23.209-15.774-38.080-15.774-29.741 0-53.852 24.11-53.852 53.852 0 14.871 6.027 28.334 15.774 38.080v0l265.594 266.233c9.838 9.805 23.41 15.867 38.399 15.867s28.561-6.061 38.401-15.868l-0.001 0.001 265.594-266.233c9.745-9.745 15.774-23.209 15.774-38.080 0-29.741-24.11-53.852-53.852-53.852-14.871 0-28.334 6.027-38.080 15.774v0l-174.075 173.436v-447.99c0-29.69-24.068-53.759-53.759-53.759s-53.759 24.068-53.759 53.759v0z" />
<glyph unicode="&#xe922;" glyph-name="exclamation-triangle" data-tags="exclamation-triangle" d="M1013.613 107.153l-440.261 754.407c-12.742 20.939-35.439 34.709-61.352 34.709s-48.611-13.771-61.174-34.394l-0.178-0.316-440.261-754.407c-6.504-10.52-10.357-23.273-10.357-36.929 0-39.217 31.792-71.009 71.009-71.009 0.246 0 0.493 0.001 0.738 0.004h880.483c0.208-0.003 0.454-0.004 0.7-0.004 39.217 0 71.009 31.792 71.009 71.009 0 13.655-3.854 26.409-10.533 37.235l0.176-0.306zM460.304 637.17h103.39c16.001 0 28.972-12.971 28.972-28.972v0l-11.361-234.049c0-0.001 0-0.004 0-0.005 0-15.687-12.717-28.403-28.403-28.403-0.2 0-0.399 0.003-0.598 0.007h-80.638c-0.169-0.004-0.369-0.005-0.569-0.005-15.687 0-28.403 12.717-28.403 28.403 0 0.003 0 0.004 0 0.007v0l-11.361 234.049c0 16.001 12.971 28.972 28.972 28.972v0zM512 133.852c-47.054 0.009-85.194 38.156-85.194 85.212 0 47.061 38.151 85.212 85.212 85.212 46.462 0 84.238-37.186 85.193-83.418l0.001-0.089c0.011-0.507 0.017-1.105 0.017-1.704 0-47.061-38.151-85.212-85.212-85.212-0.007 0-0.012 0-0.019 0h0.001z" />
<glyph unicode="&#xe923;" glyph-name="info" data-tags="info" d="M409.6 755.2h204.8c18.851 0 34.133 15.282 34.133 34.133v0 136.533c0 18.851-15.282 34.133-34.133 34.133v0h-211.627c-15.082 0-27.307-12.226-27.307-27.307v0-143.36c0-18.851 15.282-34.133 34.133-34.133v0zM716.8 106.667h-68.267v477.867c0 18.851-15.282 34.133-34.133 34.133v0h-307.2c-18.851 0-34.133-15.282-34.133-34.133v0-102.4c0-18.851 15.282-34.133 34.133-34.133v0h68.267v-341.333h-68.267c-18.851 0-34.133-15.282-34.133-34.133v0-102.4c0-18.851 15.282-34.133 34.133-34.133v0h409.6c18.851 0 34.133 15.282 34.133 34.133v0 102.4c0 18.851-15.282 34.133-34.133 34.133v0z" />
<glyph unicode="&#xe924;" glyph-name="info-circle" data-tags="info-circle" d="M512 959.999c-282.77 0-512-229.23-512-511.999s229.23-512 512-512c282.77 0 512 229.23 512 512v0c0 282.77-229.23 512-512 512v0zM426.88 751.36c0 9.191 7.45 16.639 16.639 16.639h132.48c11.664 0 21.12-9.456 21.12-21.12v0-85.76c0-11.664-9.456-21.12-21.12-21.12v0h-127.999c-11.664 0-21.12 9.456-21.12 21.12v0zM661.12 149.12c0-11.664-9.456-21.12-21.12-21.12v0h-256c-11.664 0-21.12 9.456-21.12 21.12v0 64c0 0.003 0 0.006 0 0.009 0 11.793 9.381 21.395 21.087 21.75l0.033 0.002h42.88v213.12h-42.88c-11.664 0-21.12 9.456-21.12 21.12v64c0 0.003 0 0.006 0 0.009 0 11.793 9.381 21.394 21.087 21.75l0.033 0.001h192c11.739-0.357 21.12-9.959 21.12-21.75 0-0.003 0-0.006 0-0.010v0-298.241h42.88c11.739-0.357 21.12-9.958 21.12-21.75 0-0.003 0-0.006 0-0.010v0z" />
<glyph unicode="&#xe925;" glyph-name="home" data-tags="home" d="M1005.819 518.692l-477.426 406.223c-4.441 3.602-10.162 5.782-16.392 5.782s-11.951-2.18-16.441-5.821l0.049 0.038-477.426-406.223c-11.809-9.466-19.306-23.89-19.306-40.066 0-12.932 4.792-24.745 12.696-33.759l-0.050 0.059c9.463-11.357 23.611-18.531 39.435-18.531 12.513 0 23.977 4.485 32.873 11.938l-0.080-0.065 409.808 353.972c4.37 3.786 10.112 6.092 16.392 6.092s12.022-2.306 16.424-6.118l-0.031 0.026 409.808-353.972c8.816-7.386 20.281-11.872 32.793-11.872 15.824 0 29.972 7.175 39.369 18.449l0.067 0.083c8.934 9.21 14.44 21.786 14.44 35.65 0 15.113-6.545 28.698-16.955 38.075l-0.046 0.041zM528.905 718.473c-4.443 4.059-10.384 6.546-16.905 6.546s-12.461-2.486-16.924-6.564l0.019 0.018-366.778-321.7c-15.77-13.818-25.775-33.881-26.124-56.288l-0.001-0.061v-298.135c0-42.437 34.402-76.839 76.839-76.839v0h217.71c14.146 0 25.613 11.467 25.613 25.613v0 178.779c0 28.291 22.935 51.226 51.226 51.226v0h76.839c28.291 0 51.226-22.935 51.226-51.226v0-178.779c0-14.146 11.467-25.613 25.613-25.613v0h217.71c42.437 0 76.839 34.402 76.839 76.839v0 297.623c-0.533 22.589-10.48 42.754-26.056 56.798l-0.070 0.062z" />
<glyph unicode="&#xe926;" glyph-name="spinner" data-tags="spinner" d="M512-63.982c-282.759 0-511.982 229.222-511.982 511.982s229.222 511.982 511.982 511.982v0c32.613 0 59.053-26.439 59.053-59.053s-26.439-59.053-59.053-59.053v0c-0.141 0-0.307 0-0.473 0-217.859 0-394.467-176.61-394.467-394.467s176.61-394.467 394.467-394.467c217.859 0 394.467 176.61 394.467 394.467 0 75.756-21.356 146.526-58.374 206.615l0.977-1.705c-5.69 8.916-9.068 19.786-9.068 31.445 0 20.611 10.559 38.756 26.564 49.319l0.221 0.137c8.67 5.283 19.156 8.411 30.374 8.411 21.318 0 39.999-11.296 50.38-28.23l0.147-0.257c46.758-75.711 74.465-167.489 74.465-265.737 0-281.832-227.982-510.415-509.586-511.388h-0.093z" />
<glyph unicode="&#xe927;" glyph-name="calendar" data-tags="calendar" d="M907.567 840.177h-791.133c-31.209 0-56.51-25.301-56.51-56.51v0-791.133c0-31.209 25.301-56.51 56.51-56.51v0h791.133c31.209 0 56.51 25.301 56.51 56.51v0 791.133c0 31.209-25.301 56.51-56.51 56.51v0zM879.312 77.298c0-31.209-25.301-56.51-56.51-56.51v0h-621.605c-31.209 0-56.51 25.301-56.51 56.51v0 474.115c0 31.209 25.301 56.51 56.51 56.51v0h621.605c31.209 0 56.51-25.301 56.51-56.51v0zM227.192 548.022h83.069c15.605 0 28.254-12.65 28.254-28.254v-83.069c0-15.605-12.65-28.254-28.254-28.254h-83.069c-15.605 0-28.254 12.65-28.254 28.254v83.069c0 15.605 12.65 28.254 28.254 28.254zM389.374 548.022h83.069c15.605 0 28.254-12.65 28.254-28.254v-83.069c0-15.605-12.65-28.254-28.254-28.254h-83.069c-15.605 0-28.254 12.65-28.254 28.254v83.069c0 15.605 12.65 28.254 28.254 28.254zM551.557 548.022h83.069c15.605 0 28.254-12.65 28.254-28.254v-83.069c0-15.605-12.65-28.254-28.254-28.254h-83.069c-15.605 0-28.254 12.65-28.254 28.254v83.069c0 15.605 12.65 28.254 28.254 28.254zM713.739 548.022h83.069c15.605 0 28.254-12.65 28.254-28.254v-83.069c0-15.605-12.65-28.254-28.254-28.254h-83.069c-15.605 0-28.254 12.65-28.254 28.254v83.069c0 15.605 12.65 28.254 28.254 28.254zM227.192 378.493h83.069c15.605 0 28.254-12.65 28.254-28.254v-83.069c0-15.605-12.65-28.254-28.254-28.254h-83.069c-15.605 0-28.254 12.65-28.254 28.254v83.069c0 15.605 12.65 28.254 28.254 28.254zM389.374 378.493h83.069c15.605 0 28.254-12.65 28.254-28.254v-83.069c0-15.605-12.65-28.254-28.254-28.254h-83.069c-15.605 0-28.254 12.65-28.254 28.254v83.069c0 15.605 12.65 28.254 28.254 28.254zM551.557 378.493h83.069c15.605 0 28.254-12.65 28.254-28.254v-83.069c0-15.605-12.65-28.254-28.254-28.254h-83.069c-15.605 0-28.254 12.65-28.254 28.254v83.069c0 15.605 12.65 28.254 28.254 28.254zM713.739 378.493h83.069c15.605 0 28.254-12.65 28.254-28.254v-83.069c0-15.605-12.65-28.254-28.254-28.254h-83.069c-15.605 0-28.254 12.65-28.254 28.254v83.069c0 15.605 12.65 28.254 28.254 28.254zM227.192 216.311h83.069c15.605 0 28.254-12.65 28.254-28.254v-83.069c0-15.605-12.65-28.254-28.254-28.254h-83.069c-15.605 0-28.254 12.65-28.254 28.254v83.069c0 15.605 12.65 28.254 28.254 28.254zM389.374 216.311h83.069c15.605 0 28.254-12.65 28.254-28.254v-83.069c0-15.605-12.65-28.254-28.254-28.254h-83.069c-15.605 0-28.254 12.65-28.254 28.254v83.069c0 15.605 12.65 28.254 28.254 28.254zM551.557 216.311h83.069c15.605 0 28.254-12.65 28.254-28.254v-83.069c0-15.605-12.65-28.254-28.254-28.254h-83.069c-15.605 0-28.254 12.65-28.254 28.254v83.069c0 15.605 12.65 28.254 28.254 28.254zM713.739 216.311h83.069c15.605 0 28.254-12.65 28.254-28.254v-83.069c0-15.605-12.65-28.254-28.254-28.254h-83.069c-15.605 0-28.254 12.65-28.254 28.254v83.069c0 15.605 12.65 28.254 28.254 28.254zM257.707 958.847h24.3c31.209 0 56.51-25.301 56.51-56.51v-127.146c0-31.209-25.301-56.51-56.51-56.51h-24.3c-31.209 0-56.51 25.301-56.51 56.51v127.146c0 31.209 25.301 56.51 56.51 56.51zM743.124 959.976h24.3c31.209 0 56.51-25.301 56.51-56.51v-127.146c0-31.209-25.301-56.51-56.51-56.51h-24.3c-31.209 0-56.51 25.301-56.51 56.51v127.146c0 31.209 25.301 56.51 56.51 56.51z" />
<glyph unicode="&#xe928;" glyph-name="chevron-circle-left" data-tags="chevron-circle-left" d="M512 959.987c-282.763 0-511.987-229.224-511.987-511.987s229.224-511.987 511.987-511.987c282.763 0 511.987 229.224 511.987 511.987v0c0 282.763-229.224 511.987-511.987 511.987v0zM653.436 237.446c11.692-11.599 18.931-27.674 18.931-45.438s-7.239-33.839-18.927-45.435l-0.004-0.004c-11.599-11.692-27.674-18.931-45.438-18.931s-33.839 7.239-45.435 18.927l-255.999 255.999c-11.692 11.599-18.931 27.674-18.931 45.438s7.239 33.839 18.927 45.435l255.999 255.999c11.629 11.629 27.694 18.822 45.438 18.822 35.491 0 64.26-28.771 64.26-64.26 0-17.745-7.192-33.811-18.822-45.438v0l-211.195-210.554z" />
<glyph unicode="&#xe929;" glyph-name="chevron-circle-down" data-tags="chevron-circle-down" d="M0.013 448c0-282.763 229.224-511.987 511.987-511.987s511.987 229.224 511.987 511.987c0 282.763-229.224 511.987-511.987 511.987v0c-282.763 0-511.987-229.224-511.987-511.987v0zM722.554 589.436c11.599 11.692 27.674 18.931 45.438 18.931s33.839-7.239 45.435-18.927l0.004-0.004c11.692-11.599 18.931-27.674 18.931-45.438s-7.239-33.839-18.927-45.435l-255.999-255.999c-11.599-11.692-27.674-18.931-45.438-18.931s-33.839 7.239-45.435 18.927l-255.999 255.999c-11.629 11.629-18.822 27.694-18.822 45.438 0 35.491 28.771 64.26 64.26 64.26 17.745 0 33.811-7.192 45.438-18.822v0l210.554-211.195z" />
<glyph unicode="&#xe92a;" glyph-name="chevron-circle-right" data-tags="chevron-circle-right" d="M512-63.987c282.763 0 511.987 229.224 511.987 511.987s-229.224 511.987-511.987 511.987c-282.763 0-511.987-229.224-511.987-511.987v0c0-282.763 229.224-511.987 511.987-511.987v0zM370.564 658.554c-11.692 11.599-18.931 27.674-18.931 45.438s7.239 33.839 18.927 45.435l0.004 0.004c11.599 11.692 27.674 18.931 45.438 18.931s33.839-7.239 45.435-18.927l255.999-255.999c11.692-11.599 18.931-27.674 18.931-45.438s-7.239-33.839-18.927-45.435l-255.999-255.999c-11.629-11.629-27.694-18.822-45.438-18.822-35.491 0-64.26 28.771-64.26 64.26 0 17.745 7.192 33.811 18.822 45.438v0l211.195 210.554z" />
<glyph unicode="&#xe92b;" glyph-name="chevron-circle-up" data-tags="chevron-circle-up" d="M1023.987 448c0 282.763-229.224 511.987-511.987 511.987s-511.987-229.224-511.987-511.987c0-282.763 229.224-511.987 511.987-511.987v0c282.763 0 511.987 229.224 511.987 511.987v0zM301.446 306.564c-11.599-11.692-27.674-18.931-45.438-18.931s-33.839 7.239-45.435 18.927l-0.004 0.004c-11.692 11.599-18.931 27.674-18.931 45.438s7.239 33.839 18.927 45.435l255.999 255.999c11.599 11.692 27.674 18.931 45.438 18.931s33.839-7.239 45.435-18.927l255.999-255.999c11.629-11.629 18.822-27.694 18.822-45.438 0-35.491-28.771-64.26-64.26-64.26-17.745 0-33.811 7.192-45.438 18.822v0l-210.554 211.195z" />
<glyph unicode="&#xe92c;" glyph-name="angle-double-down" data-tags="angle-double-down" d="M512 175.274l-227.161 227.161c-18.133 19.421-43.887 31.527-72.468 31.527-54.705 0-99.053-44.348-99.053-99.053 0-28.581 12.106-54.335 31.469-72.416l0.057-0.053 297.159-297.159c17.847-18.060 42.616-29.244 69.998-29.244s52.151 11.185 69.989 29.235l297.168 297.168c17.899 17.921 28.968 42.667 28.968 69.998s-11.069 52.077-28.97 69.998l0.002-0.002c-17.847 18.060-42.616 29.244-69.998 29.244s-52.151-11.185-69.989-29.235l-0.009-0.009zM512 703.557l-227.161 227.161c-17.641 16.472-41.403 26.585-67.526 26.585-54.705 0-99.053-44.348-99.053-99.053 0-26.124 10.113-49.886 26.638-67.584l-0.053 0.057 297.159-297.159c17.847-18.060 42.616-29.244 69.998-29.244s52.151 11.185 69.989 29.235l297.168 297.168c17.899 17.921 28.968 42.667 28.968 69.998s-11.069 52.077-28.97 69.998l0.002-0.002c-17.847 18.060-42.616 29.244-69.998 29.244s-52.151-11.185-69.989-29.235l-0.009-0.009z" />
<glyph unicode="&#xe92d;" glyph-name="angle-double-left" data-tags="angle-double-left" d="M239.878 448l226.659 226.659c19.378 18.093 31.457 43.79 31.457 72.308 0 54.584-44.25 98.834-98.834 98.834-28.518 0-54.215-12.079-72.255-31.4l-0.053-0.057-296.502-296.502c-18.020-17.807-29.179-42.522-29.179-69.843s11.161-52.036 29.17-69.834l296.511-296.511c17.881-17.86 42.573-28.904 69.843-28.904s51.962 11.045 69.843 28.906l-0.002-0.002c18.020 17.807 29.179 42.522 29.179 69.843s-11.161 52.036-29.17 69.834l-0.009 0.009zM766.991 448l226.659 226.659c19.378 18.093 31.457 43.79 31.457 72.308 0 54.584-44.25 98.834-98.834 98.834-28.518 0-54.215-12.079-72.255-31.4l-0.053-0.057-296.502-296.502c-18.020-17.807-29.179-42.522-29.179-69.843s11.161-52.036 29.17-69.834l296.511-296.511c17.881-17.86 42.573-28.904 69.843-28.904s51.962 11.045 69.843 28.906l-0.002-0.002c18.020 17.807 29.179 42.522 29.179 69.843s-11.161 52.036-29.17 69.834l-0.009 0.009z" />
<glyph unicode="&#xe92e;" glyph-name="angle-double-right" data-tags="angle-double-right" d="M784.122 448l-226.659-226.659c-19.378-18.093-31.457-43.79-31.457-72.308 0-54.584 44.25-98.834 98.834-98.834 28.518 0 54.215 12.079 72.255 31.4l0.053 0.057 296.502 296.502c18.020 17.807 29.179 42.522 29.179 69.843s-11.161 52.036-29.17 69.834l-296.511 296.511c-17.881 17.86-42.573 28.904-69.843 28.904s-51.962-11.045-69.843-28.906l0.002 0.002c-18.020-17.807-29.179-42.522-29.179-69.843s11.161-52.036 29.17-69.834l0.009-0.009zM257.009 448l-226.659-226.659c-19.378-18.093-31.457-43.79-31.457-72.308 0-54.584 44.25-98.834 98.834-98.834 28.518 0 54.215 12.079 72.255 31.4l0.053 0.057 296.502 296.502c18.020 17.807 29.179 42.522 29.179 69.843s-11.161 52.036-29.17 69.834l-296.511 296.511c-17.881 17.86-42.573 28.904-69.843 28.904s-51.962-11.045-69.843-28.906l0.002 0.002c-18.020-17.807-29.179-42.522-29.179-69.843s11.161-52.036 29.17-69.834l0.009-0.009z" />
<glyph unicode="&#xe92f;" glyph-name="angle-double-up" data-tags="angle-double-up" d="M512 720.122l226.659-226.659c18.093-19.378 43.79-31.457 72.308-31.457 54.584 0 98.834 44.25 98.834 98.834 0 28.518-12.079 54.215-31.4 72.255l-0.057 0.053-296.502 296.502c-17.807 18.020-42.522 29.179-69.843 29.179s-52.036-11.161-69.834-29.17l-296.511-296.511c-17.86-17.881-28.904-42.573-28.904-69.843s11.045-51.962 28.906-69.843l-0.002 0.002c17.807-18.020 42.522-29.179 69.843-29.179s52.036 11.161 69.834 29.17l0.009 0.009zM512 193.009l226.659-226.659c18.093-19.378 43.79-31.457 72.308-31.457 54.584 0 98.834 44.25 98.834 98.834 0 28.518-12.079 54.215-31.4 72.255l-0.057 0.053-296.502 296.502c-17.807 18.020-42.522 29.179-69.843 29.179s-52.036-11.161-69.834-29.17l-296.511-296.511c-17.86-17.881-28.904-42.573-28.904-69.843s11.045-51.962 28.906-69.843l-0.002 0.002c17.807-18.020 42.522-29.179 69.843-29.179s52.036 11.161 69.834 29.17l0.009 0.009z" />
<glyph unicode="&#xe930;" glyph-name="angle-down" data-tags="angle-down" d="M1022.346 639.38c-0.132-35.202-14.405-67.045-37.431-90.166l-382.756-382.756c-22.988-23.263-54.892-37.668-90.162-37.668s-67.174 14.407-90.15 37.656l-382.772 382.772c-25.015 23.356-40.608 56.529-40.608 93.343 0 70.464 57.123 127.587 127.587 127.587 36.815 0 69.987-15.593 93.276-40.535l0.068-0.074 292.598-292.598 292.598 292.598c22.988 23.263 54.892 37.668 90.162 37.668s67.174-14.407 90.15-37.656l0.012-0.012c23.021-23.115 37.293-54.958 37.425-90.136v-0.026z" />
<glyph unicode="&#xe931;" glyph-name="angle-left" data-tags="angle-left" d="M703.38-62.346c-35.202 0.132-67.045 14.405-90.166 37.431l-382.756 382.756c-23.263 22.988-37.668 54.892-37.668 90.162s14.407 67.174 37.656 90.15l382.772 382.772c23.356 25.015 56.529 40.608 93.343 40.608 70.464 0 127.587-57.123 127.587-127.587 0-36.815-15.593-69.987-40.535-93.276l-0.074-0.068-292.598-292.598 292.598-292.598c23.263-22.988 37.668-54.892 37.668-90.162s-14.407-67.174-37.656-90.15l-0.012-0.012c-23.115-23.021-54.958-37.293-90.136-37.425h-0.026z" />
<glyph unicode="&#xe932;" glyph-name="angle-right" data-tags="angle-right" d="M320.598 958.405c35.206-0.132 67.052-14.407 90.176-37.435l382.8-382.8c23.265-22.99 37.672-54.898 37.672-90.172s-14.409-67.182-37.66-90.16l-382.816-382.816c-23.359-25.018-56.535-40.613-93.354-40.613-70.472 0-127.601 57.129-127.601 127.601 0 36.819 15.595 69.995 40.539 93.286l0.074 0.068 292.632 292.632-292.632 292.632c-23.265 22.99-37.672 54.898-37.672 90.172s14.409 67.182 37.66 90.16l0.012 0.012c23.118 23.024 54.964 37.297 90.146 37.429h0.026z" />
<glyph unicode="&#xe933;" glyph-name="angle-up" data-tags="angle-up" d="M1.595 256.598c0.132 35.206 14.407 67.052 37.435 90.176l382.8 382.8c22.99 23.265 54.898 37.672 90.172 37.672s67.182-14.409 90.16-37.66l382.816-382.816c25.018-23.359 40.613-56.535 40.613-93.354 0-70.472-57.129-127.601-127.601-127.601-36.819 0-69.995 15.595-93.286 40.539l-0.068 0.074-292.632 292.632-292.632-292.632c-22.99-23.265-54.898-37.672-90.172-37.672s-67.182 14.409-90.16 37.66l-0.012 0.012c-23.024 23.118-37.297 54.964-37.429 90.146v0.026z" />
<glyph unicode="&#xe934;" glyph-name="upload" data-tags="upload" d="M167.709 539.512h216.301v-315.493c0-17.671 14.325-31.997 31.997-31.997v0h191.983c17.671 0 31.997 14.325 31.997 31.997v0 315.493h216.301c0.018 0 0.040 0 0.061 0 21.559 0 39.037 17.478 39.037 39.037 0 9.52-3.408 18.244-9.071 25.019l0.049-0.061-344.93 338.531c-7.483 7.9-18.046 12.815-29.757 12.815s-22.275-4.915-29.739-12.797l-0.018-0.018-344.291-337.891c-5.944-6.814-9.569-15.785-9.569-25.603 0-21.559 17.478-39.037 39.037-39.037 0.214 0 0.427 0.001 0.642 0.004h-0.031zM959.962 260.497h-255.978v-31.358c0 0 0-0.001 0-0.001 0-52.789-42.613-95.627-95.317-95.989h-192.018c-0.19-0.001-0.415-0.001-0.64-0.001-53.014 0-95.992 42.977-95.992 95.992 0 0 0 0.001 0 0.001v0 31.358h-255.978c-35.343 0-63.995-28.652-63.995-63.995v0-191.983c0-35.343 28.652-63.995 63.995-63.995v0h895.922c35.343 0 63.995 28.652 63.995 63.995v0 191.983c0 35.343-28.652 63.995-63.995 63.995v0zM895.967 48.034c-26.507 0-47.996 21.489-47.996 47.996s21.489 47.996 47.996 47.996c26.507 0 47.996-21.489 47.996-47.996v0c-0.355-26.363-21.633-47.64-47.961-47.996h-0.034z" />
<glyph unicode="&#xe935;" glyph-name="ban" data-tags="ban" d="M512 959.977c-282.757 0-511.977-229.22-511.977-511.977s229.22-511.977 511.977-511.977c282.757 0 511.977 229.22 511.977 511.977v0c0 282.757-229.22 511.977-511.977 511.977v0zM512 831.983c0.297 0.001 0.648 0.001 1 0.001 82.972 0 159.725-26.627 222.179-71.802l-1.11 0.763-535.016-535.016c-44.412 61.346-71.038 138.099-71.038 221.071 0 0.351 0 0.703 0.001 1.054v-0.054c0 212.068 171.915 383.983 383.983 383.983v0zM512 64.017c-0.297-0.001-0.648-0.001-1-0.001-82.972 0-159.725 26.627-222.179 71.802l1.11-0.763 535.016 535.016c44.412-61.346 71.038-138.099 71.038-221.071 0-0.351 0-0.703-0.001-1.054v0.054c0-212.068-171.915-383.983-383.983-383.983v0z" />
<glyph unicode="&#xe936;" glyph-name="star-o" data-tags="star-o" d="M773.627-62.493c-15.237 0.127-29.512 4.132-41.92 11.075l0.443-0.227-220.15 121.88-220.15-121.88c-11.891-6.739-26.117-10.711-41.272-10.711-18.512 0-35.641 5.927-49.591 15.988l0.25-0.172c-22.151 15.259-36.485 40.484-36.485 69.056 0 5.366 0.506 10.613 1.472 15.698l-0.082-0.522 42.754 264.18-183.139 187.606c-14.833 15.451-23.967 36.47-23.967 59.623 0 9.479 1.531 18.602 4.36 27.131l-0.175-0.609c10.046 30.339 36.054 52.724 67.822 57.375l0.456 0.055 249.504 38.287 110.394 236.741c14.147 29.36 43.674 49.262 77.85 49.262s63.703-19.902 77.625-48.747l0.224-0.514 113.585-235.465 249.504-38.287c32.225-4.707 58.232-27.091 68.107-56.835l0.17-0.595c2.852-8.196 4.499-17.642 4.499-27.474 0-23.312-9.259-44.461-24.302-59.97l0.021 0.022-183.139-187.606 42.754-264.18c0.884-4.563 1.389-9.81 1.389-15.176 0-28.572-14.335-53.796-36.205-68.873l-0.281-0.182c-13.474-10.013-30.437-16.028-48.804-16.028-1.238 0-2.471 0.027-3.696 0.081l0.173-0.006zM512 188.287c0.337 0.004 0.733 0.007 1.131 0.007 14.86 0 28.78-4.032 40.723-11.061l-0.377 0.205 182.502-100.822-32.544 220.789c-0.692 4.102-1.087 8.827-1.087 13.646 0 23.523 9.427 44.842 24.71 60.389l-0.012-0.012 154.424 158.252-209.94 32.544c-28.403 5-51.689 23.232-63.586 47.977l-0.226 0.52-95.718 195.264-91.889-195.264c-11.766-25.545-35.229-43.94-63.331-48.433l-0.48-0.063-209.94-32.544 153.787-158.252c15.27-15.533 24.698-36.854 24.698-60.375 0-4.817-0.395-9.543-1.156-14.147l0.069 0.501-35.734-220.789 182.502 100.822c11.567 6.824 25.486 10.856 40.346 10.856 0.398 0 0.794-0.003 1.19-0.009h-0.060zM219.104 291.662v0zM805.534 291.662v0z" />
<glyph unicode="&#xe937;" glyph-name="star" data-tags="star" d="M541.624 940.658l128.799-282.071c4.634-9.577 13.607-16.42 24.296-18.010l0.177-0.021 298.814-45.723c15.681-2.343 27.57-15.716 27.57-31.866 0-8.945-3.647-17.038-9.535-22.871l-0.003-0.003-214.451-220.891c-5.761-6.279-9.293-14.685-9.293-23.916 0-1.558 0.101-3.093 0.296-4.598l-0.018 0.178 51.519-313.627c0.214-1.41 0.337-3.035 0.337-4.69 0-18.14-14.704-32.844-32.844-32.844-5.793 0-11.234 1.499-15.96 4.131l0.168-0.086-264.038 145.544c-4.4 2.732-9.738 4.352-15.456 4.352s-11.056-1.62-15.583-4.424l0.127 0.072-264.038-145.544c-4.558-2.546-10-4.047-15.793-4.047-18.14 0-32.844 14.704-32.844 32.844 0 1.654 0.122 3.281 0.359 4.869l-0.023-0.18 51.519 313.627c0.177 1.327 0.276 2.862 0.276 4.421 0 9.231-3.532 17.637-9.316 23.942l0.024-0.026-217.67 220.891c-5.891 5.837-9.538 13.93-9.538 22.874 0 16.15 11.889 29.523 27.392 31.843l0.177 0.021 298.814 46.368c10.864 1.612 19.838 8.454 24.388 17.841l0.085 0.192 128.799 282.071c4.508 13.115 16.737 22.37 31.129 22.37 14.629 0 27.025-9.565 31.274-22.782l0.065-0.232z" />
<glyph unicode="&#xe938;" glyph-name="refresh" data-tags="refresh" d="M37.3 527.022c5.564-2.015 11.984-3.18 18.678-3.18 24.211 0 44.863 15.244 52.878 36.657l0.128 0.389c56.473 153.655 201.546 261.285 371.758 261.285 127.301 0 240.542-60.204 312.802-153.692l0.679-0.913-101.6-106.68c-4.101-4.256-6.627-10.053-6.627-16.44 0-12.445 9.59-22.651 21.783-23.63l0.083-0.005h290.69c0.171-0.004 0.37-0.007 0.572-0.007 13.716 0 24.835 11.119 24.835 24.835 0 0.201-0.003 0.401-0.007 0.601v-0.029 294.076c-0.716 12.515-11.040 22.393-23.67 22.393-6.65 0-12.66-2.738-16.965-7.148l-0.004-0.005-107.245-107.809c-93.877 114.778-235.503 187.461-394.105 187.461-218.834 0-405.348-138.368-476.829-332.387l-1.136-3.523c-2.168-5.757-3.424-12.413-3.424-19.361 0-24.092 15.093-44.658 36.339-52.759l0.388-0.13zM986.7 368.978c-5.564 2.015-11.984 3.18-18.678 3.18-24.211 0-44.863-15.244-52.878-36.657l-0.128-0.389c-56.473-153.655-201.546-261.285-371.758-261.285-127.301 0-240.542 60.204-312.802 153.692l-0.679 0.913 101.6 103.859c4.101 4.256 6.627 10.053 6.627 16.44 0 12.445-9.59 22.651-21.783 23.63l-0.083 0.005h-290.69c-0.171 0.004-0.37 0.007-0.572 0.007-13.716 0-24.835-11.119-24.835-24.835 0-0.201 0.003-0.401 0.007-0.601v0.029-294.076c0.716-12.515 11.040-22.393 23.67-22.393 6.65 0 12.66 2.738 16.965 7.148l0.004 0.005 107.245 107.809c93.873-114.275 235.192-186.599 393.404-186.599 219.565 0 406.597 139.296 477.543 334.338l1.123 3.534c2.168 5.757 3.424 12.413 3.424 19.361 0 24.092-15.093 44.658-36.339 52.759l-0.388 0.13z" />
<glyph unicode="&#xe939;" glyph-name="user" data-tags="user" d="M753.060 718.9c0-133.133-107.926-241.060-241.060-241.060s-241.060 107.926-241.060 241.060c0 133.133 107.926 241.060 241.060 241.060s241.060-107.926 241.060-241.060zM729.070 510.605c-54.681-57.413-131.707-93.118-217.070-93.118s-162.389 35.705-216.955 92.996l-0.117 0.122c-79.676-40.14-133.487-121.093-133.986-214.664v-239.372c0.33-66.434 54.096-120.199 120.498-120.529h461.087c66.434 0.33 120.199 54.096 120.529 120.498v239.336c-0.499 93.638-54.31 174.59-132.607 214.099l-1.381 0.632z" />
<glyph unicode="&#xe93a;" glyph-name="window-minimize" data-tags="window-minimize" d="M906.299 959.984h-788.6c-64.994 0-117.683-52.689-117.683-117.683v0-363.969c0.34-16.824 14.058-30.33 30.932-30.33 0.001 0 0.004 0 0.006 0h52.168c0.001 0 0.004 0 0.006 0 16.873 0 30.59 13.508 30.93 30.299v364l3.64 3.64 792.24-3.64-3.64-792.24h-363.969c-15.457-0.162-28.186-11.634-30.312-26.526l-0.020-0.165v-54.595c0-16.751 13.579-30.33 30.33-30.33v0h363.969c64.994 0 117.683 52.689 117.683 117.683v786.173c0 64.994-52.689 117.683-117.683 117.683v0zM416.155 621.492c-3.998 3.732-9.382 6.024-15.301 6.024-11.526 0-21.023-8.688-22.299-19.873l-0.010-0.104v-268.73c-0.050-0.557-0.080-1.204-0.080-1.858 0-12.061 9.777-21.838 21.838-21.838 0.455 0 0.906 0.014 1.354 0.041l-0.061-0.003h268.73c11.569 0.614 20.716 10.143 20.716 21.81 0 6.212-2.593 11.816-6.755 15.793l-0.009 0.009-96.452 95.239 207.462 207.462c4.754 4.726 7.697 11.27 7.697 18.501s-2.943 13.775-7.696 18.5l-37.005 37.005c-4.628 4.72-11.071 7.648-18.198 7.648s-13.571-2.926-18.194-7.643l-0.004-0.004-209.889-206.25zM60.678 299.985h242.647c33.502 0 60.662-27.16 60.662-60.662v-242.647c0-33.502-27.16-60.662-60.662-60.662h-242.647c-33.502 0-60.662 27.16-60.662 60.662v242.647c0 33.502 27.16 60.662 60.662 60.662z" />
<glyph unicode="&#xe93b;" glyph-name="window-maximize" data-tags="window-maximize" d="M906.299 959.984h-788.6c-64.994 0-117.683-52.689-117.683-117.683v0-363.969c0.34-16.824 14.058-30.33 30.932-30.33 0.001 0 0.004 0 0.006 0h52.168c0.001 0 0.004 0 0.006 0 16.873 0 30.59 13.508 30.93 30.299v364l3.64 3.64 792.24-3.64-3.64-792.24h-363.969c-15.457-0.162-28.186-11.634-30.312-26.526l-0.020-0.165v-54.595c0-16.751 13.579-30.33 30.33-30.33v0h363.969c64.994 0 117.683 52.689 117.683 117.683v786.173c0 64.994-52.689 117.683-117.683 117.683v0zM765.566 432.228c3.981-3.664 9.318-5.91 15.179-5.91 12.128 0 22.009 9.62 22.431 21.643l0.001 0.038v268.73c0.050 0.557 0.080 1.204 0.080 1.858 0 12.061-9.777 21.838-21.838 21.838-0.455 0-0.906-0.014-1.354-0.041l0.061 0.003h-268.124c-11.569-0.614-20.716-10.143-20.716-21.81 0-6.212 2.593-11.816 6.755-15.793l97.673-97.673-209.282-208.675c-4.754-4.726-7.697-11.27-7.697-18.501s2.943-13.775 7.696-18.5l37.005-37.005c4.628-4.72 11.071-7.648 18.198-7.648s13.571 2.926 18.194 7.643l208.074 208.074zM60.678 299.985h242.647c33.502 0 60.662-27.16 60.662-60.662v-242.647c0-33.502-27.16-60.662-60.662-60.662h-242.647c-33.502 0-60.662 27.16-60.662 60.662v242.647c0 33.502 27.16 60.662 60.662 60.662z" />
<glyph unicode="&#xe93c;" glyph-name="external-link" data-tags="external-link" d="M993.007 448h-52.164c-0.001 0-0.004 0-0.006 0-16.872 0-30.588-13.507-30.928-30.297v-363.97l-3.639-3.639-792.175 3.639 3.639 792.175h363.939c15.456 0.162 28.184 11.633 30.309 26.523l0.020 0.165v54.591c0 16.75-13.578 30.328-30.328 30.328v0h-363.939c-0.007 0-0.016 0-0.026 0-64.136 0-116.289-51.31-117.646-115.12l-0.001-0.127v-788.535c0-64.989 52.684-117.673 117.673-117.673v0h788.535c64.989 0 117.673 52.684 117.673 117.673v0 363.939c-0.34 16.822-14.057 30.328-30.929 30.328-0.001 0-0.004 0-0.006 0v0zM780.708 802.841l-320.266-320.266c-5.398-5.561-8.725-13.159-8.725-21.534s3.328-15.971 8.732-21.541l43.059-43.059c5.561-5.398 13.159-8.725 21.534-8.725s15.971 3.328 21.541 8.732l-0.007-0.007 320.266 320.873 113.428-114.034c4.632-4.744 11.090-7.687 18.237-7.687 13.574 0 24.667 10.615 25.433 23.996l0.003 0.068v312.381c0.043 0.554 0.067 1.2 0.067 1.852 0 14.070-11.406 25.476-25.476 25.476-0.451 0-0.898-0.011-1.343-0.034l0.063 0.003h-313.595c-13.449-0.769-24.064-11.864-24.064-25.436 0-7.147 2.943-13.605 7.681-18.231l0.006-0.004z" />
<glyph unicode="&#xe93d;" glyph-name="trash" data-tags="trash" d="M919.724 768.354h-140.955v116.492c0 50.826-41.203 92.028-92.028 92.028h-349.477c-50.826 0-92.028-41.203-92.028-92.028v0-116.492h-140.955c-16.084 0-29.123-13.038-29.123-29.123v0-58.247c0-16.084 13.038-29.123 29.123-29.123v0h58.247v-582.462c0-64.337 52.155-116.492 116.492-116.492v0h465.969c64.337 0 116.492 52.155 116.492 116.492v0 582.462h58.247c16.084 0 29.123 13.038 29.123 29.123v0 58.247c0 16.084-13.038 29.123-29.123 29.123v0zM371.045 821.94c0.319 15.954 13.17 28.803 29.093 29.123h223.695c15.954-0.319 28.803-13.17 29.123-29.093v-53.616h-281.912zM380.946 69.4c0-16.084-13.038-29.123-29.123-29.123v0h-29.123c-16.084 0-29.123 13.038-29.123 29.123v0 407.724c0 16.084 13.038 29.123 29.123 29.123v0h29.123c16.084 0 29.123-13.038 29.123-29.123v0zM555.685 69.4c0-16.084-13.038-29.123-29.123-29.123v0h-29.123c-16.084 0-29.123 13.038-29.123 29.123v0 407.724c0 16.084 13.038 29.123 29.123 29.123v0h29.123c16.084 0 29.123-13.038 29.123-29.123v0zM730.423 69.4c0-16.084-13.038-29.123-29.123-29.123v0h-29.123c-16.084 0-29.123 13.038-29.123 29.123v0 407.724c0 16.084 13.038 29.123 29.123 29.123v0h29.123c16.084 0 29.123-13.038 29.123-29.123v0z" />
<glyph unicode="&#xe93e;" glyph-name="user-minus" data-tags="user-minus" d="M753.060 718.9c0-133.133-107.926-241.060-241.060-241.060s-241.060 107.926-241.060 241.060c0 133.133 107.926 241.060 241.060 241.060s241.060-107.926 241.060-241.060zM658.275 276.567h409.568c16.157 0 29.254-13.097 29.254-29.254v-66.701c0-16.157-13.097-29.254-29.254-29.254h-409.568c-16.157 0-29.254 13.097-29.254 29.254v66.701c0 16.157 13.097 29.254 29.254 29.254zM570.51 180.61v66.701c0 48.471 39.294 87.764 87.764 87.764v0h201.273c-13.697 77.374-62.535 141.061-129.099 174.894l-1.378 0.635c-54.681-57.413-131.707-93.118-217.070-93.118s-162.389 35.705-216.955 92.996l-0.117 0.122c-79.676-40.14-133.487-121.093-133.986-214.664v-239.372c0.33-66.434 54.096-120.199 120.498-120.529h461.087c66.434 0.33 120.199 54.096 120.529 120.498v36.307h-204.783c-48.471 0-87.764 39.294-87.764 87.764v0z" />
<glyph unicode="&#xe93f;" glyph-name="user-plus" data-tags="user-plus" d="M741.943 92.846h-83.668c-48.471 0-87.764 39.294-87.764 87.764v0 66.701c0 48.471 39.294 87.764 87.764 87.764v0h83.668v83.668c0 0.016 0 0.036 0 0.055 0 25.79 11.275 48.948 29.165 64.813l0.091 0.078c-12.257 9.522-26.044 18.451-40.577 26.163l-1.55 0.75c-54.681-57.413-131.707-93.118-217.070-93.118s-162.389 35.705-216.955 92.996l-0.117 0.122c-79.676-40.14-133.487-121.093-133.986-214.664v-239.372c0.33-66.434 54.096-120.199 120.498-120.529h461.087c11.575 0.267 22.608 2.174 33.009 5.495l-0.828-0.229c-20.039 16.001-32.765 40.429-32.765 67.831 0 0.014 0 0.029 0 0.043v-0.003zM753.060 718.9c0-133.133-107.926-241.060-241.060-241.060s-241.060 107.926-241.060 241.060c0 133.133 107.926 241.060 241.060 241.060s241.060-107.926 241.060-241.060zM1067.841 276.567h-142.178v142.178c0 16.157-13.097 29.254-29.254 29.254v0h-66.701c-16.157 0-29.254-13.097-29.254-29.254v0-142.178h-142.178c-16.157 0-29.254-13.097-29.254-29.254v0-66.701c0-16.157 13.097-29.254 29.254-29.254v0h142.178v-142.178c0-16.157 13.097-29.254 29.254-29.254v0h66.701c16.157 0 29.254 13.097 29.254 29.254v0 142.178h142.178c16.157 0 29.254 13.097 29.254 29.254v0 66.701c0 16.157-13.097 29.254-29.254 29.254v0z" />
<glyph unicode="&#xe940;" glyph-name="clock" data-tags="clock" d="M512 959.977c-282.757 0-511.977-229.22-511.977-511.977s229.22-511.977 511.977-511.977c282.757 0 511.977 229.22 511.977 511.977v0c0 282.757-229.22 511.977-511.977 511.977v0zM512 64.017c-212.068 0-383.983 171.915-383.983 383.983s171.915 383.983 383.983 383.983c212.068 0 383.983-171.915 383.983-383.983v0c0-212.068-171.915-383.983-383.983-383.983v0zM543.998 695.669h-47.998c-17.672 0-31.998-14.326-31.998-31.998v0-223.99h-111.996c-17.672 0-31.998-14.326-31.998-31.998v0-47.998c0-17.672 14.326-31.998 31.998-31.998v0h191.992c17.672 0 31.998 14.326 31.998 31.998v0 303.987c0 17.672-14.326 31.998-31.998 31.998v0z" />
<glyph unicode="&#xe941;" glyph-name="users" data-tags="users" d="M707.152 664.145c0-108.569-88.013-196.583-196.583-196.583s-196.583 88.013-196.583 196.583c0 108.569 88.013 196.583 196.583 196.583s196.583-88.013 196.583-196.583zM687.588 495.715c-44.592-46.82-107.406-75.937-177.019-75.937s-132.427 29.117-176.925 75.838l-0.095 0.1c-64.487-33.143-107.838-99.215-107.838-175.411 0-0.398 0.001-0.795 0.003-1.193v0.062-195.152c0.234-53.194 42.482-96.445 95.259-98.286l0.169-0.004h375.988c0.71-0.018 1.548-0.029 2.386-0.029 54.391 0 98.512 43.965 98.767 98.295v195.176c-0.116 77.206-44.722 143.967-109.548 176.029l-1.15 0.514zM846 654.125c67.369 0.809 121.671 55.61 121.671 123.095 0 67.988-55.114 123.103-123.103 123.103-67.985 0-123.098-55.11-123.103-123.094v0c-0.001-0.146-0.001-0.319-0.001-0.492 0-67.724 54.901-122.625 122.625-122.625 0.671 0 1.342 0.006 2.011 0.016l-0.101-0.001zM178 654.125c0.426-0.006 0.928-0.008 1.431-0.008 67.988 0 123.103 55.114 123.103 123.103s-55.114 123.103-123.103 123.103c-67.985 0-123.098-55.11-123.103-123.094v0c-0.001-0.143-0.001-0.312-0.001-0.481 0-67.389 54.36-122.082 121.621-122.622h0.051zM955.742 670.825c-27.887-29.4-67.237-47.692-110.857-47.692-32.818 0-63.218 10.353-88.111 27.973l0.476-0.32c-2.606-38.329-13.431-73.614-30.714-104.827l0.654 1.287c59.219-35.969 99.783-97.563 106.338-168.998l0.064-0.864h128.828c33.994 0 61.551 27.557 61.551 61.551v0 122.149c-0.3 47.781-27.669 89.098-67.531 109.419l-0.7 0.324zM293.946 547.246c-16.749 29.292-27.594 63.956-30.022 100.918l-0.038 0.713c-23.822-16.108-53.19-25.713-84.8-25.713-43.606 0-82.943 18.28-110.766 47.595l-0.064 0.067c-40.563-20.644-67.932-61.962-68.231-109.702v-122.189c0-33.994 27.557-61.551 61.551-61.551v0h125.966c6.7 72.275 47.238 133.838 105.427 169.31l0.976 0.552z" />
<glyph unicode="&#xe942;" glyph-name="pencil" data-tags="pencil" d="M992.587 802.939l-125.649 125.649c-14.956 18.383-37.578 30.033-62.921 30.033-18.927 0-36.339-6.499-50.121-17.385l0.171 0.13-50.401-50.401 251.297-251.297 53.951 50.401c9.949 13.292 15.931 30.054 15.931 48.215 0 26.334-12.58 49.732-32.058 64.51l-0.201 0.146zM26.443 213.030l-25.556-276.142 276.142 25.556 627.532 627.532-250.587 250.587zM78.973 181.796l49.692 53.241 170.371-170.371-50.401-49.692-91.574-8.519 7.808 91.574-94.414-4.97 8.519 91.574z" />
<glyph unicode="&#xe943;" glyph-name="cloud-download" data-tags="cloud-download" d="M832.723 567.309c0 3.207 0 5.773 0 8.98-0.359 70.58-57.658 127.658-128.288 127.658-31.917 0-61.111-11.656-83.56-30.943l0.17 0.143c-39.416 94.148-130.792 159.089-237.336 159.089-141.483 0-256.219-114.515-256.578-255.914v-0.035c-0.302-5.078-0.475-11.018-0.475-16.999s0.173-11.919 0.513-17.814l-0.038 0.815c-77.604-45.102-128.949-127.846-128.949-222.583 0-141.705 114.874-256.58 256.58-256.58 0.232 0 0.463 0 0.695 0.002h513.122c140.376 1.736 253.504 115.937 253.504 256.56 0 117.791-79.375 217.043-187.554 247.188l-1.804 0.43zM699.944 340.879l-172.549-171.267c-3.554-4.223-8.843-6.889-14.753-6.889s-11.199 2.666-14.729 6.858l-0.024 0.029-173.191 171.267c-3.259 3.53-5.257 8.267-5.257 13.47 0 10.982 8.903 19.885 19.885 19.885 0.045 0 0.089 0 0.134 0h125.075v184.095c0.347 12.965 10.767 23.385 23.701 23.733h47.5c12.965-0.347 23.385-10.767 23.733-23.701v-184.128h125.082c0.038 0 0.083 0 0.126 0 10.982 0 19.885-8.903 19.885-19.885 0-5.203-1.998-9.94-5.271-13.484l0.012 0.014z" />
<glyph unicode="&#xe944;" glyph-name="cloud-upload" data-tags="cloud-upload" d="M832.723 567.309c0 3.207 0 5.773 0 8.98-0.359 70.58-57.658 127.658-128.288 127.658-31.917 0-61.111-11.656-83.56-30.943l0.17 0.143c-39.416 94.148-130.792 159.089-237.336 159.089-141.483 0-256.219-114.515-256.578-255.914v-0.035c-0.302-5.078-0.475-11.018-0.475-16.999s0.173-11.919 0.513-17.814l-0.038 0.815c-77.604-45.102-128.949-127.846-128.949-222.583 0-141.705 114.874-256.58 256.58-256.58 0.232 0 0.463 0 0.695 0.002h513.122c140.376 1.736 253.504 115.937 253.504 256.56 0 117.791-79.375 217.043-187.554 247.188l-1.804 0.43zM685.191 394.76h-125.724v-184.095c-0.347-12.965-10.767-23.385-23.701-23.733h-47.5c-12.965 0.347-23.385 10.767-23.733 23.701v184.128h-125.082c-0.038 0-0.083 0-0.126 0-10.982 0-19.885 8.903-19.885 19.885 0 5.203 1.998 9.94 5.271 13.484l-0.012-0.014 172.549 171.267c3.554 4.223 8.843 6.889 14.753 6.889s11.199-2.666 14.729-6.858l0.024-0.029 172.549-171.267c3.259-3.53 5.257-8.267 5.257-13.47 0-10.982-8.903-19.885-19.885-19.885-0.045 0-0.089 0-0.134 0h0.008z" />
<glyph unicode="&#xe945;" glyph-name="cloud" data-tags="cloud" d="M832.723 567.309c0 3.207 0 5.773 0 8.98-0.359 70.58-57.658 127.658-128.288 127.658-31.917 0-61.111-11.656-83.56-30.943l0.17 0.143c-39.416 94.148-130.792 159.089-237.336 159.089-141.483 0-256.219-114.515-256.578-255.914v-0.035c-0.302-5.078-0.475-11.018-0.475-16.999s0.173-11.919 0.513-17.814l-0.038 0.815c-77.604-45.102-128.949-127.846-128.949-222.583 0-141.705 114.874-256.58 256.58-256.58 0.232 0 0.463 0 0.695 0.002h513.122c140.376 1.736 253.504 115.937 253.504 256.56 0 117.791-79.375 217.043-187.554 247.188l-1.804 0.43z" />
<glyph unicode="&#xe946;" glyph-name="align-right" data-tags="align-right" d="M352.006 895.981h639.973c17.672 0 31.998-14.326 31.998-31.998v-63.998c0-17.672-14.326-31.998-31.998-31.998h-639.973c-17.672 0-31.998 14.326-31.998 31.998v63.998c0 17.672 14.326 31.998 31.998 31.998zM32.021 639.992h959.958c17.672 0 31.998-14.326 31.998-31.998v-63.998c0-17.672-14.326-31.998-31.998-31.998h-959.958c-17.672 0-31.998 14.326-31.998 31.998v63.998c0 17.672 14.326 31.998 31.998 31.998zM352.006 384.002h639.973c17.672 0 31.998-14.326 31.998-31.998v-63.998c0-17.672-14.326-31.998-31.998-31.998h-639.973c-17.672 0-31.998 14.326-31.998 31.998v63.998c0 17.672 14.326 31.998 31.998 31.998zM32.021 128.014h959.958c17.672 0 31.998-14.326 31.998-31.998v-63.998c0-17.672-14.326-31.998-31.998-31.998h-959.958c-17.672 0-31.998 14.326-31.998 31.998v63.998c0 17.672 14.326 31.998 31.998 31.998z" />
<glyph unicode="&#xe947;" glyph-name="align-left" data-tags="align-left" d="M32.021 895.981h639.973c17.672 0 31.998-14.326 31.998-31.998v-63.998c0-17.672-14.326-31.998-31.998-31.998h-639.973c-17.672 0-31.998 14.326-31.998 31.998v63.998c0 17.672 14.326 31.998 31.998 31.998zM32.021 639.992h959.958c17.672 0 31.998-14.326 31.998-31.998v-63.998c0-17.672-14.326-31.998-31.998-31.998h-959.958c-17.672 0-31.998 14.326-31.998 31.998v63.998c0 17.672 14.326 31.998 31.998 31.998zM32.021 384.002h639.973c17.672 0 31.998-14.326 31.998-31.998v-63.998c0-17.672-14.326-31.998-31.998-31.998h-639.973c-17.672 0-31.998 14.326-31.998 31.998v63.998c0 17.672 14.326 31.998 31.998 31.998zM32.021 128.014h959.958c17.672 0 31.998-14.326 31.998-31.998v-63.998c0-17.672-14.326-31.998-31.998-31.998h-959.958c-17.672 0-31.998 14.326-31.998 31.998v63.998c0 17.672 14.326 31.998 31.998 31.998z" />
<glyph unicode="&#xe948;" glyph-name="align-center" data-tags="align-center" d="M224.012 895.981h575.975c17.672 0 31.998-14.326 31.998-31.998v-63.998c0-17.672-14.326-31.998-31.998-31.998h-575.975c-17.672 0-31.998 14.326-31.998 31.998v63.998c0 17.672 14.326 31.998 31.998 31.998zM32.021 639.992h959.958c17.672 0 31.998-14.326 31.998-31.998v-63.998c0-17.672-14.326-31.998-31.998-31.998h-959.958c-17.672 0-31.998 14.326-31.998 31.998v63.998c0 17.672 14.326 31.998 31.998 31.998zM224.012 384.002h575.975c17.672 0 31.998-14.326 31.998-31.998v-63.998c0-17.672-14.326-31.998-31.998-31.998h-575.975c-17.672 0-31.998 14.326-31.998 31.998v63.998c0 17.672 14.326 31.998 31.998 31.998zM32.021 128.014h959.958c17.672 0 31.998-14.326 31.998-31.998v-63.998c0-17.672-14.326-31.998-31.998-31.998h-959.958c-17.672 0-31.998 14.326-31.998 31.998v63.998c0 17.672 14.326 31.998 31.998 31.998z" />
<glyph unicode="&#xe949;" glyph-name="align-justify" data-tags="align-justify" d="M32.021 895.981h959.958c17.672 0 31.998-14.326 31.998-31.998v-63.998c0-17.672-14.326-31.998-31.998-31.998h-959.958c-17.672 0-31.998 14.326-31.998 31.998v63.998c0 17.672 14.326 31.998 31.998 31.998zM32.021 639.992h959.958c17.672 0 31.998-14.326 31.998-31.998v-63.998c0-17.672-14.326-31.998-31.998-31.998h-959.958c-17.672 0-31.998 14.326-31.998 31.998v63.998c0 17.672 14.326 31.998 31.998 31.998zM32.021 384.002h959.958c17.672 0 31.998-14.326 31.998-31.998v-63.998c0-17.672-14.326-31.998-31.998-31.998h-959.958c-17.672 0-31.998 14.326-31.998 31.998v63.998c0 17.672 14.326 31.998 31.998 31.998zM32.021 128.014h959.958c17.672 0 31.998-14.326 31.998-31.998v-63.998c0-17.672-14.326-31.998-31.998-31.998h-959.958c-17.672 0-31.998 14.326-31.998 31.998v63.998c0 17.672 14.326 31.998 31.998 31.998z" />
<glyph unicode="&#xe94a;" glyph-name="cog" data-tags="cog" d="M991.268 537.982l-127.634 21.060c-7.329 23.35-15.986 43.418-26.41 62.379l0.882-1.753 75.942 104.023c2.399 5.709 3.792 12.346 3.792 19.308 0 15.478-6.888 29.346-17.765 38.709l-0.067 0.057-54.245 54.245c-9.419 10.944-23.288 17.832-38.766 17.832-6.961 0-13.598-1.394-19.645-3.917l0.338 0.124-104.023-73.39c-17.208 9.54-37.276 18.198-58.231 24.869l-2.395 0.658-21.060 127.634c-8.956 17.295-26.716 28.909-47.19 28.909-1.585 0-3.154-0.070-4.704-0.206l0.2 0.015h-76.581c-0.995 0.066-2.155 0.105-3.325 0.105-21.434 0-39.894-12.73-48.232-31.044l-0.135-0.332-21.060-127.634c-23.35-7.329-43.418-15.986-62.379-26.41l1.753 0.882-104.023 75.942c-5.709 2.399-12.346 3.792-19.308 3.792-15.478 0-29.346-6.888-38.709-17.765l-0.057-0.067-54.245-54.245c-10.944-9.419-17.832-23.288-17.832-38.766 0-6.961 1.394-13.598 3.917-19.645l-0.124 0.338 73.39-104.023c-9.54-17.208-18.198-37.276-24.869-58.231l-0.658-2.395-127.634-21.060c-17.295-8.956-28.909-26.716-28.909-47.19 0-1.585 0.070-3.154 0.206-4.704l-0.015 0.2v-76.581c-0.066-0.995-0.105-2.155-0.105-3.325 0-21.434 12.73-39.894 31.044-48.232l0.332-0.135 127.634-21.060c7.329-23.35 15.986-43.418 26.41-62.379l-0.882 1.753-75.942-104.023c-2.399-5.709-3.792-12.346-3.792-19.308 0-15.478 6.888-29.346 17.765-38.709l0.067-0.057 54.245-54.245c9.419-10.944 23.288-17.832 38.766-17.832 6.961 0 13.598 1.394 19.645 3.917l-0.338-0.124 104.023 73.39c17.208-9.54 37.276-18.198 58.231-24.869l2.395-0.658 21.060-127.634c8.473-18.644 26.933-31.376 48.367-31.376 1.17 0 2.33 0.037 3.482 0.112l-0.157-0.007h76.581c0.995-0.066 2.155-0.105 3.325-0.105 21.434 0 39.894 12.73 48.232 31.044l0.135 0.332 21.060 127.634c23.35 7.329 43.418 15.986 62.379 26.41l-1.753-0.882 104.023-73.39c5.709-2.399 12.346-3.792 19.308-3.792 15.478 0 29.346 6.888 38.709 17.765l0.057 0.067 54.245 54.245c10.944 9.419 17.832 23.288 17.832 38.766 0 6.961-1.394 13.598-3.917 19.645l0.124-0.338-73.39 104.023c9.54 17.208 18.198 37.276 24.869 58.231l0.658 2.395 127.634 21.060c17.295 8.956 28.909 26.716 28.909 47.19 0 1.585-0.070 3.154-0.206 4.704l0.015-0.2v76.581c0.066 0.995 0.105 2.155 0.105 3.325 0 21.434-12.73 39.894-31.044 48.232l-0.332 0.135zM512 262.292c-102.564 0-185.708 83.144-185.708 185.708s83.144 185.708 185.708 185.708c102.564 0 185.708-83.144 185.708-185.708v0c-0.362-102.418-83.29-185.346-185.674-185.708h-0.034z" />
<glyph unicode="&#xe94b;" glyph-name="print" data-tags="print" d="M895.967 703.978h-127.988v191.983c0 35.343-28.652 63.995-63.995 63.995v0h-511.955c-35.343 0-63.995-28.652-63.995-63.995v0-191.983c-70.686 0-127.988-57.303-127.988-127.988v0-351.97c0.351-17.529 14.469-31.646 31.964-31.997h96.025v-191.983c0-35.343 28.652-63.995 63.995-63.995v0h511.955c35.343 0 63.995 28.652 63.995 63.995v0 191.983h223.98c17.529 0.351 31.646 14.469 31.997 31.964v352.003c0 70.686-57.303 127.988-127.988 127.988v0zM224.025 863.963h383.967v-31.997c0.351-17.529 14.469-31.646 31.964-31.997h32.030v-223.98h-447.962v287.975zM671.987 32.037h-447.962v255.978h447.962v-255.978zM895.967 527.993c-26.507 0-47.996 21.489-47.996 47.996s21.489 47.996 47.996 47.996c26.507 0 47.996-21.489 47.996-47.996v0c-0.355-26.363-21.633-47.64-47.961-47.996h-0.034z" />
<glyph unicode="&#xe94c;" glyph-name="filter" data-tags="filter" d="M928.563 958.338h-833.128c-26.476-0.392-47.787-21.946-47.787-48.477 0-11.946 4.321-22.883 11.484-31.334l-0.058 0.070 325.341-323.427v-405.081c-0.042-0.616-0.066-1.337-0.066-2.062 0-7.692 2.669-14.76 7.132-20.329l-0.049 0.064 197.118-191.377c6.38-6.38 51.033 0 51.033 63.793v554.993l325.341 324.066c7.221 8.332 11.623 19.281 11.623 31.259 0 26.423-21.421 47.844-47.844 47.844-0.049 0-0.099 0-0.148 0h0.007z" />
<glyph unicode="&#xe94d;" glyph-name="replay" data-tags="replay" d="M979.14 910.019l-103.026-103.667c-92.82 93.733-221.538 151.771-363.812 151.771-282.733 0-511.933-229.2-511.933-511.933s229.2-511.933 511.933-511.933c232.080 0 428.091 154.432 490.874 366.138l0.921 3.622c1.296 4.81 2.040 10.334 2.040 16.030 0 35.341-28.651 63.992-63.992 63.992-0.717 0-1.432-0.012-2.145-0.034l0.103 0.003c-0.049 0-0.106 0-0.165 0-28.013 0-51.821-18.001-60.492-43.065l-0.135-0.45c-47.856-161.379-194.805-277.089-368.779-277.089-22.082 0-43.728 1.864-64.79 5.443l2.266-0.318c-163.731 37.146-289.237 166.946-319.562 330.185l-0.397 2.572c-1.648 13.359-2.589 28.823-2.589 44.507 0 212.050 171.9 383.95 383.95 383.95 107.233 0 204.198-43.961 273.858-114.842l0.054-0.055-19.198-19.198-115.185-119.665c-4.649-4.825-7.513-11.397-7.513-18.638 0-14.109 10.872-25.68 24.696-26.79l0.094-0.006h329.557c0.106-0.001 0.232-0.003 0.358-0.003 15.55 0 28.156 12.606 28.156 28.156 0 1.582-0.13 3.135-0.381 4.646l0.022-0.163v329.557c-1.387 13.665-12.832 24.238-26.746 24.238-6.958 0-13.297-2.643-18.070-6.98l0.022 0.019z" />
<glyph unicode="&#xe94e;" glyph-name="bookmark" data-tags="bookmark" d="M831.972-63.955l-319.972 219.501-319.972-219.501v950.958c-0.075 1.201-0.117 2.607-0.117 4.021 0 36.411 28.156 66.245 63.881 68.919l0.231 0.013h511.955c35.956-2.688 64.112-32.523 64.112-68.933 0-1.414-0.042-2.82-0.126-4.213l0.009 0.192z" />
<glyph unicode="&#xe94f;" glyph-name="globe" data-tags="globe" d="M512 959.977c-282.757 0-511.977-229.22-511.977-511.977s229.22-511.977 511.977-511.977c282.757 0 511.977 229.22 511.977 511.977v0c0 282.757-229.22 511.977-511.977 511.977v0zM891.503 617.593v-3.199l-17.92 19.199v17.279l-17.279 14.719-5.76 6.4h-18.559l5.76-17.92 24.318-12.799 3.84-4.48h-5.119v-14.080l-11.52-5.119h-9.6l-7.68 8.32h16.639l3.84 5.76-35.199 24.318-4.48 9.6-14.080-13.439-14.719 3.199-22.399-28.799-4.48-11.52h-35.838l-12.799 5.76-4.48 23.679 4.48 12.16 21.119 4.48 23.679-4.48 3.199 12.799h-10.24l3.199 19.84 23.679 3.84 16.639 23.679h32.639c26.753-28.644 49.781-61.275 67.994-96.785l1.123-2.41zM811.507 735.988h-3.84l-4.48 10.879zM796.148 751.347h-6.4v6.4zM749.429 725.108l-10.24 6.4-7.039 4.48v7.039l4.48 7.039h14.719l3.84-17.92 8.32-12.799 5.119-6.4 9.6-3.84-10.24-8.32h-30.719v15.359h10.879zM737.271 725.108v-9.6l-19.199-13.439h-10.24v12.799l8.959 14.719h12.16zM304.649 808.304v0-7.68h30.719l-3.84 9.6h-25.599c11.576 7.053 25.437 14.323 39.754 20.761l2.484 0.999h19.84l16 5.119 9.6-4.48-17.279-16h-23.039c0.298-2.401 0.469-5.181 0.469-7.999s-0.171-5.598-0.501-8.328l0.033 0.328h30.719v7.68h19.199v11.52h-11.52l8.959 12.16h39.039l-16.639-15.359v-11.52h17.279v21.119l18.559 5.76 29.439 3.84 42.879-19.199v-16l14.080-3.84-7.039-12.799h-19.84l-6.4-12.16-44.158 10.24 35.199 18.559-13.439 11.52-30.078-3.84-11.52-12.16h-14.080v-7.039h-6.4v-6.4h-11.52v13.439l-19.84-5.76-40.959-24.318 4.48-16.639 11.52-7.68h23.039v-37.758h10.24l9.6 20.479 24.318 7.68v35.838l9.6 7.039 32.639-7.039v-21.119h8.32l23.039 12.16v-26.879l17.279-10.879v-17.279l-17.279-4.48v-5.119l20.479-8.959v-11.52h-5.76l-25.599 7.68v8.32l10.879 5.119v8.959h-7.68v-7.039h-24.318l-3.84 7.039h-14.719l-4.48-3.84v-8.32h16.639l-7.68-8.959-3.84 4.48h-7.039l-20.479-19.199-30.078-16.639-28.158-29.439v-12.799l-28.158-19.199-13.439-14.080v-27.519l-19.199 8.959v12.16h-53.758l-27.519-14.080-12.16-22.399-5.119-17.279 8.32-17.279h21.76l35.199 23.039 3.199-11.52-10.879-20.479 26.238-4.48 3.199-40.959 36.478-6.4 23.039 26.879 28.158-5.76 9.6-13.439h26.879v8.32l14.719-7.68 16.639-26.238h28.799l10.879-18.559v-23.039l31.998-12.16h44.799l11.52-19.84 17.92-5.119v-16l-19.84-24.959-5.76-55.037-17.279-14.080h-31.359l-8.959-15.359 6.4-28.158-28.799-36.478-8.959-17.279-26.879-12.799h-17.92v-7.68l12.16-3.84v-7.68l-11.52-10.879 7.039-8.959h13.439v-10.879l-3.84-10.24v-8.32l18.559-15.359c-16 0-31.359 0-46.718 5.76l-8.959 8.32-21.119 37.119v35.838l-16 21.119 6.4 35.838h-8.959v74.877s-26.879 19.84-28.158 19.84l-14.080 3.84v14.719l-34.559 43.518 3.84 15.359v25.599l23.679 16.639-3.199 28.158-35.199 3.199-30.078 33.918-19.199 5.76h-12.16v11.52h-16v-6.4l-39.678 9.6-15.359 30.719 7.039 11.52-25.599 37.119-4.48 26.879h-10.24l3.84-26.238 17.279-26.879v-10.879h-14.719l-17.92 30.719v30.719c33.809 95.286 98.183 172.71 181.12 222.29l1.912 1.059zM496.641 675.83v-5.76h-6.4v-5.76h-12.799v5.76h12.799v6.4h5.119zM461.442 664.951v-6.4h-13.439v6.4l3.84 5.119zM851.185 205.45l-5.76 8.32v36.478l-13.439 13.439v14.719l17.279 32.639-31.998 56.318 3.199 38.398-28.799 3.199-10.24 10.879h-19.84l-9.6-9.6h-53.758l-43.518 49.918v38.398h7.039v14.719h-10.24l-4.48 16 50.558 36.478v25.599l24.959 14.080h30.078l15.359 7.039 51.197 4.48v-26.238l40.959-10.24 7.68-5.76h7.68v14.080h23.039l4.48-3.84c15.505-40.672 24.63-87.698 24.959-136.814v-0.139c-0.121-91.135-29.622-175.356-79.536-243.726l0.819 1.177z" />
<glyph unicode="&#xe950;" glyph-name="ellipsis-v" data-tags="ellipsis-v" d="M639.994 831.983c0-70.689-57.305-127.994-127.994-127.994s-127.994 57.305-127.994 127.994c0 70.689 57.305 127.994 127.994 127.994s127.994-57.305 127.994-127.994zM639.994 448c0-70.689-57.305-127.994-127.994-127.994s-127.994 57.305-127.994 127.994c0 70.689 57.305 127.994 127.994 127.994s127.994-57.305 127.994-127.994zM639.994 64.017c0-70.689-57.305-127.994-127.994-127.994s-127.994 57.305-127.994 127.994c0 70.689 57.305 127.994 127.994 127.994s127.994-57.305 127.994-127.994z" />
<glyph unicode="&#xe951;" glyph-name="ellipsis-h" data-tags="ellipsis-h" d="M256.011 448c0-70.689-57.305-127.994-127.994-127.994s-127.994 57.305-127.994 127.994c0 70.689 57.305 127.994 127.994 127.994s127.994-57.305 127.994-127.994zM639.994 448c0-70.689-57.305-127.994-127.994-127.994s-127.994 57.305-127.994 127.994c0 70.689 57.305 127.994 127.994 127.994s127.994-57.305 127.994-127.994zM1023.977 448c0-70.689-57.305-127.994-127.994-127.994s-127.994 57.305-127.994 127.994c0 70.689 57.305 127.994 127.994 127.994s127.994-57.305 127.994-127.994z" />
<glyph unicode="&#xe952;" glyph-name="calendar-times" data-tags="calendar-times" d="M906.69 839.307h-83.449v63.151c0 31.14-25.245 56.385-56.385 56.385v0h-24.246c-31.14 0-56.385-25.245-56.385-56.385v0-63.151h-347.327v59.768c0 31.14-25.245 56.385-56.385 56.385v0h-24.246c-31.14 0-56.385-25.245-56.385-56.385v0-62.022h-84.576c-31.14 0-56.385-25.245-56.385-56.385v0-789.379c0-31.14 25.245-56.385 56.385-56.385v0h789.379c31.14 0 56.385 25.245 56.385 56.385v0 789.379c0.029 0.673 0.045 1.462 0.045 2.256 0 31.14-25.245 56.385-56.385 56.385-0.016 0-0.032 0-0.048 0h0.003zM878.497 78.12c0-31.14-25.245-56.385-56.385-56.385v0h-620.226c-31.14 0-56.385 25.245-56.385 56.385v0 473.063c0 31.14 25.245 56.385 56.385 56.385v0h620.226c31.14 0 56.385-25.245 56.385-56.385v0zM726.824 477.32l-50.182 50.182c-6.453 6.582-15.437 10.662-25.373 10.662s-18.92-4.079-25.368-10.657l-112.773-112.773-112.768 112.768c-6.453 6.582-15.437 10.662-25.373 10.662s-18.92-4.079-25.368-10.657l-50.187-50.187c-6.582-6.453-10.662-15.437-10.662-25.373s4.079-18.92 10.657-25.368l112.773-112.773-112.768-112.768c-6.582-6.453-10.662-15.437-10.662-25.373s4.079-18.92 10.657-25.368l50.187-50.187c6.453-6.582 15.437-10.662 25.373-10.662s18.92 4.079 25.368 10.657l112.773 112.773 112.768-112.768c6.453-6.582 15.437-10.662 25.373-10.662s18.92 4.079 25.368 10.657l50.187 50.187c6.582 6.453 10.662 15.437 10.662 25.373s-4.079 18.92-10.657 25.368l-112.773 112.773 112.768 112.768c6.582 6.453 10.662 15.437 10.662 25.373s-4.079 18.92-10.657 25.368l-0.005 0.005z" />
<glyph unicode="&#xe953;" glyph-name="calendar-minus" data-tags="calendar-minus" d="M906.69 839.307h-83.449v63.151c0 31.14-25.245 56.385-56.385 56.385v0h-24.246c-31.14 0-56.385-25.245-56.385-56.385v0-63.151h-347.327v59.768c0 31.14-25.245 56.385-56.385 56.385v0h-24.246c-31.14 0-56.385-25.245-56.385-56.385v0-62.022h-84.576c-31.14 0-56.385-25.245-56.385-56.385v0-789.379c0-31.14 25.245-56.385 56.385-56.385v0h789.379c31.14 0 56.385 25.245 56.385 56.385v0 789.379c0.029 0.673 0.045 1.462 0.045 2.256 0 31.14-25.245 56.385-56.385 56.385-0.016 0-0.032 0-0.048 0h0.003zM878.497 78.12c0-31.14-25.245-56.385-56.385-56.385v0h-620.226c-31.14 0-56.385 25.245-56.385 56.385v0 473.063c0 31.14 25.245 56.385 56.385 56.385v0h620.226c31.14 0 56.385-25.245 56.385-56.385v0zM314.656 372.446h394.69c15.57 0 28.192-12.622 28.192-28.192v-63.151c0-15.57-12.622-28.192-28.192-28.192h-394.69c-15.57 0-28.192 12.622-28.192 28.192v63.151c0 15.57 12.622 28.192 28.192 28.192z" />
<glyph unicode="&#xe954;" glyph-name="calendar-plus" data-tags="calendar-plus" d="M906.69 839.307h-83.449v63.151c0 31.14-25.245 56.385-56.385 56.385v0h-24.246c-31.14 0-56.385-25.245-56.385-56.385v0-63.151h-347.327v59.768c0 31.14-25.245 56.385-56.385 56.385v0h-24.246c-31.14 0-56.385-25.245-56.385-56.385v0-62.022h-84.576c-31.14 0-56.385-25.245-56.385-56.385v0-789.379c0-31.14 25.245-56.385 56.385-56.385v0h789.379c31.14 0 56.385 25.245 56.385 56.385v0 789.379c0.029 0.673 0.045 1.462 0.045 2.256 0 31.14-25.245 56.385-56.385 56.385-0.016 0-0.032 0-0.048 0h0.003zM878.497 78.12c0-31.14-25.245-56.385-56.385-56.385v0h-620.226c-31.14 0-56.385 25.245-56.385 56.385v0 473.063c0 31.14 25.245 56.385 56.385 56.385v0h620.226c31.14 0 56.385-25.245 56.385-56.385v0zM707.090 373.009h-134.758v134.758c0 16.816-13.631 30.447-30.447 30.447v0h-59.768c-16.816 0-30.447-13.631-30.447-30.447v0-134.758h-134.758c-16.816 0-30.447-13.631-30.447-30.447v0-59.768c0-16.816 13.631-30.447 30.447-30.447v0h134.758v-134.758c0-16.816 13.631-30.447 30.447-30.447v0h59.768c16.816 0 30.447 13.631 30.447 30.447v0 134.758h134.758c16.816 0 30.447 13.631 30.447 30.447v0 59.768c0 16.816-13.631 30.447-30.447 30.447v0z" />
<glyph unicode="&#xe955;" glyph-name="clone" data-tags="clone" d="M955.501 959.977h-682.211c-37.819 0-68.477-30.659-68.477-68.477v0-136.314h-136.314c-37.819 0-68.477-30.659-68.477-68.477v0-682.211c0-37.819 30.659-68.477 68.477-68.477v0h682.211c37.819 0 68.477 30.659 68.477 68.477v0 136.314h136.314c37.819 0 68.477 30.659 68.477 68.477v0 682.211c0 37.819-30.659 68.477-68.477 68.477v0zM682.873 72.337h-546.536v546.536h68.477v-409.583c0-37.819 30.659-68.477 68.477-68.477v0h409.583zM887.663 277.127h-546.536v546.536h546.536z" />
<glyph unicode="&#xe956;" glyph-name="download" data-tags="download" d="M482.562 205.461c7.306-8.255 17.926-13.433 29.757-13.433s22.452 5.178 29.721 13.391l0.036 0.042 344.291 337.891c5.613 6.713 9.020 15.438 9.020 24.958 0 21.559-17.478 39.037-39.037 39.037-0.021 0-0.043 0-0.064 0h-216.298v316.132c0 17.671-14.325 31.997-31.997 31.997v0h-191.983c-17.671 0-31.997-14.325-31.997-31.997v0-315.493h-216.301c-0.018 0-0.040 0-0.061 0-21.559 0-39.037-17.478-39.037-39.037 0-9.52 3.408-18.244 9.071-25.019l-0.049 0.061zM959.962 261.136h-279.016l-121.59-117.75c-13.11-9.607-29.559-15.371-47.355-15.371s-34.245 5.765-47.583 15.53l0.226-0.159-121.59 117.75h-279.016c-35.343 0-63.995-28.652-63.995-63.995v0-191.983c0-35.343 28.652-63.995 63.995-63.995v0h895.922c35.343 0 63.995 28.652 63.995 63.995v0 191.983c0 35.343-28.652 63.995-63.995 63.995v0zM895.967 48.034c-26.507 0-47.996 21.489-47.996 47.996s21.489 47.996 47.996 47.996c26.507 0 47.996-21.489 47.996-47.996v0c-0.355-26.363-21.633-47.64-47.961-47.996h-0.034z" />
<glyph unicode="&#xe957;" glyph-name="copy" data-tags="copy" d="M759.669 744.947h136.314c29.439 0 26.879 24.318 26.879 53.758v8.959l-154.873 152.314h-8.959c-29.439 0-53.117 0-53.117-26.238v-135.035c0-29.69 24.068-53.758 53.758-53.758v0zM219.532 98.575v689.25h-63.998c-29.336 0-53.117-23.781-53.117-53.117v0-745.568c0-29.336 23.781-53.117 53.117-53.117v0h532.457c29.336 0 53.117 23.781 53.117 53.117v0 56.318h-467.819c-0.001 0-0.003 0-0.004 0-29.465 0-53.393 23.705-53.753 53.084v0.034zM703.992 693.749c-29.336 0-53.117 23.781-53.117 53.117v0 213.111h-319.986c-29.336 0-53.117-23.781-53.117-53.117v0-745.568c0-29.336 23.781-53.117 53.117-53.117h532.457c29.336 0 53.117 23.781 53.117 53.117v0 532.457z" />
<glyph unicode="&#xe958;" glyph-name="file" data-tags="file" d="M639.988 639.983c-35.343 0-63.995 28.652-63.995 63.995v0 255.978h-383.967c-35.343 0-63.995-28.652-63.995-63.995v0-895.922c0-35.343 28.652-63.995 63.995-63.995v0h639.945c35.343 0 63.995 28.652 63.995 63.995v0 639.945zM703.983 703.978h159.987c35.197 0 31.997 28.798 31.997 63.995v10.879l-181.105 181.105h-10.879c-35.197 0-63.995 0-63.995-31.997v-159.987c0-35.343 28.652-63.995 63.995-63.995v0z" />
<glyph unicode="&#xe959;" glyph-name="question-circle" data-tags="question-circle" d="M512 959.977c-282.757 0-511.977-229.22-511.977-511.977s229.22-511.977 511.977-511.977c282.757 0 511.977 229.22 511.977 511.977v0c0 282.757-229.22 511.977-511.977 511.977v0zM551.678 159.372c0.040-0.403 0.064-0.871 0.064-1.344 0-7.776-6.304-14.080-14.080-14.080-0.474 0-0.942 0.024-1.402 0.069l0.058-0.004h-71.677c-0.429-0.048-0.925-0.076-1.429-0.076-7.422 0-13.439 6.018-13.439 13.439 0 0.705 0.054 1.396 0.159 2.071l-0.009-0.075v69.757c-0.094 0.6-0.148 1.291-0.148 1.996 0 7.422 6.018 13.439 13.439 13.439 0.504 0 1-0.027 1.489-0.081l-0.060 0.006h71.677c0.403 0.040 0.871 0.064 1.344 0.064 7.776 0 14.080-6.304 14.080-14.080 0-0.474-0.024-0.942-0.069-1.402l0.004 0.058zM664.314 492.799c0.012-0.283 0.019-0.615 0.019-0.948 0-7.407-3.495-13.997-8.926-18.212l-0.052-0.039-95.996-92.796c-4.759-4.018-7.762-9.988-7.762-16.66 0-0.669 0.030-1.33 0.088-1.983l-0.006 0.084v-33.279c0.040-0.403 0.064-0.871 0.064-1.344 0-7.776-6.304-14.080-14.080-14.080-0.474 0-0.942 0.024-1.402 0.069l0.058-0.004h-71.677c-0.429-0.048-0.925-0.076-1.429-0.076-7.422 0-13.439 6.018-13.439 13.439 0 0.705 0.054 1.396 0.159 2.071l-0.009-0.075v63.998c-0.016 0.345-0.027 0.75-0.027 1.158 0 6.771 2.695 12.911 7.072 17.407l-0.006-0.006 103.676 102.396v107.515c0.088 0.828 0.139 1.789 0.139 2.763 0 15.199-12.32 27.519-27.519 27.519-1.177 0-2.337-0.073-3.474-0.217l0.135 0.013h-35.838c-1.224 0.196-2.634 0.31-4.069 0.31-14.845 0-26.879-12.034-26.879-26.879 0-1.237 0.084-2.455 0.246-3.649l-0.015 0.139v-59.517c0.055-0.409 0.085-0.885 0.085-1.366 0-6.009-4.87-10.879-10.879-10.879-0.481 0-0.955 0.031-1.42 0.091l0.055-0.006h-78.717c-8.959 0-12.799 4.48-12.799 12.16v78.076c-0.499 3.717-0.786 8.016-0.786 12.379 0 54.077 43.839 97.916 97.916 97.916 4.564 0 9.057-0.312 13.456-0.916l-0.51 0.057h84.476c3.666 0.483 7.906 0.759 12.209 0.759 54.431 0 98.556-44.125 98.556-98.556 0-4.102-0.25-8.145-0.736-12.115l0.048 0.477z" />
<glyph unicode="&#xe95a;" glyph-name="question" data-tags="question" d="M583.578 959.267c5.918 0.75 12.765 1.177 19.712 1.177 91.416 0 165.523-74.108 165.523-165.523 0-6.947-0.428-13.794-1.258-20.516l0.081 0.804v-251.8c0.054-0.753 0.084-1.631 0.084-2.516 0-11.876-5.49-22.469-14.071-29.38l-0.072-0.057-162.327-155.937c-7.919-7.372-12.856-17.857-12.856-29.496 0-0.864 0.027-1.724 0.081-2.575l-0.006 0.117v-56.24c0.102-0.816 0.162-1.76 0.162-2.717 0-12.706-10.301-23.007-23.007-23.007-0.957 0-1.902 0.058-2.828 0.172l0.111-0.010h-120.147c-0.816-0.102-1.76-0.162-2.717-0.162-12.706 0-23.007 10.301-23.007 23.007 0 0.957 0.058 1.902 0.172 2.828l-0.010-0.111v112.478c-0.018 0.448-0.028 0.975-0.028 1.502 0 11.529 4.923 21.908 12.783 29.148l0.027 0.025 173.831 172.553v176.387c0.151 1.412 0.238 3.053 0.238 4.712 0 25.766-20.888 46.654-46.654 46.654-1.66 0-3.298-0.087-4.914-0.256l0.202 0.016h-63.909c-1.854 0.268-3.996 0.422-6.174 0.422-25.061 0-45.375-20.315-45.375-45.375 0-2.178 0.153-4.318 0.449-6.414l-0.028 0.241v-99.697c0.070-0.608 0.111-1.314 0.111-2.028 0-10.236-8.298-18.533-18.533-18.533-0.714 0-1.42 0.040-2.113 0.12l0.085-0.007h-130.373c-0.608-0.070-1.314-0.111-2.028-0.111-10.236 0-18.533 8.298-18.533 18.533 0 0.714 0.040 1.42 0.12 2.113l-0.007-0.085v135.485c-0.81 6.14-1.273 13.238-1.273 20.446 0 91.064 73.82 164.884 164.884 164.884 7.206 0 14.306-0.463 21.268-1.359l-0.824 0.087zM407.191 79.887c-0.102 0.816-0.162 1.76-0.162 2.717 0 12.706 10.301 23.007 23.007 23.007 0.957 0 1.902-0.058 2.828-0.172l-0.111 0.010h120.147c0.816 0.102 1.76 0.162 2.717 0.162 12.706 0 23.007-10.301 23.007-23.007 0-0.957-0.058-1.902-0.172-2.828l0.010 0.111v-117.592c0.102-0.816 0.162-1.76 0.162-2.717 0-12.706-10.301-23.007-23.007-23.007-0.957 0-1.902 0.058-2.828 0.172l0.111-0.010h-120.147c-0.816-0.102-1.76-0.162-2.717-0.162-12.706 0-23.007 10.301-23.007 23.007 0 0.957 0.058 1.902 0.172 2.828l-0.010-0.111z" />
<glyph unicode="&#xe95b;" glyph-name="save" data-tags="save" d="M1002.198 639.983l-298.215 298.215c-13.463 13.379-31.992 21.675-52.459 21.759h-566.367c-46.86-0.36-84.753-38.251-85.113-85.079v-853.72c0.36-46.86 38.251-84.753 85.079-85.113h853.72c46.86 0.36 84.753 38.251 85.113 85.079v566.385c-0.084 20.482-8.378 39.012-21.762 52.479l0.004-0.004zM512 64.033c-70.686 0-127.988 57.303-127.988 127.988s57.303 127.988 127.988 127.988c70.686 0 127.988-57.303 127.988-127.988v0c0-70.686-57.303-127.988-127.988-127.988v0zM639.988 639.983c0-35.343-28.652-63.995-63.995-63.995v0h-383.967c-35.343 0-63.995 28.652-63.995 63.995v0 127.988c0 35.343 28.652 63.995 63.995 63.995v0h383.967c35.343 0 63.995-28.652 63.995-63.995v0z" />
<glyph unicode="&#xe95c;" glyph-name="power-off" data-tags="power-off" d="M958.895 695.069c-45.679 81.756-110.713 147.813-189.11 193.42l-2.417 1.297c-8.33 4.731-18.3 7.519-28.92 7.519-21.933 0-41.088-11.893-51.368-29.58l-0.153-0.284c-5.807-8.891-9.262-19.777-9.262-31.47 0-20.071 10.178-37.765 25.654-48.202l0.206-0.132c120.868-68.49 201.102-196.248 201.102-342.747 0-216.844-175.785-392.629-392.629-392.629s-392.629 175.785-392.629 392.629c0 146.498 80.235 274.256 199.156 341.731l1.947 1.016c18.033 10.333 29.986 29.467 29.986 51.393 0 32.604-26.431 59.033-59.033 59.033-10.678 0-20.694-2.835-29.336-7.793l0.287 0.153c-156.255-89.339-259.858-255.007-259.858-444.873 0-282.072 228.664-510.736 510.736-510.736s510.736 228.664 510.736 510.736c0 91.657-24.144 177.675-66.419 252.041l1.321-2.524zM512 357.983c33.143 0 60.012 26.868 60.012 60.012v0 480.731c0 33.143-26.868 60.012-60.012 60.012s-60.012-26.868-60.012-60.012v0-480.731c0-33.143 26.868-60.012 60.012-60.012v0z" />
<glyph unicode="&#xe95d;" glyph-name="tags" data-tags="tags" d="M1007.957 452.831l-369.285 370.895c-9.728 9.806-23.21 15.877-38.109 15.877s-28.381-6.071-38.106-15.874l-0.004-0.004-37.573-38.109 332.785-332.785c9.332-9.644 15.082-22.803 15.082-37.304s-5.75-27.66-15.096-37.319l0.014 0.015-265.691-265.691 38.109-38.109c9.728-9.806 23.21-15.877 38.109-15.877s28.381 6.071 38.106 15.874l0.004 0.004 303.264 303.8c8.859 9.545 14.295 22.372 14.295 36.472 0 14.912-6.081 28.406-15.9 38.133l-0.004 0.004zM780.375 443.706l-385.923 388.070c-9.024 8.977-21.465 14.526-35.203 14.526-0.645 0-1.287-0.013-1.926-0.036l0.092 0.003-298.433-5.368c-29.644 0-53.675-24.032-53.675-53.675v0l-5.368-298.433c-0.016-0.483-0.026-1.050-0.026-1.62 0-13.803 5.543-26.311 14.524-35.422l-0.006 0.006 390.218-387.533c9.644-9.332 22.803-15.082 37.304-15.082s27.66 5.75 37.319 15.096l-0.015-0.014 301.117 305.41c9.177 9.614 14.824 22.666 14.824 37.036s-5.647 27.422-14.844 37.057l0.020-0.021zM230.206 616.003c-14.739-15.785-35.672-25.626-58.904-25.626-44.466 0-80.513 36.047-80.513 80.513 0 23.232 9.84 44.165 25.579 58.861l0.047 0.043c14.339 13.389 33.653 21.609 54.887 21.609 44.466 0 80.513-36.047 80.513-80.513 0-21.234-8.22-40.548-21.652-54.933l0.043 0.047z" />
<glyph unicode="&#xe95e;" glyph-name="tag" data-tags="tag" d="M459.585 959.728l-383.451-6.897c-38.089 0-68.966-30.878-68.966-68.966v0l-6.897-383.451c-0.021-0.621-0.034-1.35-0.034-2.082 0-17.735 7.122-33.807 18.661-45.513l-0.008 0.008 498.623-497.933c12.352-11.792 29.122-19.048 47.586-19.048s35.234 7.256 47.614 19.073l-0.027-0.026 390.346 390.346c11.792 12.352 19.048 29.122 19.048 47.586s-7.256 35.234-19.073 47.614l0.026-0.027-495.864 500.692c-11.698 11.533-27.77 18.655-45.505 18.655-0.732 0-1.461-0.013-2.189-0.036l0.105 0.003zM296.136 663.864c-18.791-18.529-44.611-29.973-73.104-29.973s-54.314 11.442-73.116 29.984l0.011-0.011c-17.203 18.424-27.765 43.24-27.765 70.523 0 57.133 46.316 103.449 103.449 103.449 27.283 0 52.099-10.561 70.583-27.82l-0.060 0.055c18.529-18.791 29.973-44.611 29.973-73.104s-11.442-54.314-29.984-73.116l0.011 0.011z" />
<glyph unicode="&#xe95f;" glyph-name="lock" data-tags="lock" d="M895.983 511.998h-63.998v127.994c0 176.724-143.263 319.986-319.986 319.986s-319.986-143.263-319.986-319.986v0-127.994h-63.998c-35.344 0-63.998-28.653-63.998-63.998v0-447.981c0-35.344 28.653-63.998 63.998-63.998v0h767.967c35.344 0 63.998 28.653 63.998 63.998v0 447.981c0 35.344-28.653 63.998-63.998 63.998v0zM320.008 639.992c0 106.033 85.958 191.992 191.992 191.992s191.992-85.958 191.992-191.992v0-127.994h-383.983z" />
<glyph unicode="&#xe960;" glyph-name="unlock" data-tags="unlock" d="M895.983 448h-575.975v191.992c0 106.033 85.958 191.992 191.992 191.992s191.992-85.958 191.992-191.992v0c0-35.344 28.653-63.998 63.998-63.998s63.998 28.653 63.998 63.998v0c0 176.724-143.263 319.986-319.986 319.986s-319.986-143.263-319.986-319.986v0-191.992h-63.998c-35.344 0-63.998-28.653-63.998-63.998v0-383.983c0-35.344 28.653-63.998 63.998-63.998v0h767.967c35.344 0 63.998 28.653 63.998 63.998v0 383.983c0 35.344-28.653 63.998-63.998 63.998v0z" />
<glyph unicode="&#xe961;" glyph-name="inbox" data-tags="inbox" d="M1015.637 458.879l-247.659 325.092s-28.798 47.996-63.995 47.996h-383.967c-35.197 0-63.995-47.996-63.995-47.996l-247.659-325.092c-4.986-6.514-8.074-14.712-8.318-23.621l-0.001-0.055v-323.172c0-26.237 28.798-47.996 63.995-47.996h895.922c35.197 0 63.995 21.759 63.995 47.996v323.172c-0.244 8.965-3.334 17.165-8.392 23.776l0.072-0.099zM639.988 479.997l-63.995-95.992h-127.988l-63.995 95.992h-191.983l175.984 255.978h287.975l175.984-255.978z" />
<glyph unicode="&#xe962;" glyph-name="video" data-tags="video" d="M60.383 809.294h602.157c33.256 0 60.216-26.96 60.216-60.216v-602.157c0-33.256-26.96-60.216-60.216-60.216h-602.157c-33.256 0-60.216 26.96-60.216 60.216v602.157c0 33.256 26.96 60.216 60.216 60.216zM975.66 688.863l-192.69-120.431v-240.863l192.69-120.431c27.447 3.583 48.423 26.82 48.423 54.958 0 1.852-0.090 3.682-0.268 5.487l0.018-0.229v361.294c0.159 1.576 0.25 3.407 0.25 5.259 0 28.137-20.976 51.374-48.142 54.928l-0.279 0.030z" />
<glyph unicode="&#xe963;" glyph-name="folder" data-tags="folder" d="M959.981 64.017h-895.961c-1.21-0.087-2.623-0.136-4.047-0.136-31.47 0-57.296 24.164-59.936 54.95l-0.015 0.223v659.172c2.599 30.35 27.875 53.999 58.674 53.999 1.873 0 3.727-0.087 5.556-0.258l-0.234 0.018h383.983l127.994-109.435h383.983c1.21 0.087 2.623 0.136 4.047 0.136 31.47 0 57.296-24.164 59.936-54.95l0.015-0.223v-548.456c-2.655-31.010-28.481-55.174-59.951-55.174-1.423 0-2.836 0.049-4.236 0.147l0.189-0.010z" />
<glyph unicode="&#xe964;" glyph-name="folder-open" data-tags="folder-open" d="M235.798 507.399h751.387v144.338c-2.464 28.781-26.434 51.209-55.643 51.209-1.321 0-2.633-0.046-3.931-0.136l0.175 0.010h-356.389l-118.796 101.571h-356.389c-1.48 0.142-3.201 0.224-4.939 0.224-28.586 0-52.047-21.95-54.444-49.915l-0.014-0.203v-611.802c-0.128-0.981-0.2-2.116-0.2-3.267s0.072-2.286 0.214-3.4l-0.014 0.132 139.586 332.629c9.95 22.895 32.369 38.615 58.458 38.615 0.33 0 0.66-0.003 0.99-0.007h-0.050zM1003.817 418.301h-703.274c-0.436 0.014-0.947 0.021-1.46 0.021-19.898 0-37.106-11.51-45.332-28.235l-0.132-0.297-108.699-228.683c-2.065-5.367-3.26-11.577-3.26-18.066 0-28.54 23.136-51.676 51.676-51.676 1.776 0 3.53 0.089 5.261 0.265l-0.217-0.018h698.523c0.4-0.010 0.87-0.015 1.342-0.015 22.355 0 41.826 12.35 51.962 30.599l0.155 0.303 106.917 226.307c2.065 5.367 3.26 11.577 3.26 18.066 0 28.54-23.136 51.676-51.676 51.676-1.776 0-3.53-0.089-5.261-0.265l0.217 0.018z" />
<glyph unicode="&#xe965;" glyph-name="eye-slash" data-tags="eye-slash" d="M653.433 374.403c-7.939-14.435-17.296-26.852-28.164-37.764l0.006 0.006-5.76-5.119c-9.277-8.824-19.793-16.481-31.226-22.657l-0.774-0.382c-21.652-12.775-47.686-20.366-75.484-20.479h-0.033c-88.361 0-159.994 71.631-159.994 159.994v0c0.112 27.831 7.704 53.864 20.866 76.227l-0.387-0.709c6.558 12.206 14.215 22.721 23.097 32.060l-0.058-0.061 5.119 5.76c10.906 10.863 23.322 20.221 36.906 27.726l0.852 0.432-220.79 220.79c-8.548 7.981-20.063 12.881-32.721 12.881-26.508 0-47.998-21.49-47.998-47.998 0-12.659 4.9-24.173 12.908-32.75l-0.025 0.028 76.156-76.156c-87.071-61.875-161.606-133.968-224.095-215.754l-1.816-2.476s229.111-319.986 511.977-319.986c73.668 1.36 142.65 20.144 203.399 52.382l-2.448-1.185 93.435-93.435c8.787-9.411 21.266-15.277 35.116-15.277 26.508 0 47.998 21.49 47.998 47.998 0 13.85-5.866 26.33-15.248 35.089l-0.028 0.025zM512 767.986c-29.415-0.303-57.858-3.784-85.21-10.117l2.653 0.517 458.22-458.22c49.774 44.749 94.481 93.11 134.447 145.294l1.867 2.539s-229.111 319.986-511.977 319.986z" />
<glyph unicode="&#xe966;" glyph-name="eye" data-tags="eye" d="M512 767.986c-282.868 0-511.977-319.986-511.977-319.986s229.111-319.986 511.977-319.986 511.977 319.986 511.977 319.986-229.111 319.986-511.977 319.986zM512 288.006c-88.361 0-159.994 71.631-159.994 159.994s71.631 159.994 159.994 159.994c88.361 0 159.994-71.631 159.994-159.994v0c0-88.361-71.631-159.994-159.994-159.994v0z" />
<glyph unicode="&#xe967;" glyph-name="list" data-tags="list" d="M64.038 543.992h63.995c35.343 0 63.995-28.652 63.995-63.995v-63.995c0-35.343-28.652-63.995-63.995-63.995h-63.995c-35.343 0-63.995 28.652-63.995 63.995v63.995c0 35.343 28.652 63.995 63.995 63.995zM320.017 543.992h639.945c35.343 0 63.995-28.652 63.995-63.995v-63.995c0-35.343-28.652-63.995-63.995-63.995h-639.945c-35.343 0-63.995 28.652-63.995 63.995v63.995c0 35.343 28.652 63.995 63.995 63.995zM64.038 895.962h63.995c35.343 0 63.995-28.652 63.995-63.995v-63.995c0-35.343-28.652-63.995-63.995-63.995h-63.995c-35.343 0-63.995 28.652-63.995 63.995v63.995c0 35.343 28.652 63.995 63.995 63.995zM320.017 895.962h639.945c35.343 0 63.995-28.652 63.995-63.995v-63.995c0-35.343-28.652-63.995-63.995-63.995h-639.945c-35.343 0-63.995 28.652-63.995 63.995v63.995c0 35.343 28.652 63.995 63.995 63.995zM64.038 192.022h63.995c35.343 0 63.995-28.652 63.995-63.995v-63.995c0-35.343-28.652-63.995-63.995-63.995h-63.995c-35.343 0-63.995 28.652-63.995 63.995v63.995c0 35.343 28.652 63.995 63.995 63.995zM320.017 192.022h639.945c35.343 0 63.995-28.652 63.995-63.995v-63.995c0-35.343-28.652-63.995-63.995-63.995h-639.945c-35.343 0-63.995 28.652-63.995 63.995v63.995c0 35.343 28.652 63.995 63.995 63.995z" />
<glyph unicode="&#xe968;" glyph-name="map-marker" data-tags="map-marker" d="M927.297 545.755c0-161.007-182.731-352.044-392.935-598.667-5.521-6.141-13.492-9.987-22.362-9.987s-16.84 3.845-22.338 9.96l-0.024 0.027c-210.843 245.345-392.935 437.020-392.935 598.667 0 229.362 185.934 415.297 415.297 415.297s415.297-185.934 415.297-415.297v0z" />
<glyph unicode="&#xe969;" glyph-name="table" data-tags="table" d="M959.981 831.983h-895.961c-35.344 0-63.998-28.653-63.998-63.998v0-639.973c0-35.344 28.653-63.998 63.998-63.998v0h895.961c35.344 0 63.998 28.653 63.998 63.998v0 639.973c0 35.344-28.653 63.998-63.998 63.998v0zM448.002 192.011c0-17.672-14.326-31.998-31.998-31.998v0h-255.989c-17.672 0-31.998 14.326-31.998 31.998v0 127.994c0 17.672 14.326 31.998 31.998 31.998v0h255.989c17.672 0 31.998-14.326 31.998-31.998v0zM448.002 511.998c0-17.672-14.326-31.998-31.998-31.998v0h-255.989c-17.672 0-31.998 14.326-31.998 31.998v0 127.994c0 17.672 14.326 31.998 31.998 31.998v0h255.989c17.672 0 31.998-14.326 31.998-31.998v0zM895.983 192.011c0-17.672-14.326-31.998-31.998-31.998v0h-255.989c-17.672 0-31.998 14.326-31.998 31.998v0 127.994c0 17.672 14.326 31.998 31.998 31.998v0h255.989c17.672 0 31.998-14.326 31.998-31.998v0zM895.983 511.998c0-17.672-14.326-31.998-31.998-31.998v0h-255.989c-17.672 0-31.998 14.326-31.998 31.998v0 127.994c0 17.672 14.326 31.998 31.998 31.998v0h255.989c17.672 0 31.998-14.326 31.998-31.998v0z" />
<glyph unicode="&#xe96a;" glyph-name="lock-open" data-tags="lock-open" d="M737.64 906.151c-158.144 0-286.344-128.201-286.344-286.344v0-171.807h-394.011c-31.629 0-57.269-25.641-57.269-57.269v0-343.613c0-31.629 25.641-57.269 57.269-57.269v0h687.227c31.629 0 57.269 25.641 57.269 57.269v0 343.613c0 31.629-25.641 57.269-57.269 57.269v0h-178.679v171.807c0 94.886 76.921 171.807 171.807 171.807s171.807-76.921 171.807-171.807v0-171.807c0-31.629 25.641-57.269 57.269-57.269s57.269 25.641 57.269 57.269v0 171.807c0 158.144-128.201 286.344-286.344 286.344v0z" />
<glyph unicode="&#xe96b;" glyph-name="dollar" data-tags="dollar" d="M602.767 576.208c-11.345 0-18.153 5.673-18.153 15.317v74.315c0 24.96-14.749 38.009-45.383 38.009h-56.73c-28.364 0-45.383-13.047-45.383-38.009v-131.612l270.030-74.882c19.288-6.807 29.5-17.019 29.5-35.172v-220.676c0-86.796-53.326-135.016-154.303-137.852v-113.458c0-9.644-6.807-15.317-18.153-15.317h-108.92c-12.481 0-18.153 5.673-18.153 15.317v113.458c-95.305 2.836-152.034 51.056-152.034 137.852v100.411c0 10.211 6.807 15.317 18.153 15.317h117.997c12.481 0 18.153-5.106 18.153-15.317v-73.748c0-25.528 17.019-38.009 45.383-38.009h56.73c29.5 0 45.383 12.481 45.383 38.009v127.073l-271.166 74.315c-17.42 2.585-30.635 17.435-30.635 35.374 0 0.129 0.001 0.258 0.003 0.386v-0.020 226.917c0 86.796 56.73 135.016 153.169 137.852v113.458c0 9.644 5.673 15.317 18.153 15.317h112.324c11.345 0 18.153-5.673 18.153-15.317v-113.458c100.978 0 154.303-51.056 154.303-137.852v-102.68c0-9.644-5.673-15.317-18.153-15.317z" />
<glyph unicode="&#xe96c;" glyph-name="camera" data-tags="camera" d="M959.981 697.589h-127.994l-45.438 134.394c-11.605 17.527-31.238 28.928-53.533 28.928-1.429 0-2.848-0.046-4.255-0.139l0.19 0.010h-433.261c-1.153 0.073-2.5 0.117-3.858 0.117-22.019 0-41.442-11.121-52.957-28.052l-0.142-0.222-46.718-135.035h-127.994c-1.675 0.169-3.621 0.265-5.589 0.265-29.904 0-54.601-22.294-58.377-51.166l-0.031-0.297v-563.176c3.808-29.171 28.505-51.464 58.409-51.464 1.968 0 3.913 0.096 5.832 0.285l-0.243-0.019h895.961c1.675-0.169 3.621-0.265 5.589-0.265 29.904 0 54.601 22.294 58.377 51.166l0.031 0.297v563.176c-3.808 29.171-28.505 51.464-58.409 51.464-1.968 0-3.913-0.096-5.832-0.285l0.243 0.019zM512 192.011c-106.033 0-191.992 85.958-191.992 191.992s85.958 191.992 191.992 191.992c106.033 0 191.992-85.958 191.992-191.992v0c0-106.033-85.958-191.992-191.992-191.992v0zM639.994 384.002c0-70.689-57.305-127.994-127.994-127.994s-127.994 57.305-127.994 127.994c0 70.689 57.305 127.994 127.994 127.994s127.994-57.305 127.994-127.994z" />
<glyph unicode="&#xe96d;" glyph-name="chart-bar" data-tags="chart-bar" d="M991.979 192.011h-863.963v607.973c0 17.672-14.326 31.998-31.998 31.998v0h-63.998c-17.672 0-31.998-14.326-31.998-31.998v0-703.969c0-17.672 14.326-31.998 31.998-31.998v0h959.958c17.672 0 31.998 14.326 31.998 31.998v0 63.998c0 17.672-14.326 31.998-31.998 31.998v0zM286.729 575.994h63.998c17.672 0 31.998-14.326 31.998-31.998v-191.992c0-17.672-14.326-31.998-31.998-31.998h-63.998c-17.672 0-31.998 14.326-31.998 31.998v191.992c0 17.672 14.326 31.998 31.998 31.998zM480.002 703.989h63.998c17.672 0 31.998-14.326 31.998-31.998v-319.986c0-17.672-14.326-31.998-31.998-31.998h-63.998c-17.672 0-31.998 14.326-31.998 31.998v319.986c0 17.672 14.326 31.998 31.998 31.998zM671.994 639.992h63.998c17.672 0 31.998-14.326 31.998-31.998v-255.989c0-17.672-14.326-31.998-31.998-31.998h-63.998c-17.672 0-31.998 14.326-31.998 31.998v255.989c0 17.672 14.326 31.998 31.998 31.998zM863.985 767.986h63.998c17.672 0 31.998-14.326 31.998-31.998v-383.983c0-17.672-14.326-31.998-31.998-31.998h-63.998c-17.672 0-31.998 14.326-31.998 31.998v383.983c0 17.672 14.326 31.998 31.998 31.998z" />
<glyph unicode="&#xe96e;" glyph-name="sitemap" data-tags="sitemap" d="M448.005 320.012h127.988c35.343 0 63.995-28.652 63.995-63.995v-127.988c0-35.343-28.652-63.995-63.995-63.995h-127.988c-35.343 0-63.995 28.652-63.995 63.995v127.988c0 35.343 28.652 63.995 63.995 63.995zM64.038 320.012h127.988c35.343 0 63.995-28.652 63.995-63.995v-127.988c0-35.343-28.652-63.995-63.995-63.995h-127.988c-35.343 0-63.995 28.652-63.995 63.995v127.988c0 35.343 28.652 63.995 63.995 63.995zM831.972 320.012h127.988c35.343 0 63.995-28.652 63.995-63.995v-127.988c0-35.343-28.652-63.995-63.995-63.995h-127.988c-35.343 0-63.995 28.652-63.995 63.995v127.988c0 35.343 28.652 63.995 63.995 63.995zM160.030 416.003c0 17.671 14.325 31.997 31.997 31.997v0h287.975v-63.995h63.995v63.995h287.975c17.671 0 31.997-14.325 31.997-31.997v0-31.997h63.995v31.997c0 53.014-42.977 95.992-95.992 95.992v0h-287.975v63.995h47.996c35.343 0 63.995 28.652 63.995 63.995v0 127.988c0 35.343-28.652 63.995-63.995 63.995v0h-159.987c-35.343 0-63.995-28.652-63.995-63.995v0-127.988c0-35.343 28.652-63.995 63.995-63.995v0h47.996v-63.995h-287.975c-53.014 0-95.992-42.977-95.992-95.992v0-31.997h63.995z" />
<glyph unicode="&#xe96f;" glyph-name="wifi" data-tags="wifi" d="M1016.876 567.78c-122.216 144.381-302.492 236.342-504.327 239.555l-0.549 0.007c-202.384-3.219-382.66-95.181-504.063-238.576l-0.813-0.985c-4.666-5.255-7.517-12.216-7.517-19.841 0-9.377 4.309-17.745 11.055-23.237l0.055-0.044 46.115-38.33c5.091-4.13 11.649-6.63 18.791-6.63 8.968 0 17.017 3.943 22.504 10.189l0.029 0.034c100.251 118.473 247.872 194.171 413.255 197.628l0.588 0.010c165.713-2.987 313.315-78.047 413.2-195.069l0.643-0.772c5.516-6.28 13.565-10.223 22.533-10.223 7.142 0 13.7 2.5 18.847 6.673l-0.056-0.044 46.115 38.33c6.28 5.516 10.223 13.565 10.223 22.533 0 7.142-2.5 13.7-6.673 18.847l0.044-0.056zM631.78 208.438c0-66.153-53.628-119.78-119.78-119.78s-119.78 53.628-119.78 119.78c0 66.153 53.628 119.78 119.78 119.78s119.78-53.628 119.78-119.78zM512 567.78c-129.242-1.366-244.976-58.070-324.827-147.499l-0.378-0.431c-4.666-5.255-7.517-12.216-7.517-19.841 0-9.377 4.309-17.745 11.055-23.237l0.055-0.044 46.714-38.928c4.92-4.061 11.29-6.523 18.234-6.523 8.751 0 16.587 3.909 21.86 10.077l0.032 0.039c58.352 64.227 141.648 104.893 234.466 106.601l0.305 0.004c93.122-1.712 176.419-42.377 234.531-106.339l0.239-0.267c5.306-6.207 13.143-10.116 21.893-10.116 6.944 0 13.314 2.462 18.283 6.562l-0.049-0.039 46.714 38.928c6.801 5.533 11.11 13.903 11.11 23.28 0 7.625-2.851 14.586-7.543 19.872l0.027-0.031c-80.23 89.859-195.962 146.562-324.963 147.927l-0.241 0.001z" />
<glyph unicode="&#xe970;" glyph-name="sign-in" data-tags="sign-in" d="M754.235 478.039l-339.383 343.858c-6.639 5.195-15.107 8.33-24.308 8.33-21.444 0-38.909-17.032-39.605-38.306l-0.001-0.064v-216.029h-319.57c-17.649 0-31.957-14.307-31.957-31.957v0-191.742c0-17.649 14.307-31.957 31.957-31.957v0h319.57v-216.029c0.698-21.337 18.163-38.371 39.607-38.371 9.201 0 17.669 3.135 24.395 8.396l-0.087-0.066 339.383 344.496c8.245 7.297 13.416 17.904 13.416 29.72s-5.171 22.423-13.374 29.684l-0.042 0.036zM605.314 767.57h162.341c18.018-0.036 35.15-3.794 50.678-10.546l-0.825 0.319c8.39-3.576 15.53-7.426 22.269-11.836l-0.539 0.331c13.44-9.656 24.858-21.074 34.214-34.075l0.3-0.439c13.492-20.148 21.587-44.907 21.731-71.547v-383.521c-0.144-26.678-8.237-51.435-22.029-72.059l0.3 0.475c-9.656-13.44-21.074-24.858-34.075-34.214l-0.439-0.3c-6.2-4.079-13.341-7.929-20.814-11.152l-0.917-0.352c-14.703-6.432-31.835-10.191-49.839-10.227h-162.355c-16.094-0.349-29.050-13.305-29.399-29.368v-69.060c0.349-16.094 13.305-29.050 29.368-29.399h132.975c157.432 0 285.056 127.624 285.056 285.056v0 324.684c0 157.432-127.624 285.056-285.056 285.056v0h-132.942c-16.094-0.349-29.050-13.305-29.399-29.368v-69.060c0.349-16.094 13.305-29.050 29.368-29.399h0.033z" />
<glyph unicode="&#xe971;" glyph-name="sign-out" data-tags="sign-out" d="M1010.538 478.078l-339.825 344.306c-6.648 5.202-15.127 8.341-24.339 8.341-21.472 0-38.959-17.054-39.657-38.356l-0.001-0.064v-216.31h-319.986c-17.672 0-31.998-14.326-31.998-31.998v0-191.992c0-17.672 14.326-31.998 31.998-31.998v0h319.986v-216.31c0.699-21.365 18.187-38.421 39.658-38.421 9.213 0 17.692 3.139 24.426 8.407l-0.087-0.066 339.825 344.945c8.256 7.306 13.433 17.927 13.433 29.759s-5.178 22.453-13.391 29.723l-0.042 0.036zM418.565 128.014h-162.552c-18.041 0.036-35.196 3.799-50.744 10.56l0.826-0.319c-8.401 3.58-15.55 7.435-22.298 11.851l0.54-0.331c-13.457 9.669-24.89 21.101-34.259 34.119l-0.3 0.439c-13.51 20.174-21.616 44.965-21.76 71.64v384.021c0.144 26.712 8.248 51.502 22.058 72.153l-0.3-0.475c9.669 13.457 21.101 24.89 34.119 34.259l0.439 0.3c6.208 4.084 13.358 7.939 20.842 11.167l0.918 0.352c14.722 6.441 31.877 10.204 49.904 10.24h162.566c16.115 0.349 29.088 13.322 29.438 29.406v69.15c-0.349 16.115-13.322 29.088-29.406 29.438h-133.148c-157.637 0-285.427-127.79-285.427-285.427v0-325.106c0-157.637 127.79-285.427 285.427-285.427v0h133.115c16.115 0.349 29.088 13.322 29.438 29.406v69.15c-0.349 16.115-13.322 29.088-29.406 29.438h-0.033z" />
<glyph unicode="&#xe972;" glyph-name="image" data-tags="image" d="M959.981 831.983h-895.961c-35.344 0-63.998-28.653-63.998-63.998v0-639.973c0-35.344 28.653-63.998 63.998-63.998v0h895.961c35.344 0 63.998 28.653 63.998 63.998v0 639.973c0 35.344-28.653 63.998-63.998 63.998v0zM256.011 703.989c70.689 0 127.994-57.305 127.994-127.994s-57.305-127.994-127.994-127.994c-70.689 0-127.994 57.305-127.994 127.994v0c0 70.689 57.305 127.994 127.994 127.994v0zM895.983 320.006v-127.994h-767.967v127.994l109.435 55.037c5.418 2.71 11.803 4.296 18.559 4.296s13.141-1.585 18.805-4.407l-0.244 0.111 109.435-55.037 302.706 241.91c4.971 3.606 11.193 5.767 17.92 5.767s12.949-2.163 18.008-5.83l-0.090 0.061 173.433-113.916z" />
</font>
</defs>
</svg>
