<svg fill="none" height="24" viewBox="0 0 24 24" width="24" xmlns="http://www.w3.org/2000/svg"><path clip-rule="evenodd" d="m5.75 5c0-.107.10051-.25.29545-.25h9.40905c.195 0 .2955.143.2955.25v14c0 .107-.1005.25-.2955.25h-9.40905c-.19494 0-.29545-.143-.29545-.25zm.29545-1.75c-.95983 0-1.79545.75243-1.79545 1.75v14c0 .9976.83562 1.75 1.79545 1.75h9.40905c.9599 0 1.7955-.7524 1.7955-1.75v-14c0-.99757-.8356-1.75-1.7955-1.75zm13.70455 2.75c0-.41421-.3358-.75-.75-.75s-.75.33579-.75.75v2c0 .41421.3358.75.75.75s.75-.33579.75-.75zm-9 3.5c-.2761 0-.5.22386-.5.5 0 .2761.2239.5.5.5s.5-.2239.5-.5c0-.27614-.2239-.5-.5-.5zm-2 .5c0-1.10457.89543-2 2-2 1.1046 0 2 .89543 2 2 0 1.1046-.8954 2-2 2-1.10457 0-2-.8954-2-2zm11 1c0-.4142-.3358-.75-.75-.75s-.75.3358-.75.75v2c0 .4142.3358.75.75.75s.75-.3358.75-.75zm-.75 4.25c.4142 0 .75.3358.75.75v2c0 .4142-.3358.75-.75.75s-.75-.3358-.75-.75v-2c0-.4142.3358-.75.75-.75zm-10.5 0c0-.4333.06632-.6806.13645-.8208.0603-.1207.1379-.1934.261-.2521.14425-.0686.35969-.1205.68829-.1486.32737-.028.70546-.0285 1.16426-.0285s.8369.0005 1.1643.0285c.3286.0281.544.08.6883.1486.123.0587.2006.1314.261.2521.0701.1402.1364.3875.1364.8208 0 .4142.3358.75.75.75s.75-.3358.75-.75c0-.5667-.0837-1.0694-.2948-1.4917-.2209-.4418-.5558-.7441-.9578-.9354-.3807-.1814-.8028-.2545-1.2054-.2889-.3977-.034-.8371-.034-1.2717-.034h-.0203-.0203c-.4346 0-.874 0-1.27169.034-.40265.0344-.82471.1075-1.20546.2889-.4019.1913-.7368.4936-.95775.9354-.21112.4223-.2948.925-.2948 1.4917 0 .4142.33579.75.75.75s.75-.3358.75-.75z" fill="#000" fill-rule="evenodd"/></svg>