<svg id="Layer_1" data-name="Layer 1" xmlns="http://www.w3.org/2000/svg" viewBox="0 0 24 24"><path d="M7.2,10.17V14.3a1,1,0,0,1-1,1,1.07,1.07,0,0,1-1.08-1V10.17a1.07,1.07,0,0,1,1.08-1A1,1,0,0,1,7.2,10.17Zm.38,5.6a1.06,1.06,0,0,0,1.06,1.06h.71V19a1,1,0,0,0,2,0V16.83h1.32V19a1,1,0,0,0,2,0V16.83h.72a1.05,1.05,0,0,0,1.05-1.06V9.37H7.58ZM16.44,9H7.54A4,4,0,0,1,9.82,5.47L9.13,4.21a.14.14,0,1,1,.24-.14l.7,1.27a4.87,4.87,0,0,1,3.87,0l.69-1.27a.14.14,0,1,1,.24.14l-.69,1.26A4,4,0,0,1,16.44,9ZM10.35,7A.38.38,0,0,0,10,6.66a.38.38,0,0,0,0,.75A.38.38,0,0,0,10.35,7ZM14.4,7A.38.38,0,0,0,14,6.66a.38.38,0,0,0,0,.75A.38.38,0,0,0,14.4,7Zm3.38,2.14a1,1,0,0,0-1,1V14.3a1,1,0,0,0,1,1,1.07,1.07,0,0,0,1.08-1V10.17A1.07,1.07,0,0,0,17.78,9.18Z"/></svg>