<svg id="Layer_1" data-name="Layer 1" xmlns="http://www.w3.org/2000/svg" viewBox="0 0 24 24"><title>angle-double-down</title><path d="M15.18,12.47h0l-3.32,3.32h0l-3-3h0L8.11,12a.51.51,0,0,0-.71,0l-1.2,1.2a.51.51,0,0,0,0,.71l.71.71h0l3.89,3.89a1.51,1.51,0,0,0,2.12,0l4.17-4.17h0l.71-.71a.51.51,0,0,0,0-.71l-1.2-1.2a.5.5,0,0,0-.71,0Z"/><path d="M15.89,5.16l-.71.71h0L11.86,9.19h0l-3-3h0l-.71-.71a.51.51,0,0,0-.71,0L6.2,6.64a.51.51,0,0,0,0,.71l.71.71h0L10.8,12a1.51,1.51,0,0,0,2.12,0l4.17-4.17h0l.71-.71a.51.51,0,0,0,0-.71l-1.2-1.2A.5.5,0,0,0,15.89,5.16Z"/></svg>