<svg id="Layer_1" data-name="Layer 1" xmlns="http://www.w3.org/2000/svg" viewBox="0 0 24 24"><title>angle-double-right</title><path d="M12.47,8.82h0l3.32,3.32h0l-3,3h0l-.71.71a.51.51,0,0,0,0,.71l1.2,1.2a.51.51,0,0,0,.71,0l.71-.71h0l3.89-3.89a1.51,1.51,0,0,0,0-2.12L14.38,6.91h0l-.71-.71a.51.51,0,0,0-.71,0l-1.2,1.2a.5.5,0,0,0,0,.71Z"/><path d="M5.16,8.11l.71.71h0l3.32,3.32h0l-3,3h0l-.71.71a.51.51,0,0,0,0,.71l1.2,1.2a.51.51,0,0,0,.71,0l.71-.71h0L12,13.2a1.51,1.51,0,0,0,0-2.12L7.78,6.91h0L7.07,6.2a.51.51,0,0,0-.71,0L5.16,7.4A.5.5,0,0,0,5.16,8.11Z"/></svg>