<svg id="Layer_1" data-name="Layer 1" xmlns="http://www.w3.org/2000/svg" viewBox="0 0 24 24"><title>angle-double-left</title><path d="M11.53,15.18h0L8.21,11.86h0l3-3h0L12,8.11a.51.51,0,0,0,0-.71l-1.2-1.2a.51.51,0,0,0-.71,0l-.71.71h0L5.45,10.8a1.51,1.51,0,0,0,0,2.12l4.17,4.17h0l.71.71a.51.51,0,0,0,.71,0l1.2-1.2a.5.5,0,0,0,0-.71Z"/><path d="M18.84,15.89l-.71-.71h0l-3.32-3.32h0l3-3h0l.71-.71a.51.51,0,0,0,0-.71l-1.2-1.2a.51.51,0,0,0-.71,0l-.71.71h0L12.05,10.8a1.51,1.51,0,0,0,0,2.12l4.17,4.17h0l.71.71a.51.51,0,0,0,.71,0l1.2-1.2A.5.5,0,0,0,18.84,15.89Z"/></svg>