<svg id="Layer_1" data-name="Layer 1" xmlns="http://www.w3.org/2000/svg" viewBox="0 0 24 24"><title>angle-double-up</title><path d="M8.82,11.53h0l3.32-3.32h0l3,3h0l.71.71a.51.51,0,0,0,.71,0l1.2-1.2a.51.51,0,0,0,0-.71l-.71-.71h0L13.2,5.45a1.51,1.51,0,0,0-2.12,0L6.91,9.62h0l-.71.71a.51.51,0,0,0,0,.71l1.2,1.2a.5.5,0,0,0,.71,0Z"/><path d="M8.11,18.84l.71-.71h0l3.32-3.32h0l3,3h0l.71.71a.51.51,0,0,0,.71,0l1.2-1.2a.51.51,0,0,0,0-.71l-.71-.71h0L13.2,12.05a1.51,1.51,0,0,0-2.12,0L6.91,16.22h0l-.71.71a.51.51,0,0,0,0,.71l1.2,1.2A.5.5,0,0,0,8.11,18.84Z"/></svg>