<svg viewBox="0 0 24 24" xmlns="http://www.w3.org/2000/svg"><path d="m19.75 16c0 .41-.34.75-.75.75h-12.19l1.22 1.22c.29.29.29.77 0 1.06-.15.15-.34.22-.53.22s-.38-.07-.53-.22l-2.5-2.5c-.07-.07-.12-.15-.16-.24-.08-.18-.08-.39 0-.57.04-.09.09-.17.16-.24l2.5-2.5c.29-.29.77-.29 1.06 0s.29.77 0 1.06l-1.22 1.22h12.19c.41 0 .75.34.75.75zm-14.75-7.25h12.19l-1.22 1.22c-.29.29-.29.77 0 1.06.15.15.34.22.53.22s.38-.07.53-.22l2.5-2.5c.07-.07.12-.15.16-.24.08-.18.08-.39 0-.57-.04-.09-.09-.17-.16-.24l-2.5-2.5c-.29-.29-.77-.29-1.06 0s-.29.77 0 1.06l1.22 1.22h-12.19c-.41 0-.75.34-.75.75s.34.75.75.75z"/></svg>