<svg fill="none" height="24" viewBox="0 0 24 24" width="24" xmlns="http://www.w3.org/2000/svg"><path clip-rule="evenodd" d="m19 11.25c.4142 0 .75-.3358.75-.75s-.3358-.75-.75-.75h-3.6893l4.7196-4.71967c.2929-.29289.2929-.76776.0001-1.06066-.2929-.29289-.7678-.29289-1.0607 0l-4.7197 4.71968v-3.68935c0-.41421-.3358-.75-.75-.75s-.75.33579-.75.75v5.5c0 .4142.3358.75.75.75zm-14 1.5c-.41421 0-.75.3358-.75.75s.33579.75.75.75h3.68934l-4.71967 4.7197c-.29289.2929-.29289.7677 0 1.0606s.76777.2929 1.06066 0l4.71967-4.7196v3.6893c0 .4142.3358.75.75.75s.75-.3358.75-.75v-5.5c0-.4142-.3358-.75-.75-.75z" fill="#000" fill-rule="evenodd"/></svg>