<svg fill="none" height="24" viewBox="0 0 24 24" width="24" xmlns="http://www.w3.org/2000/svg"><path clip-rule="evenodd" d="m14 3.75c-.4142 0-.75.33579-.75.75s.3358.75.75.75h3.6894l-4.7197 4.71967c-.2929.29293-.2929.76773 0 1.06063s.7677.2929 1.0606 0l4.7197-4.71965v3.68935c0 .4142.3358.75.75.75s.75-.3358.75-.75v-5.5c0-.41421-.3358-.75-.75-.75zm-4 16.5c.4142 0 .75-.3358.75-.75s-.3358-.75-.75-.75h-3.68934l4.71964-4.7197c.2929-.2929.2929-.7677 0-1.0606s-.7677-.2929-1.06063 0l-4.71967 4.7196v-3.6893c0-.4142-.33579-.75-.75-.75s-.75.3358-.75.75v5.5c0 .4142.33579.75.75.75z" fill="#000" fill-rule="evenodd"/></svg>