<svg viewBox="0 0 24 24" xmlns="http://www.w3.org/2000/svg"><path d="m20.69 12.29c-.04.09-.09.17-.16.24l-2.5 2.5c-.15.15-.34.22-.53.22s-.38-.07-.53-.22c-.29-.29-.29-.77 0-1.06l1.22-1.22h-5.44v5.44l1.22-1.22c.29-.29.77-.29 1.06 0s.29.77 0 1.06l-2.5 2.5c-.07.07-.15.12-.24.16s-.19.06-.29.06-.2-.02-.29-.06-.17-.09-.24-.16l-2.5-2.5c-.29-.29-.29-.77 0-1.06s.77-.29 1.06 0l1.22 1.22v-5.44h-5.44l1.22 1.22c.29.29.29.77 0 1.06-.15.15-.34.22-.53.22s-.38-.07-.53-.22l-2.5-2.5c-.07-.07-.12-.15-.16-.24-.08-.18-.08-.39 0-.57.04-.09.09-.17.16-.24l2.5-2.5c.29-.29.77-.29 1.06 0s.29.77 0 1.06l-1.22 1.22h5.44v-5.45l-1.22 1.22c-.29.29-.77.29-1.06 0s-.29-.77 0-1.06l2.5-2.5c.07-.07.15-.12.24-.16.18-.08.39-.08.57 0 .09.04.17.09.24.16l2.5 2.5c.29.29.29.77 0 1.06-.15.15-.34.22-.53.22s-.38-.07-.53-.22l-1.22-1.22v5.44h5.44l-1.22-1.22c-.29-.29-.29-.77 0-1.06s.77-.29 1.06 0l2.5 2.5c.07.07.12.15.16.24.08.18.08.39 0 .57z"/></svg>