<svg fill="none" height="24" viewBox="0 0 24 24" width="24" xmlns="http://www.w3.org/2000/svg"><path clip-rule="evenodd" d="m12.75 5c0-.41421-.3358-.75-.75-.75s-.75.33579-.75.75v5.701l-4.93719-2.85052c-.35872-.20711-.81741-.0842-1.02452.27452s-.0842.81741.27452 1.02452l4.93719 2.85048-4.93719 2.8505c-.35872.2071-.48163.6658-.27452 1.0245s.6658.4816 1.02452.2745l4.93719-2.8505v5.701c0 .4142.3358.75.75.75s.75-.3358.75-.75v-5.701l4.9372 2.8505c.3587.2071.8174.0842 1.0245-.2745s.0842-.8174-.2745-1.0245l-4.9372-2.8505 4.9372-2.85048c.3587-.20711.4816-.6658.2745-1.02452s-.6658-.48163-1.0245-.27452l-4.9372 2.85052z" fill="#000" fill-rule="evenodd"/></svg>