<svg fill="none" height="24" viewBox="0 0 24 24" width="24" xmlns="http://www.w3.org/2000/svg"><path clip-rule="evenodd" d="m4 4c-.55228 0-1 .44772-1 1v14c0 .5523.44772 1 1 1s1-.4477 1-1v-14c0-.55228-.44772-1-1-1zm3 0c-.27614 0-.5.22386-.5.5v15c0 .2761.22386.5.5.5s.5-.2239.5-.5v-15c0-.27614-.22386-.5-.5-.5zm2.5 0c-.27614 0-.5.22386-.5.5v15c0 .2761.22386.5.5.5s.5-.2239.5-.5v-15c0-.27614-.22386-.5-.5-.5zm10 .75c0-.41421.3358-.75.75-.75s.75.33579.75.75v14.5c0 .4142-.3358.75-.75.75s-.75-.3358-.75-.75zm-7 .25c0-.55228.4477-1 1-1s1 .44772 1 1v14c0 .5523-.4477 1-1 1s-1-.4477-1-1zm4.5-1c-.5523 0-1 .44772-1 1v14c0 .5523.4477 1 1 1s1-.4477 1-1v-14c0-.55228-.4477-1-1-1z" fill="#000" fill-rule="evenodd"/></svg>