<svg fill="none" height="24" viewBox="0 0 24 24" width="24" xmlns="http://www.w3.org/2000/svg"><path clip-rule="evenodd" d="m12 3.25c-1.5635 0-2.88704.39424-3.92688 1.14075-.53497.38406-.95846.94248-1.24189 1.37982l-1.3009-1.3009c-.29289-.29289-.76777-.29289-1.06066 0s-.29289.76777 0 1.06066l2 2 10.00003 9.99997 2 2c.2929.2929.7677.2929 1.0606 0s.2929-.7677 0-1.0606l-.7196-.7197h1.6893c.4142 0 .75-.3358.75-.75 0-.4053-.3215-.7356-.7235-.7495l-.0023-.0003c-.0035-.0005-.0087-.0013-.0153-.0024-.0291-.0052-.0871-.0183-.1652-.0506-.1517-.0625-.4024-.206-.6755-.5438-.554-.6851-1.2482-2.2349-1.2482-5.6534 0-1.87787-.5073-3.57443-1.6071-4.81094-1.1116-1.24981-2.7482-1.93906-4.8129-1.93906zm-3.94523 3.3913c-.04863.07672-.0932.15057-.13331.2195l9.38924 9.3892h.9377c-.7445-1.1244-1.3284-3.0264-1.3284-6.25 0-1.62213-.4377-2.92557-1.2279-3.81406-.7784-.87519-1.9768-1.43594-3.6921-1.43594-1.3083 0-2.31104.32724-3.0521.85925-.32749.23511-.64324.63789-.89313 1.03205zm-.97477 3.3587c0-.41421-.33578-.75-.75-.75-.41421 0-.75.33579-.75.75 0 1.4037-.11719 2.4969-.2956 3.3457-.34284 1.6313-.90457 2.3341-1.27444 2.6351-.18805.153-.3461.2188-.43946.2474-.04755.0145-.08025.02-.09369.0218l-.00335.0005c-.40192.0139-.72346.3442-.72346.7495 0 .4142.33579.75.75.75h.00146 4.82324c.34655 1.7136 1.858 3 3.6753 3 1.3489 0 2.5298-.7094 3.1896-1.7746.2182-.3522.1095-.8144-.2426-1.0326-.3521-.2181-.8144-.1095-1.0325.2426-.3968.6406-1.1043 1.0646-1.9145 1.0646-.9826 0-1.8149-.6247-2.12274-1.5h3.12274c.4142 0 .75-.3358.75-.75s-.3358-.75-.75-.75h-4-3.24838c.40276-.6088.7593-1.4471 1.00071-2.5957.20398-.9706.32767-2.1698.32767-3.6543z" fill="#000" fill-rule="evenodd"/></svg>