<svg fill="none" height="24" viewBox="0 0 24 24" width="24" xmlns="http://www.w3.org/2000/svg"><path clip-rule="evenodd" d="m12.1214 4.92538c-.0755-.04195-.1673-.04195-.2428 0l-8.51438 4.7302c-.36209.20116-.81869.0707-1.01985-.29139-.20116-.36208-.07071-.81869.29138-1.01985l8.51435-4.73019c.5286-.29364 1.1712-.29364 1.6998 0l8.5143 4.73019c.3621.20116.4926.65777.2914 1.01985-.2012.36209-.6578.49255-1.0198.29139zm-2.87142 4.07458c0-.41421.33579-.75.75-.75h4.00002c.4142 0 .75.33579.75.75 0 .41422-.3358.75-.75.75h-4.00002c-.41421 0-.75-.33578-.75-.75zm-3.24999 2.25004c.41421 0 .75.3357.75.75v5c0 .4142-.33579.75-.75.75s-.75-.3358-.75-.75v-5c0-.4143.33579-.75.75-.75zm4 0c.41421 0 .75001.3357.75001.75v5c0 .4142-.3358.75-.75001.75s-.75-.3358-.75-.75v-5c0-.4143.33579-.75.75-.75zm4.00001 0c.4142 0 .75.3357.75.75v5c0 .4142-.3358.75-.75.75s-.75-.3358-.75-.75v-5c0-.4143.3358-.75.75-.75zm4 0c.4142 0 .75.3357.75.75v5c0 .4142-.3358.75-.75.75s-.75-.3358-.75-.75v-5c0-.4143.3358-.75.75-.75zm-13.75001 8.75c0-.4143.33579-.75.75-.75h14.00001c.4142 0 .75.3357.75.75 0 .4142-.3358.75-.75.75h-14.00001c-.41421 0-.75-.3358-.75-.75z" fill="#000" fill-rule="evenodd"/></svg>