<svg viewBox="0 0 24 24" xmlns="http://www.w3.org/2000/svg"><rect height="2" rx=".5" width="2" x="9" y="6"/><rect height="2" rx=".5" width="2" x="13" y="6"/><rect height="2" rx=".5" width="2" x="9" y="9.5"/><rect height="2" rx=".5" width="2" x="13" y="9.5"/><rect height="2" rx=".5" width="2" x="9" y="13"/><rect height="2" rx=".5" width="2" x="13" y="13"/><path d="m18.25 19.25h-.5v-15.25a.76.76 0 0 0 -.75-.75h-10a.76.76 0 0 0 -.75.75v15.25h-.5a.75.75 0 0 0 0 1.5h12.5a.75.75 0 0 0 0-1.5zm-2 0h-5.25v-2.25a.5.5 0 0 0 -.5-.5h-1a.5.5 0 0 0 -.5.5v2.25h-1.25v-14.5h8.5z"/></svg>