<svg fill="none" height="24" viewBox="0 0 24 24" width="24" xmlns="http://www.w3.org/2000/svg"><path clip-rule="evenodd" d="m12.0004 4.5c-4.14236 0-7.5004 3.35804-7.5004 7.5004 0 4.1424 3.35804 7.5004 7.5004 7.5004 4.1424 0 7.5004-3.358 7.5004-7.5004 0-4.14236-3.358-7.5004-7.5004-7.5004zm-9.0004 7.5004c0-4.97078 4.02962-9.0004 9.0004-9.0004 4.9708 0 9.0004 4.02962 9.0004 9.0004 0 4.9708-4.0296 9.0004-9.0004 9.0004-4.97078 0-9.0004-4.0296-9.0004-9.0004zm9-4.3754c-2.41625 0-4.375 1.95875-4.375 4.375 0 2.4162 1.95875 4.375 4.375 4.375 2.4162 0 4.375-1.9588 4.375-4.375 0-2.41625-1.9588-4.375-4.375-4.375zm-5.875 4.375c0-3.24467 2.63033-5.875 5.875-5.875 3.2447 0 5.875 2.63033 5.875 5.875 0 3.2447-2.6303 5.875-5.875 5.875-3.24467 0-5.875-2.6303-5.875-5.875zm4.625 0c0-.6904.5596-1.25 1.25-1.25s1.25.5596 1.25 1.25-.5596 1.25-1.25 1.25-1.25-.5596-1.25-1.25zm1.25-2.75c-1.5188 0-2.75 1.2312-2.75 2.75s1.2312 2.75 2.75 2.75 2.75-1.2312 2.75-2.75-1.2312-2.75-2.75-2.75z" fill="#000" fill-rule="evenodd"/></svg>