<svg id="Layer_1" data-name="Layer 1" xmlns="http://www.w3.org/2000/svg" viewBox="0 0 24 24"><title>calendar-plus</title><path d="M19,5.06H17.52V3.94a1,1,0,0,0-1-1h-.43a1,1,0,0,0-1,1V5.06H8.93V4a1,1,0,0,0-1-1H7.5a1,1,0,0,0-1,1v1.1H5a1,1,0,0,0-1,1v14a1,1,0,0,0,1,1H19a1,1,0,0,0,1-1v-14A1,1,0,0,0,19,5.06Zm-.5,13.5a1,1,0,0,1-1,1H6.5a1,1,0,0,1-1-1V10.17a1,1,0,0,1,1-1h11a1,1,0,0,1,1,1Z"/><path d="M15.46,13.33H13.07V10.94a.54.54,0,0,0-.54-.54H11.47a.54.54,0,0,0-.54.54v2.39H8.54a.54.54,0,0,0-.54.54v1.06a.54.54,0,0,0,.54.54h2.39v2.39a.54.54,0,0,0,.54.54h1.06a.54.54,0,0,0,.54-.54V15.47h2.39a.54.54,0,0,0,.54-.54V13.87A.54.54,0,0,0,15.46,13.33Z"/></svg>