<svg id="Layer_1" data-name="Layer 1" xmlns="http://www.w3.org/2000/svg" viewBox="0 0 24 24"><path d="M19,5.06H17.52V3.94a1,1,0,0,0-1-1h-.43a1,1,0,0,0-1,1V5.06H8.93V4a1,1,0,0,0-1-1H7.5a1,1,0,0,0-1,1v1.1H5a1,1,0,0,0-1,1v14a1,1,0,0,0,1,1H19a1,1,0,0,0,1-1v-14A1,1,0,0,0,19,5.06Zm-.5,13.5a1,1,0,0,1-1,1H6.5a1,1,0,0,1-1-1V10.17a1,1,0,0,1,1-1h11a1,1,0,0,1,1,1Z"/><rect x="6.46" y="10.23" width="2.47" height="2.47" rx="0.5"/><rect x="9.33" y="10.23" width="2.47" height="2.47" rx="0.5"/><rect x="12.2" y="10.23" width="2.47" height="2.47" rx="0.5"/><rect x="15.07" y="10.23" width="2.47" height="2.47" rx="0.5"/><rect x="6.46" y="13.23" width="2.47" height="2.47" rx="0.5"/><rect x="9.33" y="13.23" width="2.47" height="2.47" rx="0.5"/><rect x="12.2" y="13.23" width="2.47" height="2.47" rx="0.5"/><rect x="15.07" y="13.23" width="2.47" height="2.47" rx="0.5"/><rect x="6.46" y="16.1" width="2.47" height="2.47" rx="0.5"/><rect x="9.33" y="16.1" width="2.47" height="2.47" rx="0.5"/><rect x="12.2" y="16.1" width="2.47" height="2.47" rx="0.5"/><rect x="15.07" y="16.1" width="2.47" height="2.47" rx="0.5"/></svg>