<svg fill="none" height="24" viewBox="0 0 24 24" width="24" xmlns="http://www.w3.org/2000/svg"><path clip-rule="evenodd" d="m9 2.25c.41421 0 .75.33579.75.75v1.25h4.5v-1.25c0-.41421.3358-.75.75-.75s.75.33579.75.75v1.25h1.25c1.5188 0 2.75 1.23122 2.75 2.75v3.5c0 .4142-.3358.75-.75.75h-13.25v6.75c0 .6904.55964 1.25 1.25 1.25h4c.4142 0 .75.3358.75.75s-.3358.75-.75.75h-4c-1.51878 0-2.75-1.2312-2.75-2.75v-11c0-1.51878 1.23122-2.75 2.75-2.75h1.25v-1.25c0-.41421.33579-.75.75-.75zm5.25 3.5v1.25c0 .41421.3358.75.75.75s.75-.33579.75-.75v-1.25h1.25c.6904 0 1.25.55964 1.25 1.25v2.75h-12.5v-2.75c0-.69036.55964-1.25 1.25-1.25h1.25v1.25c0 .41421.33579.75.75.75s.75-.33579.75-.75v-1.25zm2.5 8c-1.6569 0-3 1.3431-3 3s1.3431 3 3 3 3-1.3431 3-3-1.3431-3-3-3zm-4.5 3c0-2.4853 2.0147-4.5 4.5-4.5s4.5 2.0147 4.5 4.5-2.0147 4.5-4.5 4.5-4.5-2.0147-4.5-4.5zm5-1.25c0-.4142-.3358-.75-.75-.75s-.75.3358-.75.75v2c0 .4142.3358.75.75.75h1c.4142 0 .75-.3358.75-.75s-.3358-.75-.75-.75h-.25z" fill="#000" fill-rule="evenodd"/></svg>