<svg fill="none" height="24" viewBox="0 0 24 24" width="24" xmlns="http://www.w3.org/2000/svg"><path clip-rule="evenodd" d="m9 2.25c.41421 0 .75.33579.75.75v1.25h4.5v-1.25c0-.41421.3358-.75.75-.75s.75.33579.75.75v1.25h1.25c1.5188 0 2.75 1.23122 2.75 2.75v11c0 1.5188-1.2312 2.75-2.75 2.75h-10c-1.51878 0-2.75-1.2312-2.75-2.75v-11c0-1.51878 1.23122-2.75 2.75-2.75h1.25v-1.25c0-.41421.33579-.75.75-.75zm5.25 3.5v1.25c0 .41421.3358.75.75.75s.75-.33579.75-.75v-1.25h1.25c.6904 0 1.25.55964 1.25 1.25v2.75h-12.5v-2.75c0-.69036.55964-1.25 1.25-1.25h1.25v1.25c0 .41421.33579.75.75.75s.75-.33579.75-.75v-1.25zm-8.5 5.5v6.75c0 .6904.55964 1.25 1.25 1.25h10c.6904 0 1.25-.5596 1.25-1.25v-6.75z" fill="#000" fill-rule="evenodd"/></svg>