<svg id="Layer_1" data-name="Layer 1" xmlns="http://www.w3.org/2000/svg" viewBox="0 0 24 24"><path d="M19,5.06H17.52V3.94a1,1,0,0,0-1-1h-.43a1,1,0,0,0-1,1V5.06H8.93V4a1,1,0,0,0-1-1H7.5a1,1,0,0,0-1,1v1.1H5a1,1,0,0,0-1,1v14a1,1,0,0,0,1,1H19a1,1,0,0,0,1-1v-14A1,1,0,0,0,19,5.06Zm-.5,13.5a1,1,0,0,1-1,1H6.5a1,1,0,0,1-1-1V10.17a1,1,0,0,1,1-1h11a1,1,0,0,1,1,1Z"/><path d="M15.81,11.48l-.89-.89a.63.63,0,0,0-.9,0l-2,2-2-2a.63.63,0,0,0-.9,0l-.89.89a.63.63,0,0,0,0,.9l2,2-2,2a.63.63,0,0,0,0,.9l.89.89a.63.63,0,0,0,.9,0l2-2,2,2a.63.63,0,0,0,.9,0l.89-.89a.63.63,0,0,0,0-.9l-2-2,2-2A.63.63,0,0,0,15.81,11.48Z"/></svg>