<svg width="24" height="24" viewBox="0 0 24 24" fill="none" xmlns="http://www.w3.org/2000/svg">
<path fill-rule="evenodd" clip-rule="evenodd" d="M9 2.25C9.41421 2.25 9.75 2.58579 9.75 3V4.25H14.25V3C14.25 2.58579 14.5858 2.25 15 2.25C15.4142 2.25 15.75 2.58579 15.75 3V4.25H17C18.5188 4.25 19.75 5.48122 19.75 7V18C19.75 19.5188 18.5188 20.75 17 20.75H7C5.48122 20.75 4.25 19.5188 4.25 18V7C4.25 5.48122 5.48122 4.25 7 4.25H8.25V3C8.25 2.58579 8.58579 2.25 9 2.25ZM14.25 5.75V7C14.25 7.41421 14.5858 7.75 15 7.75C15.4142 7.75 15.75 7.41421 15.75 7V5.75H17C17.6904 5.75 18.25 6.30964 18.25 7V9.75H5.75V7C5.75 6.30964 6.30964 5.75 7 5.75H8.25V7C8.25 7.41421 8.58579 7.75 9 7.75C9.41421 7.75 9.75 7.41421 9.75 7V5.75H14.25ZM5.75 11.25V18C5.75 18.6904 6.30964 19.25 7 19.25H17C17.6904 19.25 18.25 18.6904 18.25 18V11.25H5.75Z" fill="black"/>
</svg>
