<svg fill="none" height="24" viewBox="0 0 24 24" width="24" xmlns="http://www.w3.org/2000/svg"><path clip-rule="evenodd" d="m3.25 4c0-.41421.33578-.75.74999-.75h1.99998c.36246 0 .67306.25922.7379.61584l1.88801 10.38416h8.78842l1.8579-7.4319c.1005-.40185.5077-.64617.9095-.54571.4019.10046.6462.50767.5457.90951l-1.9999 8c-.0835.3339-.3835.5681-.7276.5681h-9.99995c-.36246 0-.67305-.2592-.73789-.6158l-1.88801-10.3842h-1.37406c-.41421 0-.74999-.33579-.74999-.75zm4.99995 14.25c0 .83.66999 1.5 1.49999 1.5.82996 0 1.49996-.67 1.49996-1.5s-.67-1.5-1.49996-1.5c-.83 0-1.49999.67-1.49999 1.5zm6.49995 0c0 .83.67 1.5 1.5 1.5s1.5-.67 1.5-1.5-.67-1.5-1.5-1.5-1.5.67-1.5 1.5zm-1-13.25c0-.41421-.3358-.75-.75-.75s-.75.33579-.75.75v3.18934l-.7197-.71967c-.2928-.29289-.7677-.29289-1.0606 0s-.2929.76777 0 1.06066l2 1.99997c.2929.2929.7677.2929 1.0606 0l2-1.99997c.2929-.29289.2929-.76777 0-1.06066s-.7677-.29289-1.0606 0l-.7197.71967z" fill="#000" fill-rule="evenodd"/></svg>