<svg viewBox="0 0 24 24" xmlns="http://www.w3.org/2000/svg"><path d="m10.39 11.5c0-.41.34-.75.75-.75h1.25v-1.25c0-.41.34-.75.75-.75s.75.34.75.75v1.25h1.25c.41 0 .75.34.75.75s-.34.75-.75.75h-1.25v1.25c0 .41-.34.75-.75.75s-.75-.34-.75-.75v-1.25h-1.25c-.41 0-.75-.34-.75-.75zm.86 7.25c0 .83-.67 1.5-1.5 1.5s-1.5-.67-1.5-1.5.67-1.5 1.5-1.5 1.5.67 1.5 1.5zm6.5 0c0 .83-.67 1.5-1.5 1.5s-1.5-.67-1.5-1.5.67-1.5 1.5-1.5 1.5.67 1.5 1.5zm2.98-11.07-2 8c-.08.33-.38.57-.73.57h-10c-.36 0-.67-.26-.74-.62l-1.89-10.38h-1.37c-.41 0-.75-.34-.75-.75s.34-.75.75-.75h2c.36 0 .67.26.74.62l.43 2.38h12.83c.23 0 .45.11.59.29s.19.42.14.64zm-1.69.57h-11.6l1.18 6.5h8.79l1.62-6.5z"/></svg>