<svg fill="none" height="24" viewBox="0 0 24 24" width="24" xmlns="http://www.w3.org/2000/svg"><path clip-rule="evenodd" d="m4 3.75c-.41421 0-.75.33579-.75.75s.33579.75.75.75h1.37407l1.88803 10.3842c.06484.3566.37544.6158.7379.6158h10c.3442 0 .6441-.2342.7276-.5681l2-8c.056-.22405.0057-.46142-.1364-.64346-.1422-.18204-.3602-.28844-.5912-.28844h-12.82861l-.43349-2.38416c-.06484-.35662-.37544-.61584-.7379-.61584zm4.62593 11-1.18182-6.5h11.59529l-1.625 6.5zm2.51407-4c-.4142 0-.75.3358-.75.75s.3358.75.75.75h4c.4142 0 .75-.3358.75-.75s-.3358-.75-.75-.75zm-1.39 6.5c-.82843 0-1.5.6716-1.5 1.5s.67157 1.5 1.5 1.5c.8284 0 1.5-.6716 1.5-1.5s-.6716-1.5-1.5-1.5zm5 1.5c0-.8284.6716-1.5 1.5-1.5s1.5.6716 1.5 1.5-.6716 1.5-1.5 1.5-1.5-.6716-1.5-1.5z" fill="#000" fill-rule="evenodd"/></svg>