<svg viewBox="0 0 24 24" xmlns="http://www.w3.org/2000/svg"><path d="m4.5 20.25a.76.76 0 0 1 -.75-.75v-15a.75.75 0 0 1 1.5 0v15a.76.76 0 0 1 -.75.75z"/><path d="m19.5 20.25h-15a.75.75 0 0 1 0-1.5h15a.75.75 0 0 1 0 1.5z"/><path d="m14 14.75a.74.74 0 0 1 -.53-.22l-2.47-2.47-2.47 2.47a.75.75 0 0 1 -1.06-1.06l3-3a.75.75 0 0 1 1.06 0l2.47 2.47 3.47-3.47a.75.75 0 0 1 1.06 1.06l-4 4a.74.74 0 0 1 -.53.22z"/><path d="m18.5 13.84a.76.76 0 0 1 -.75-.75v-2.84h-2.75a.75.75 0 0 1 0-1.5h3.5a.76.76 0 0 1 .75.75v3.59a.76.76 0 0 1 -.75.75z"/></svg>