<svg viewBox="0 0 24 24" xmlns="http://www.w3.org/2000/svg"><path d="m4.5 20.25a.76.76 0 0 1 -.75-.75v-15a.75.75 0 0 1 1.5 0v15a.76.76 0 0 1 -.75.75z"/><path d="m19.5 20.25h-15a.75.75 0 0 1 0-1.5h15a.75.75 0 0 1 0 1.5z"/><path d="m8 16.75a.76.76 0 0 1 -.75-.75v-4a.75.75 0 0 1 1.5 0v4a.76.76 0 0 1 -.75.75z"/><path d="m11.5 16.75a.76.76 0 0 1 -.75-.75v-8a.75.75 0 0 1 1.5 0v8a.76.76 0 0 1 -.75.75z"/><path d="m15 16.75a.76.76 0 0 1 -.75-.75v-4a.75.75 0 0 1 1.5 0v4a.76.76 0 0 1 -.75.75z"/><path d="m18.5 16.75a.76.76 0 0 1 -.75-.75v-8a.75.75 0 0 1 1.5 0v8a.76.76 0 0 1 -.75.75z"/></svg>