<svg fill="none" height="24" viewBox="0 0 24 24" width="24" xmlns="http://www.w3.org/2000/svg"><path clip-rule="evenodd" d="m11.2231 4.75c-.5374 0-.9731.43566-.9731.97308v1.46538h3.5v-1.46538c0-.53742-.4357-.97308-.9731-.97308zm3.9111.22308h.8658c1.5188 0 2.75 1.23121 2.75 2.75v10.27692c0 1.5188-1.2312 2.75-2.75 2.75h-8c-1.51878 0-2.75-1.2312-2.75-2.75v-10.27692c0-1.51878 1.23122-2.75 2.75-2.75h.86577c.31762-.99918 1.25293-1.72308 2.35733-1.72308h1.5538c1.1044 0 2.0397.7239 2.3573 1.72308zm.1158 1.5v1.36538c0 .46944-.3806.85-.85.85h-4.8c-.46944 0-.85-.38056-.85-.85v-1.36538h-.75c-.69036 0-1.25.55964-1.25 1.25v10.27692c0 .6904.55964 1.25 1.25 1.25h8c.6904 0 1.25-.5596 1.25-1.25v-10.27692c0-.69036-.5596-1.25-1.25-1.25z" fill="#000" fill-rule="evenodd"/></svg>