<svg id="Layer_1" data-name="Layer 1" xmlns="http://www.w3.org/2000/svg" viewBox="0 0 24 24"><title>cog</title><path d="M19.51,10.59l-2-.33a5.3,5.3,0,0,0-.4-.95L18.3,7.68a.8.8,0,0,0-.22-.91l-.85-.85a.8.8,0,0,0-.91-.22L14.69,6.85a5.3,5.3,0,0,0-.95-.4l-.33-2A.83.83,0,0,0,12.6,4H11.4a.83.83,0,0,0-.81.49l-.33,2a5.3,5.3,0,0,0-.95.4L7.68,5.7a.8.8,0,0,0-.91.22l-.85.85a.8.8,0,0,0-.22.91L6.85,9.31a5.3,5.3,0,0,0-.4.95l-2,.33A.83.83,0,0,0,4,11.4v1.2a.83.83,0,0,0,.49.81l2,.33a5.3,5.3,0,0,0,.4.95L5.7,16.32a.8.8,0,0,0,.22.91l.85.85a.8.8,0,0,0,.91.22l1.63-1.15a5.3,5.3,0,0,0,.95.4l.33,2a.83.83,0,0,0,.81.49h1.2a.83.83,0,0,0,.81-.49l.33-2a5.3,5.3,0,0,0,.95-.4l1.63,1.15a.8.8,0,0,0,.91-.22l.85-.85a.8.8,0,0,0,.22-.91l-1.15-1.63a5.3,5.3,0,0,0,.4-.95l2-.33A.83.83,0,0,0,20,12.6V11.4A.83.83,0,0,0,19.51,10.59ZM12,14.91A2.91,2.91,0,1,1,14.91,12,2.92,2.92,0,0,1,12,14.91Z"/></svg>