<svg viewBox="0 0 24 24" xmlns="http://www.w3.org/2000/svg"><path d="m4.25 17.31a.75.75 0 0 1 -.72-1l1.25-4.12a6.64 6.64 0 0 1 -.4-2.19 6.36 6.36 0 0 1 .51-2.51 6.48 6.48 0 0 1 10.53-2.1 6.66 6.66 0 0 1 1.38 2.06 6.46 6.46 0 0 1 0 5 6.66 6.66 0 0 1 -1.38 2.06 6.48 6.48 0 0 1 -6.83 1.49l-4.12 1.28a.83.83 0 0 1 -.22.03zm6.59-12.31a4.9 4.9 0 0 0 -1.93.39 5 5 0 0 0 -2.64 2.61 5 5 0 0 0 0 3.87.75.75 0 0 1 0 .51l-.92 3 3-.92a.75.75 0 0 1 .51 0 5 5 0 0 0 6.51-2.64 5 5 0 0 0 -4.53-6.82z"/><path d="m19.75 20.5a.83.83 0 0 1 -.22 0l-4.12-1.25a6.42 6.42 0 0 1 -8.17-3.48.73.73 0 0 1 .38-1 .75.75 0 0 1 1 .38 5.06 5.06 0 0 0 1 1.53 5 5 0 0 0 5.44 1.06.75.75 0 0 1 .51 0l3 .92-.92-3a.75.75 0 0 1 0-.51 4.9 4.9 0 0 0 .39-1.93 4.93 4.93 0 0 0 -1.45-3.51 5.62 5.62 0 0 0 -.67-.71.75.75 0 1 1 .84-1.24 6.69 6.69 0 0 1 1 .79 6.49 6.49 0 0 1 1.38 2.06 6.38 6.38 0 0 1 .51 2.52 6.63 6.63 0 0 1 -.4 2.25l1.25 4.12a.75.75 0 0 1 -.72 1z"/></svg>