<svg id="Layer_1" data-name="Layer 1" xmlns="http://www.w3.org/2000/svg" viewBox="0 0 24 24"><path d="M19.76,15a2.67,2.67,0,0,0-.22-2.61,4.28,4.28,0,0,0-2.25-1.74,7.26,7.26,0,0,0-.88-.25,3.39,3.39,0,0,1-.8,1.72,5.89,5.89,0,0,1-3.21,1.81,8.08,8.08,0,0,1-2.64.16,2.9,2.9,0,0,0,.72,1.69,5.13,5.13,0,0,0,2.82,1.59,7.12,7.12,0,0,0,2.3.14.39.39,0,0,1,.21.08A6.33,6.33,0,0,0,18.65,19l.29.05a.27.27,0,0,0,.29-.14.26.26,0,0,0,0-.31c-.09-.11-.19-.22-.29-.32a3.25,3.25,0,0,1-.83-1.48c.2-.14.39-.26.57-.4A3.6,3.6,0,0,0,19.76,15Z"/><path d="M14.88,11.37A3.21,3.21,0,0,0,15,7.23a5.27,5.27,0,0,0-2.62-1.8,7.78,7.78,0,0,0-5.32.08,4.91,4.91,0,0,0-2.58,2,3,3,0,0,0-.24,3A4,4,0,0,0,5.55,12c.21.16.43.3.65.46a3.67,3.67,0,0,1-1,1.68l-.32.37a.3.3,0,0,0,0,.36.29.29,0,0,0,.33.15L5.55,15a7.25,7.25,0,0,0,3.24-1.56A.35.35,0,0,1,9,13.35a8.36,8.36,0,0,0,2.64-.16A5.9,5.9,0,0,0,14.88,11.37Z"/></svg>