<svg fill="none" height="24" viewBox="0 0 24 24" width="24" xmlns="http://www.w3.org/2000/svg"><path clip-rule="evenodd" d="m10.1929 9.55647 1.8072-2.89143 1.8071 2.89143c.2613.41799.8221.52683 1.2208.23693l3.8808-2.82241-1.4907 7.82571c-.0224.1179-.1255.2032-.2455.2032h-10.34503c-.12004 0-.22313-.0853-.24559-.2032l-1.49061-7.82571 3.8808 2.82241c.39864.2899.9595.18107 1.22073-.23693zm2.528-4.56835c-.333-.53266-1.1087-.53267-1.4416 0l-1.98881 3.18204-4.64497-3.37817c-.62297-.45306-1.47907.08978-1.33494.84647l1.79789 9.43894c.15722.8254.87886 1.4225 1.7191 1.4225h10.34503c.8402 0 1.5618-.5971 1.7191-1.4225l1.7978-9.43894c.1442-.75669-.7119-1.29954-1.3349-.84647l-4.645 3.37817zm-6.72084 13.01178c-.41421 0-.75.3358-.75.75 0 .4143.33579.75.75.75h12.00004c.4142 0 .75-.3357.75-.75 0-.4142-.3358-.75-.75-.75z" fill="#000" fill-rule="evenodd"/></svg>