<?xml version="1.0" encoding="UTF-8"?>
<svg id="delete-left" xmlns="http://www.w3.org/2000/svg" viewBox="0 0 24 24">
  <path d="M17.41,9.53l-2.47,2.47,2.47,2.47c.29,.29,.29,.77,0,1.06-.15,.15-.34,.22-.53,.22s-.38-.07-.53-.22l-2.47-2.47-2.47,2.47c-.15,.15-.34,.22-.53,.22s-.38-.07-.53-.22c-.29-.29-.29-.77,0-1.06l2.47-2.47-2.47-2.47c-.29-.29-.29-.77,0-1.06,.29-.29,.77-.29,1.06,0l2.47,2.47,2.47-2.47c.29-.29,.77-.29,1.06,0s.29,.77,0,1.06Zm3.72-2.03v9c0,1.24-1.01,2.25-2.25,2.25H8.24c-.8,0-1.54-.43-1.94-1.12l-3.09-4.45c-.44-.75-.44-1.62-.03-2.32l3.16-4.55c.37-.64,1.11-1.07,1.91-1.07h10.63c1.24,0,2.25,1.01,2.25,2.25Zm-1.5,0c0-.41-.34-.75-.75-.75H8.24c-.26,0-.51,.14-.65,.37l-3.16,4.55c-.1,.18-.1,.47,.03,.71l3.09,4.45c.17,.28,.41,.42,.68,.42h10.63c.41,0,.75-.34,.75-.75V7.5Z"/>
</svg>