<svg xmlns="http://www.w3.org/2000/svg" viewBox="0 0 24 24"><g id="discord"><path d="M18.237 6.277a14.793 14.793 0 0 0-3.661-1.137.061.061 0 0 0-.062.03c-.158.28-.331.647-.454.937a13.654 13.654 0 0 0-4.117 0 9.594 9.594 0 0 0-.462-.937.06.06 0 0 0-.06-.03 14.854 14.854 0 0 0-3.664 1.137c-.01.006-.018.012-.023.021C3.4 9.784 2.76 13.185 3.074 16.543a.08.08 0 0 0 .022.043 14.909 14.909 0 0 0 4.498 2.271c.023.01.047 0 .061-.02.346-.472.656-.97.92-1.495.015-.032 0-.067-.032-.082a9.629 9.629 0 0 1-1.403-.668.06.06 0 0 1-.006-.096c.094-.07.19-.144.277-.217a.055.055 0 0 1 .06-.008c2.947 1.344 6.135 1.344 9.046 0a.055.055 0 0 1 .06.008c.09.073.184.147.277.217.036.027.033.075-.002.096a8.963 8.963 0 0 1-1.406.668.057.057 0 0 0-.03.082c.27.522.577 1.02.917 1.494.015.021.041.03.064.021a14.87 14.87 0 0 0 4.503-2.27.08.08 0 0 0 .024-.044c.375-3.882-.63-7.254-2.663-10.245a.054.054 0 0 0-.024-.021zm-9.222 8.22c-.888 0-1.618-.814-1.618-1.813s.718-1.814 1.618-1.814c.907 0 1.631.821 1.617 1.814 0 .999-.715 1.814-1.617 1.814zm5.982 0c-.888 0-1.617-.814-1.617-1.813s.715-1.814 1.617-1.814c.908 0 1.632.821 1.617 1.814 0 .999-.709 1.814-1.617 1.814zm0 0"/></g></svg>