<svg id="Layer_1" data-name="Layer 1" xmlns="http://www.w3.org/2000/svg" viewBox="0 0 24 24"><title>dollar</title><path d="M13.6,9.74c-.2,0-.32-.1-.32-.27V8.16c0-.44-.26-.67-.8-.67h-1c-.5,0-.8.23-.8.67v2.32l4.76,1.32c.34.12.52.3.52.62v3.89c0,1.53-.94,2.38-2.72,2.43v2c0,.17-.12.27-.32.27H11c-.22,0-.32-.1-.32-.27v-2C9,18.69,8,17.84,8,16.31V14.54c0-.18.12-.27.32-.27H10.4c.22,0,.32.09.32.27v1.3c0,.45.3.67.8.67h1c.52,0,.8-.22.8-.67V13.6L8.54,12.29A.63.63,0,0,1,8,11.66v-4c0-1.53,1-2.38,2.7-2.43v-2c0-.17.1-.27.32-.27H13c.2,0,.32.1.32.27v2c1.78,0,2.72.9,2.72,2.43V9.47c0,.17-.1.27-.32.27Z"/></svg>