<svg id="Layer_1" data-name="Layer 1" xmlns="http://www.w3.org/2000/svg" viewBox="0 0 24 24"><defs><style>.cls-1{opacity:0.96;}</style></defs><title>download</title><path class="cls-1" d="M11.54,15.79a.62.62,0,0,0,.93,0l5.38-5.28a.61.61,0,0,0-.47-1H14V4.57a.5.5,0,0,0-.5-.5h-3a.5.5,0,0,0-.5.5V9.5H6.62a.61.61,0,0,0-.47,1Z"/><path class="cls-1" d="M19,14.92H14.64l-1.9,1.84a1.26,1.26,0,0,1-1.48,0l-1.9-1.84H5a1,1,0,0,0-1,1v3a1,1,0,0,0,1,1H19a1,1,0,0,0,1-1v-3A1,1,0,0,0,19,14.92Zm-1,3.33a.75.75,0,1,1,.75-.75A.76.76,0,0,1,18,18.25Z"/></svg>