<svg fill="none" height="24" viewBox="0 0 24 24" width="24" xmlns="http://www.w3.org/2000/svg"><path clip-rule="evenodd" d="m6 4.75c-.69036 0-1.25.55964-1.25 1.25v3c0 .41421-.33579.75-.75.75s-.75-.33579-.75-.75v-3c0-1.51878 1.23122-2.75 2.75-2.75h3c.41421 0 .75.33579.75.75s-.33579.75-.75.75zm8.25-.75c0-.41421.3358-.75.75-.75h3c1.5188 0 2.75 1.23122 2.75 2.75v3c0 .41421-.3358.75-.75.75s-.75-.33579-.75-.75v-3c0-.69036-.5596-1.25-1.25-1.25h-3c-.4142 0-.75-.33579-.75-.75zm-10.25 10.25c.41421 0 .75.3358.75.75v3c0 .6904.55964 1.25 1.25 1.25h3c.41421 0 .75.3358.75.75s-.33579.75-.75.75h-3c-1.51878 0-2.75-1.2312-2.75-2.75v-3c0-.4142.33579-.75.75-.75zm16 0c.4142 0 .75.3358.75.75v3c0 1.5188-1.2312 2.75-2.75 2.75h-3c-.4142 0-.75-.3358-.75-.75s.3358-.75.75-.75h3c.6904 0 1.25-.5596 1.25-1.25v-3c0-.4142.3358-.75.75-.75z" fill="#000" fill-rule="evenodd"/></svg>