<svg id="Layer_1" data-name="Layer 1" xmlns="http://www.w3.org/2000/svg" viewBox="0 0 24 24"><title>external-link</title><path d="M19.93,12h-.86a.51.51,0,0,0-.51.5v6l-.06.06L5.44,18.5,5.5,5.44l6,0A.51.51,0,0,0,12,5v-.9a.5.5,0,0,0-.5-.5h-6A1.94,1.94,0,0,0,3.56,5.5v13A1.94,1.94,0,0,0,5.5,20.44h13a1.94,1.94,0,0,0,1.94-1.94v-6A.51.51,0,0,0,19.93,12Z"/><path d="M16.43,6.15l-5.28,5.28a.51.51,0,0,0,0,.71l.71.71a.51.51,0,0,0,.71,0l5.28-5.29,1.87,1.88a.42.42,0,0,0,.72-.27l0-5.15A.42.42,0,0,0,20,3.57H14.83a.42.42,0,0,0-.27.72Z"/></svg>