<svg id="Layer_1" data-name="Layer 1" xmlns="http://www.w3.org/2000/svg" viewBox="0 0 24 24"><path d="M14.21,13.15a2.59,2.59,0,0,1-.44.59l-.09.08a2.28,2.28,0,0,1-.5.36A2.37,2.37,0,0,1,12,14.5,2.5,2.5,0,0,1,9.5,12a2.37,2.37,0,0,1,.32-1.18,2.28,2.28,0,0,1,.36-.5l.08-.09a2.59,2.59,0,0,1,.59-.44L7.4,6.34A.75.75,0,0,0,6.34,7.4L7.53,8.59A16,16,0,0,0,4,12s3.58,5,8,5a7.06,7.06,0,0,0,3.14-.8l1.46,1.46a.75.75,0,1,0,1.06-1.06Z"/><path d="M12,7a6.15,6.15,0,0,0-1.29.15l7.16,7.16A16.56,16.56,0,0,0,20,12S16.42,7,12,7Z"/></svg>