<svg fill="none" height="24" viewBox="0 0 24 24" width="24" xmlns="http://www.w3.org/2000/svg"><path clip-rule="evenodd" d="m4.50006 12c0-4.14214 3.35787-7.5 7.50004-7.5 4.1421 0 7.5 3.35786 7.5 7.5 0 4.1421-3.3579 7.5-7.5 7.5-4.14217 0-7.50004-3.3579-7.50004-7.5zm7.50004-9c-4.9706 0-9.00004 4.02944-9.00004 9 0 4.9706 4.02944 9 9.00004 9 4.9705 0 9-4.0294 9-9 0-4.97056-4.0295-9-9-9zm-2.75004 7.5c.69036 0 1.25004-.55964 1.25004-1.25s-.55968-1.25-1.25004-1.25c-.69035 0-1.25.55964-1.25 1.25s.55965 1.25 1.25 1.25zm6.75004-1.25c0 .69036-.5597 1.25-1.25 1.25-.6904 0-1.25-.55964-1.25-1.25s.5596-1.25 1.25-1.25c.6903 0 1.25.55964 1.25 1.25zm-7.30159 4.476-.00366-.0084-.00011-.0003c-.15532-.3818-.59003-.5669-.97322-.4137-.38459.1539-.57165.5904-.41782.9749l.69636-.2785c-.69636.2785-.69621.2789-.69606.2793l.00032.0008.00071.0017.00171.0042.00464.0112c.00362.0087.00833.0197.01416.0329.01165.0265.02779.0619.04872.105.04179.086.10296.2033.18581.3414.16505.2751.42.6392.78466 1.0038.73863.7387 1.92117 1.4697 3.65537 1.4697 1.7341 0 2.9167-.731 3.6553-1.4697.3646-.3646.6196-.7287.7847-1.0038.0828-.1381.144-.2554.1858-.3414.0209-.0431.037-.0785.0487-.105.0058-.0132.0105-.0242.0141-.0329l.0047-.0112.0017-.0042.0007-.0017.0003-.0008c.0002-.0004.0003-.0008-.696-.2793l.6963.2785c.1539-.3845-.0332-.821-.4178-.9749-.3832-.1532-.8179.0319-.9732.4137l-.0038.0087c-.0045.0102-.0127.0285-.025.0537-.0246.0507-.065.1288-.1228.2251-.1162.1936-.2987.4545-.5591.7149-.5113.5113-1.3288 1.0303-2.5946 1.0303-1.2659 0-2.08333-.519-2.59471-1.0303-.26034-.2604-.44289-.5213-.55908-.7149-.05779-.0963-.09818-.1744-.12279-.2251-.01228-.0252-.02055-.0435-.02501-.0537z" fill="#000" fill-rule="evenodd"/></svg>