<svg viewBox="0 0 24 24" xmlns="http://www.w3.org/2000/svg"><path d="m8 18.75h-1.5c-.69 0-1.25-.56-1.25-1.25v-12c0-.69.56-1.25 1.25-1.25h3.75v4.75c0 .41.34.75.75.75h4.8c.1.29.37.5.7.5.41 0 .75-.34.75-.75v-.5c0-.1-.02-.2-.06-.29s-.09-.17-.16-.24l-5.5-5.5c-.07-.07-.15-.12-.24-.16s-.19-.06-.29-.06h-4.5c-1.52 0-2.75 1.23-2.75 2.75v12c0 1.52 1.23 2.75 2.75 2.75h1.5c.41 0 .75-.34.75-.75s-.34-.75-.75-.75zm3.75-13.44 2.94 2.94h-2.94zm7.86 6.06c-.38-.38-.94-.61-1.52-.62-.6-.03-1.17.2-1.55.59l-6.39 6.4c-.13.13-.2.29-.22.47l-.18 2.23c-.02.22.06.44.22.59.14.14.33.22.53.22h.07l2.25-.21c.17-.02.34-.09.46-.22l6.39-6.4c.8-.79.77-2.22-.06-3.05zm-1 1.99-6.2 6.21-1.09.1.08-1.06 6.2-6.21c.1-.1.28-.14.46-.15.2 0 .38.07.49.18.24.23.27.72.06.93z"/></svg>