<svg fill="none" height="24" viewBox="0 0 24 24" width="24" xmlns="http://www.w3.org/2000/svg"><path clip-rule="evenodd" d="m8 3.25c-1.51421 0-2.75 1.23579-2.75 2.75v12c0 1.5142 1.23579 2.75 2.75 2.75h8c1.5142 0 2.75-1.2358 2.75-2.75v-8.5c0-.19891-.079-.38968-.2197-.53033l-5.5-5.5c-.1406-.14065-.3314-.21967-.5303-.21967zm-1.25 2.75c0-.68579.56421-1.25 1.25-1.25h3.75v4.75c0 .41421.3358.75.75.75h4.75v7.75c0 .6858-.5642 1.25-1.25 1.25h-8c-.68579 0-1.25-.5642-1.25-1.25zm9.4393 2.75-2.9393-2.93934v2.93934zm-.9393 6.25c0 .4142-.3358.75-.75.75h-1.75v1.75c0 .4142-.3358.75-.75.75s-.75-.3358-.75-.75v-1.75h-1.75c-.41421 0-.75-.3358-.75-.75s.33579-.75.75-.75h1.75v-1.75c0-.4142.3358-.75.75-.75s.75.3358.75.75v1.75h1.75c.4142 0 .75.3358.75.75z" fill="#000" fill-rule="evenodd"/></svg>