<svg viewBox="0 0 24 24" xmlns="http://www.w3.org/2000/svg"><path d="m18.53 9-5.53-5.53a.75.75 0 0 0 -.53-.22h-4.47a2.75 2.75 0 0 0 -2.75 2.75v12a2.75 2.75 0 0 0 2.75 2.75h8a2.75 2.75 0 0 0 2.75-2.75v-8.5a.75.75 0 0 0 -.22-.5zm-5.28-3.19 2.94 2.94h-2.94zm2.75 13.44h-8a1.25 1.25 0 0 1 -1.25-1.25v-12a1.25 1.25 0 0 1 1.25-1.25h3.75v4.75a.76.76 0 0 0 .75.75h4.75v7.75a1.25 1.25 0 0 1 -1.25 1.25z"/><path d="m13.49 14.85a3.15 3.15 0 0 1 -1.31-1.66 4.44 4.44 0 0 0 .19-2 .8.8 0 0 0 -1.52-.19 5 5 0 0 0 .25 2.4 29 29 0 0 1 -1.27 2.6c-.71.4-1.68 1-1.83 1.69-.12.56.93 2 2.72-1.12a18.58 18.58 0 0 1 2.44-.72 4.72 4.72 0 0 0 2 .61.82.82 0 0 0 .62-1.38c-.42-.43-1.67-.31-2.29-.23zm-4.78 3a4.32 4.32 0 0 1 1.09-1.24c-.68 1.08-1.09 1.27-1.09 1.25zm2.92-6.81c.26 0 .24 1.15.06 1.46a3.07 3.07 0 0 1 -.06-1.45zm-.87 4.88a14.76 14.76 0 0 0 .88-1.92 3.88 3.88 0 0 0 1.08 1.26 12.35 12.35 0 0 0 -1.96.67zm4.7-.18s-.18.22-1.33-.28c1.25-.08 1.46.21 1.33.29z"/></svg>