<svg viewBox="0 0 24 24" xmlns="http://www.w3.org/2000/svg"><path d="m18.53 8.97-5.5-5.5c-.14-.14-.33-.22-.53-.22h-4.5c-1.52 0-2.75 1.23-2.75 2.75v12c0 1.52 1.23 2.75 2.75 2.75h8c1.52 0 2.75-1.23 2.75-2.75v-8.5c0-.2-.08-.39-.22-.53zm-5.28-3.16 2.94 2.94h-2.94zm2.75 13.44h-8c-.69 0-1.25-.56-1.25-1.25v-12c0-.69.56-1.25 1.25-1.25h3.75v4.75c0 .41.34.75.75.75h4.75v7.75c0 .69-.56 1.25-1.25 1.25zm.22-6.53-1.5 5c-.09.3-.37.52-.69.53-.01 0-.02 0-.03 0-.31 0-.58-.19-.7-.47l-1.3-3.26-1.3 3.26c-.12.3-.41.49-.73.47-.32-.01-.59-.23-.69-.53l-1.5-5c-.12-.4.11-.82.5-.93.4-.12.81.11.93.5l.88 2.94 1.2-3.01c.23-.57 1.17-.57 1.39 0l1.2 3.01.88-2.94c.12-.4.54-.62.93-.5.4.12.62.54.5.93z"/></svg>