<svg id="Layer_1" data-name="Layer 1" xmlns="http://www.w3.org/2000/svg" viewBox="0 0 24 24"><path d="M15,8h2.5c.55,0,.5-.45.5-1V6.83L15.17,4H15c-.55,0-1,0-1,.5V7A1,1,0,0,0,15,8Z"/><path d="M11.63,13.48a15.49,15.49,0,0,1-.88,2,10.66,10.66,0,0,1,2-.68A4.08,4.08,0,0,1,11.63,13.48Z"/><path d="M11.62,10.54A3,3,0,0,0,11.69,12C11.86,11.69,11.89,10.54,11.62,10.54Z"/><path d="M14.13,15c1.15.49,1.33.28,1.33.28S15.38,14.89,14.13,15Z"/><path d="M8.7,17.38s.41-.17,1.08-1.26A4.5,4.5,0,0,0,8.7,17.38Z"/><path d="M14,9a1,1,0,0,1-1-1V4H7A1,1,0,0,0,6,5V19a1,1,0,0,0,1,1H17a1,1,0,0,0,1-1V9Zm1.18,7a4.72,4.72,0,0,1-2-.61,17.48,17.48,0,0,0-2.46.73C9.93,17.44,9.37,18,8.81,18a1,1,0,0,1-.67-.31C7.54,17,9,16,9.84,15.56h0c.37-.66.91-1.82,1.27-2.68a5.23,5.23,0,0,1-.25-2.41.78.78,0,0,1,1.49.21,4.5,4.5,0,0,1-.19,2,3.1,3.1,0,0,0,1.33,1.68c.6-.08,1.86-.2,2.3.23A.81.81,0,0,1,15.18,16Z"/></svg>