<svg fill="none" height="24" viewBox="0 0 24 24" width="24" xmlns="http://www.w3.org/2000/svg"><path clip-rule="evenodd" d="m5.25 6c0-1.51421 1.23579-2.75 2.75-2.75h4.5c.1989 0 .3897.07902.5303.21967l5.5 5.5c.1407.14065.2197.33142.2197.53033v8.5c0 1.5142-1.2358 2.75-2.75 2.75h-8c-1.51421 0-2.75-1.2358-2.75-2.75zm2.75-1.25c-.68579 0-1.25.56421-1.25 1.25v12c0 .6858.56421 1.25 1.25 1.25h8c.6858 0 1.25-.5642 1.25-1.25v-7.75h-4.75c-.4142 0-.75-.33579-.75-.75v-4.75zm5.25 1.06066 2.9393 2.93934h-2.9393zm-.7197 6.15904c-.2929-.2929-.7677-.2929-1.0606 0l-2.00003 2c-.29289.2929-.29289.7677 0 1.0606s.76773.2929 1.06063 0l.7197-.7196v3.1893c0 .4142.3358.75.75.75s.75-.3358.75-.75v-3.1893l.7197.7196c.2929.2929.7677.2929 1.0606 0s.2929-.7677 0-1.0606z" fill="#000" fill-rule="evenodd"/></svg>