<svg id="Layer_1" data-name="Layer 1" xmlns="http://www.w3.org/2000/svg" viewBox="0 0 24 24"><path d="M15,8h2.5c.55,0,.5-.45.5-1V6.83L15.17,4H15c-.55,0-1,0-1,.5V7A1,1,0,0,0,15,8Z"/><path d="M14,9a1,1,0,0,1-1-1V4H7A1,1,0,0,0,6,5V19a1,1,0,0,0,1,1H17a1,1,0,0,0,1-1V9Zm.55,8.5H13.47a.47.47,0,0,1-.4-.23c-.85-1.52-.51-1-1.07-2.1a19.84,19.84,0,0,1-1.07,2.1.45.45,0,0,1-.39.23H9.45a.44.44,0,0,1-.39-.66L10.8,14,9.06,11.16a.44.44,0,0,1,.39-.66h1.09a.45.45,0,0,1,.39.23A22.25,22.25,0,0,1,12,12.83a19.5,19.5,0,0,1,1.08-2.1.45.45,0,0,1,.39-.23h1.08a.44.44,0,0,1,.39.66c-.6,1-1.71,2.8-1.74,2.84l1.74,2.84A.44.44,0,0,1,14.55,17.5Z"/></svg>