<svg viewBox="0 0 24 24" xmlns="http://www.w3.org/2000/svg"><path d="m20.17 3.91a.76.76 0 0 0 -.67-.41h-7a.75.75 0 0 0 0 1.5h5.5l-1.85 2.56a.74.74 0 1 0 1.2.88l2.75-3.75a.73.73 0 0 0 .07-.78z"/><path d="m8.65 3.72s0 0-.05 0a.76.76 0 0 0 -.19-.12.79.79 0 0 0 -.22-.05h-3.69a.76.76 0 0 0 -.67.41.73.73 0 0 0 .07.78l5.35 7.26v7.75a.76.76 0 0 0 .75.75h4a.76.76 0 0 0 .75-.75v-7.75l.06-.09 3.66 3.62a.74.74 0 0 0 .53.22.73.73 0 0 0 .53-.22.75.75 0 0 0 0-1.06zm4.75 7.59a.71.71 0 0 0 -.15.44v7.25h-2.5v-7.25a.71.71 0 0 0 -.15-.44l-4.6-6.31h1.82l5.91 5.85z"/></svg>