<svg xmlns="http://www.w3.org/2000/svg" viewBox="0 0 24 24"><g id="filter-slash"><path d="M14,20.75H10A.76.76,0,0,1,9.25,20V12.25L3.89,4.94A.75.75,0,0,1,4.5,3.75H8a.75.75,0,0,1,0,1.5H6l4.62,6.31a.71.71,0,0,1,.15.44v7.25h2.5V12a.77.77,0,0,1,.14-.44l.55-.75A.74.74,0,0,1,15,10.65a.73.73,0,0,1,.16,1l-.4.56V20A.76.76,0,0,1,14,20.75Z"/><path d="M16.75,9a.73.73,0,0,1-.44-.15.74.74,0,0,1-.17-1L18,5.25H12.5a.75.75,0,0,1,0-1.5h7a.76.76,0,0,1,.67.41.73.73,0,0,1-.07.78L17.35,8.69A.74.74,0,0,1,16.75,9Z"/><path d="M19,16a.74.74,0,0,1-.53-.22l-12-12A.75.75,0,0,1,7.53,2.72l12,12a.75.75,0,0,1,0,1.06A.74.74,0,0,1,19,16Z"/></g></svg>