<svg viewBox="0 0 24 24" xmlns="http://www.w3.org/2000/svg"><path d="m19.42 4.45a.74.74 0 0 0 -.69-.08 13.82 13.82 0 0 1 -3.73 1 8.46 8.46 0 0 1 -2.3-1 8.84 8.84 0 0 0 -3-1.16 20 20 0 0 0 -5 1.1.75.75 0 0 0 -.51.71v14.98a.75.75 0 0 0 1.5 0v-5.85a15.79 15.79 0 0 1 3.86-.87 8.54 8.54 0 0 1 2.4 1 9.11 9.11 0 0 0 2.82 1.13h.23a16 16 0 0 0 4.21-1.13.75.75 0 0 0 .48-.7v-8.51a.74.74 0 0 0 -.27-.62zm-1.17 8.63a12.06 12.06 0 0 1 -3.25.84 8.46 8.46 0 0 1 -2.3-1 8.84 8.84 0 0 0 -3-1.16h-.2a16.31 16.31 0 0 0 -3.78.8v-7a15.79 15.79 0 0 1 3.86-.87 8.54 8.54 0 0 1 2.4 1 9.11 9.11 0 0 0 2.82 1.13 10.27 10.27 0 0 0 3.42-.73z"/></svg>