<svg fill="none" height="24" viewBox="0 0 24 24" width="24" xmlns="http://www.w3.org/2000/svg"><path clip-rule="evenodd" d="m5.25 7.5c0-.68579.56421-1.25 1.25-1.25h2.15505l2.77555 3.23809c.1424.16624.3505.26191.5694.26191h5.5c.6858 0 1.25.5642 1.25 1.25v5.5c0 .6858-.5642 1.25-1.25 1.25h-11c-.68579 0-1.25-.5642-1.25-1.25zm1.25-2.75c-1.51421 0-2.75 1.23579-2.75 2.75v9c0 1.5142 1.23579 2.75 2.75 2.75h11c1.5142 0 2.75-1.2358 2.75-2.75v-5.5c0-1.51421-1.2358-2.75-2.75-2.75h-5.155l-2.77556-3.23809c-.14248-.16624-.3505-.26191-.56944-.26191zm5.5 6c.4142 0 .75.3358.75.75v1.25h1.25c.4142 0 .75.3358.75.75s-.3358.75-.75.75h-1.25v1.25c0 .4142-.3358.75-.75.75s-.75-.3358-.75-.75v-1.25h-1.25c-.41421 0-.75-.3358-.75-.75s.33579-.75.75-.75h1.25v-1.25c0-.4142.3358-.75.75-.75z" fill="#000" fill-rule="evenodd"/></svg>