<svg version="1.1" id="Uploaded to svgrepo.com" xmlns="http://www.w3.org/2000/svg" xmlns:xlink="http://www.w3.org/1999/xlink" x="0px" y="0px"
	 width="32px" height="32px" viewBox="0 0 32 32" style="enable-background:new 0 0 32 32;" xml:space="preserve">
<style type="text/css">
	.feather_een{fill:#0B1719;}
</style>
<path class="feather_een" d="M31.812,18.406l-2.127-9.255C28.876,6.668,26.592,5,24,5c-1.713,0-3.308,0.723-4.449,2h-7.102
	C11.308,5.723,9.713,5,8,5C5.408,5,3.124,6.668,2.316,9.151L0.188,18.41C0.063,18.942,0,19.479,0,20c0,3.86,3.14,7,7,7
	c2.714,0,5.17-1.581,6.319-4h5.363c1.149,2.419,3.605,4,6.319,4c3.86,0,7-3.14,7-7C32,19.479,31.937,18.942,31.812,18.406z M25,26
	c-2.611,0-4.827-1.671-5.651-4h-6.698c-0.825,2.329-3.04,4-5.651,4c-3.314,0-6-2.686-6-6c0-0.471,0.06-0.927,0.162-1.366
	l2.104-9.173C3.919,7.458,5.779,6,8,6c1.63,0,3.065,0.792,3.977,2h8.045C20.935,6.792,22.37,6,24,6c2.221,0,4.081,1.458,4.733,3.461
	l2.104,9.173C30.94,19.073,31,19.529,31,20C31,23.314,28.314,26,25,26z M20,11c-1.105,0-2,0.895-2,2c0,1.105,0.895,2,2,2
	s2-0.895,2-2C22,11.895,21.105,11,20,11z M20,14c-0.551,0-1-0.449-1-1s0.449-1,1-1s1,0.449,1,1S20.551,14,20,14z M25,10
	c-1.105,0-2,0.895-2,2c0,1.105,0.895,2,2,2s2-0.895,2-2C27,10.895,26.105,10,25,10z M25,13c-0.551,0-1-0.449-1-1s0.449-1,1-1
	s1,0.449,1,1S25.551,13,25,13z M20,16c-1.105,0-2,0.895-2,2c0,1.105,0.895,2,2,2s2-0.895,2-2C22,16.895,21.105,16,20,16z M20,19
	c-0.551,0-1-0.449-1-1s0.449-1,1-1s1,0.449,1,1S20.551,19,20,19z M25,15c-1.105,0-2,0.895-2,2c0,1.105,0.895,2,2,2s2-0.895,2-2
	C27,15.895,26.105,15,25,15z M25,18c-0.551,0-1-0.449-1-1s0.449-1,1-1s1,0.449,1,1S25.551,18,25,18z M11,13h-1v-1
	c0-0.552-0.448-1-1-1H7c-0.552,0-1,0.448-1,1v1H5c-0.552,0-1,0.448-1,1v2c0,0.552,0.448,1,1,1h1v1c0,0.552,0.448,1,1,1h2
	c0.552,0,1-0.448,1-1v-1h1c0.552,0,1-0.448,1-1v-2C12,13.448,11.552,13,11,13z M11,16H9v2H7v-2H5v-2h2v-2h2v2h2V16z"/>
</svg>