<?xml version="1.0" encoding="UTF-8" standalone="no"?>
<svg
   version="1.1"
   id="Uploaded to svgrepo.com"
   x="0px"
   y="0px"
   width="24"
   height="24"
   viewBox="0 0 24 24"
   xml:space="preserve"
   sodipodi:docname="game.svg"
   inkscape:version="1.1.1 (3bf5ae0d25, 2021-09-20)"
   xmlns:inkscape="http://www.inkscape.org/namespaces/inkscape"
   xmlns:sodipodi="http://sodipodi.sourceforge.net/DTD/sodipodi-0.dtd"
   xmlns="http://www.w3.org/2000/svg"
   xmlns:svg="http://www.w3.org/2000/svg"><defs
   id="defs9" /><sodipodi:namedview
   id="namedview7"
   pagecolor="#ffffff"
   bordercolor="#666666"
   borderopacity="1.0"
   inkscape:pageshadow="2"
   inkscape:pageopacity="0.0"
   inkscape:pagecheckerboard="0"
   showgrid="false"
   inkscape:zoom="28.461048"
   inkscape:cx="5.3933362"
   inkscape:cy="14.194839"
   inkscape:window-width="1920"
   inkscape:window-height="1015"
   inkscape:window-x="1920"
   inkscape:window-y="0"
   inkscape:window-maximized="1"
   inkscape:current-layer="Uploaded to svgrepo.com"
   width="24px" />
<style
   type="text/css"
   id="style2">
	.feather_een{fill:#0B1719;}
</style>
<path
   class="feather_een"
   d="M 23.367828,14.314807 21.839096,7.6629835 C 21.257644,5.8783829 19.616071,4.6795454 17.753128,4.6795454 c -1.231179,0 -2.37755,0.51964 -3.197619,1.4374551 H 9.4511067 C 8.6310389,5.1991854 7.4846683,4.6795454 6.2534882,4.6795454 c -1.8629418,0 -3.5045155,1.1988375 -4.0852473,2.9834381 L 0.63878865,14.317682 c -0.0898409,0.382362 -0.13512078,0.76832 -0.13512078,1.142776 0,2.774289 2.25680443,5.031093 5.03109273,5.031093 1.9506263,0 3.715821,-1.136309 4.5416394,-2.87491 h 3.854536 c 0.825819,1.738601 2.591013,2.87491 4.541639,2.87491 2.774289,0 5.031093,-2.256804 5.031093,-5.031093 -7.19e-4,-0.374456 -0.046,-0.760414 -0.13584,-1.145651 z m -4.895972,5.458017 c -1.876596,0 -3.469298,-1.200994 -4.061528,-2.87491 H 9.59629 c -0.5929501,1.673916 -2.1849319,2.87491 -4.0615294,2.87491 -2.3818631,0 -4.3123652,-1.930502 -4.3123652,-4.312366 0,-0.338521 0.043124,-0.66626 0.1164338,-0.981782 L 2.851032,7.8857891 C 3.3203611,6.4461777 4.6571943,5.398273 6.2534882,5.398273 c 1.1715255,0 2.2028997,0.5692322 2.8583795,1.437455 h 5.7821633 c 0.656199,-0.8682228 1.687571,-1.437455 2.859097,-1.437455 1.596294,0 2.933128,1.0479047 3.401739,2.4875161 l 1.512202,6.5928869 c 0.07403,0.315522 0.117152,0.643261 0.117152,0.981782 0,2.381864 -1.930502,4.312366 -4.312365,4.312366 z M 14.878219,8.9919106 c -0.794194,0 -1.437454,0.6432613 -1.437454,1.4374544 0,0.794195 0.64326,1.437455 1.437454,1.437455 0.794193,0 1.437455,-0.64326 1.437455,-1.437455 0,-0.7941931 -0.643262,-1.4374544 -1.437455,-1.4374544 z m 0,2.1561824 c -0.396019,0 -0.718727,-0.322708 -0.718727,-0.718728 0,-0.396018 0.322708,-0.7187265 0.718727,-0.7187265 0.396018,0 0.718727,0.3227085 0.718727,0.7187265 0,0.39602 -0.322709,0.718728 -0.718727,0.718728 z m 3.593637,-2.8749103 c -0.794193,0 -1.437455,0.6432612 -1.437455,1.4374558 0,0.7941935 0.643262,1.4374545 1.437455,1.4374545 0.794194,0 1.437455,-0.643261 1.437455,-1.4374545 0,-0.7941946 -0.643261,-1.4374558 -1.437455,-1.4374558 z m 0,2.1561823 c -0.396018,0 -0.718728,-0.322708 -0.718728,-0.7187265 0,-0.3960195 0.32271,-0.7187279 0.718728,-0.7187279 0.396019,0 0.718727,0.3227084 0.718727,0.7187279 0,0.3960185 -0.322708,0.7187265 -0.718727,0.7187265 z m -3.593637,2.156183 c -0.794194,0 -1.437454,0.643261 -1.437454,1.437455 0,0.794194 0.64326,1.437455 1.437454,1.437455 0.794193,0 1.437455,-0.643261 1.437455,-1.437455 0,-0.794194 -0.643262,-1.437455 -1.437455,-1.437455 z m 0,2.156183 c -0.396019,0 -0.718727,-0.322709 -0.718727,-0.718728 0,-0.396019 0.322708,-0.718727 0.718727,-0.718727 0.396018,0 0.718727,0.322708 0.718727,0.718727 0,0.396019 -0.322709,0.718728 -0.718727,0.718728 z m 3.593637,-2.874911 c -0.794193,0 -1.437455,0.643261 -1.437455,1.437456 0,0.794194 0.643262,1.437455 1.437455,1.437455 0.794194,0 1.437455,-0.643261 1.437455,-1.437455 0,-0.794195 -0.643261,-1.437456 -1.437455,-1.437456 z m 0,2.156183 c -0.396018,0 -0.718728,-0.322708 -0.718728,-0.718727 0,-0.39602 0.32271,-0.718728 0.718728,-0.718728 0.396019,0 0.718727,0.322708 0.718727,0.718728 0,0.396019 -0.322708,0.718727 -0.718727,0.718727 z M 8.4096703,10.429365 H 7.6909433 V 9.7106385 c 0,-0.396738 -0.3219898,-0.7187279 -0.7187278,-0.7187279 H 5.5347606 c -0.3967376,0 -0.7187276,0.3219899 -0.7187276,0.7187279 V 10.429365 H 4.0973055 c -0.3967376,0 -0.7187276,0.321991 -0.7187276,0.718728 v 1.437455 c 0,0.396738 0.32199,0.718728 0.7187276,0.718728 H 4.816033 v 0.718727 c 0,0.396737 0.32199,0.718728 0.7187276,0.718728 h 1.4374549 c 0.396738,0 0.7187278,-0.321991 0.7187278,-0.718728 v -0.718727 h 0.718727 c 0.3967381,0 0.718728,-0.32199 0.718728,-0.718728 v -1.437455 c 0,-0.396737 -0.3219899,-0.718728 -0.718728,-0.718728 z m 0,2.156183 H 6.9722155 v 1.437455 H 5.5347606 V 12.585548 H 4.0973055 V 11.148093 H 5.5347606 V 9.7106385 h 1.4374549 v 1.4374545 h 1.4374548 z"
   id="path4"
   style="fill:#000000;stroke-width:0.718728" />
</svg>
