<svg fill="none" height="24" viewBox="0 0 24 24" width="24" xmlns="http://www.w3.org/2000/svg"><path clip-rule="evenodd" d="m7.14947 8.07313 1.38384 1.39954c.29124.29454.28856.76943-.00598 1.06063s-.7694.2886-1.06064-.006l-1.45471-1.47118c-1.0328 1.11688-1.60028 2.47048-1.90944 3.63128-.16225.6092-.25011 1.1535-.29753 1.5626h1.69499c.41421 0 .75.3358.75.75s-.33579.75-.75.75h-1.75v1.25c0 .1381.11193.25.25.25h3.68934l5.28036-5.2803c.2929-.2929.7677-.2929 1.0606 0s.2929.7677 0 1.0606l-4.21964 4.2197h10.18934c.1381 0 .25-.1119.25-.25v-1.25h-1.75c-.4142 0-.75-.3358-.75-.75s.3358-.75.75-.75h1.695c-.0184-.1584-.0428-.3374-.0754-.533-.1325-.7946-.3959-1.8426-.9154-2.8816-.3073-.6146-.7016-1.22113-1.2082-1.77071l-1.4657 1.46561c-.2929.2929-.7677.2929-1.0606 0s-.2929-.76774 0-1.06063l1.3902-1.39018c-.0241-.01652-.0484-.03292-.0728-.0492-.9914-.66091-2.2988-1.1482-4.0371-1.25728v1.72699c0 .41421-.3358.75-.75.75s-.75-.33579-.75-.75v-1.727c-1.76932.11099-3.09646.61401-4.10053 1.30013zm13.85053 6.92687c.75 0 .75-.0004.75-.0008v-.0038l-.0001-.0079-.0003-.0254c-.0003-.0212-.001-.0508-.0022-.0882-.0025-.0747-.0074-.1809-.0169-.3141-.019-.266-.0566-.6411-.1313-1.0893-.1488-.8929-.4479-2.0949-1.0534-3.3059-.607-1.21398-1.5292-2.45077-2.9266-3.38239-1.4022-.93475-3.238-1.53221-5.6192-1.53221-2.9102 0-4.99793.89277-6.4722 2.18622-1.66343 1.4594-2.47538 3.36568-2.87473 4.86518-.20089.7542-.30133 1.42-.35173 1.8993-.02525.2401-.03807.4347-.04459.5716-.00326.0686-.00495.1228-.00582.1612-.00044.0192-.00067.0345-.00079.0456l-.00012.0136-.00002.0045v.0016c0 .0003 0 .0012.75.0012h-.75v2c0 .9665.7835 1.75 1.75 1.75h16c.9665 0 1.75-.7835 1.75-1.75v-2.0008z" fill="#000" fill-rule="evenodd"/></svg>