<svg viewBox="0 0 24 24" xmlns="http://www.w3.org/2000/svg"><path d="m9.35 16.88c0 .07-.07.12-.17.12s-.18 0-.18-.12.08-.12.17-.12.18.05.18.12zm-1-.15c0 .07 0 .15.14.17a.15.15 0 0 0 .2-.07c0-.07 0-.14-.14-.17s-.18 0-.2.07zm1.42-.05c-.09 0-.15.08-.14.16s.09.11.19.09.15-.09.14-.16-.09-.1-.19-.09zm2.13-12.68a7.83 7.83 0 0 0 -7.9 8.07 8.29 8.29 0 0 0 5.47 7.93c.41.07.56-.19.56-.4s0-1.34 0-2c0 0-2.26.5-2.74-1 0 0-.36-1-.89-1.21 0 0-.74-.52.05-.51a1.67 1.67 0 0 1 1.24.85 1.69 1.69 0 0 0 2.36.69 1.83 1.83 0 0 1 .51-1.11c-1.8-.21-3.62-.47-3.62-3.66a2.54 2.54 0 0 1 .76-1.95 3.21 3.21 0 0 1 .08-2.24c.68-.22 2.23.89 2.23.89a7.46 7.46 0 0 1 4.05 0s1.55-1.11 2.23-.89a3.14 3.14 0 0 1 .08 2.24 2.61 2.61 0 0 1 .83 1.95c0 3.2-1.9 3.45-3.7 3.66a2 2 0 0 1 .5 1.5v2.77a.42.42 0 0 0 .56.4 8.22 8.22 0 0 0 5.44-7.91 8 8 0 0 0 -8.1-8.07zm-4.76 11.41s0 .11 0 .17a.12.12 0 0 0 .17 0s0-.11 0-.18-.13-.03-.17.01zm-.35-.27s0 .1.07.13a.09.09 0 0 0 .14 0s0-.1-.07-.13-.12-.03-.14 0zm1 1.18s0 .14 0 .21.17.08.21 0 0-.14 0-.21-.13-.05-.17 0zm-.37-.49s0 .12 0 .2.14.11.19.08a.16.16 0 0 0 0-.21c-.05-.08-.13-.11-.19-.07z"/></svg>