<svg id="Layer_1" data-name="Layer 1" xmlns="http://www.w3.org/2000/svg" viewBox="0 0 24 24"><path d="M12,4a8.1,8.1,0,0,0-8,8.2A8.19,8.19,0,0,0,9.47,20h.14a.39.39,0,0,0,.41-.41c0-.19,0-.71,0-1.39a3.72,3.72,0,0,1-.81.09A1.86,1.86,0,0,1,7.31,17.1a2.12,2.12,0,0,0-.89-1.2c-.7-.49,0-.51,0-.51h0a1.71,1.71,0,0,1,1.23.85,1.58,1.58,0,0,0,1.41.9,2.26,2.26,0,0,0,.92-.22,1.77,1.77,0,0,1,.51-1.09c-1.78-.21-3.65-.91-3.65-4.06a3.24,3.24,0,0,1,.82-2.2A3.06,3.06,0,0,1,7.79,7.4a.55.55,0,0,1,.18,0,3.8,3.8,0,0,1,2,.86,7.38,7.38,0,0,1,4,0,3.8,3.8,0,0,1,2-.86.55.55,0,0,1,.18,0,3,3,0,0,1,.08,2.17,3.24,3.24,0,0,1,.82,2.2c0,3.15-1.87,3.85-3.65,4.05A2,2,0,0,1,14,17.34c0,1.1,0,2,0,2.25a.39.39,0,0,0,.41.41h.14A8.2,8.2,0,0,0,20,12.2,8.1,8.1,0,0,0,12,4Z"/></svg>