<svg id="Layer_1" data-name="Layer 1" xmlns="http://www.w3.org/2000/svg" viewBox="0 0 24 24"><title>globe</title><path d="M12,4a8,8,0,1,0,8,8A8,8,0,0,0,12,4Zm5.93,5.35V9.4l-.28-.3V8.83l-.27-.23-.09-.1H17l.09.28.38.2.06.07-.08,0v.22l-.18.08-.15,0L17,9.22h.26l.06-.09-.55-.38L16.7,8.6l-.22.21-.23-.05-.35.45-.07.18-.23,0h-.33l-.2-.09L15,8.93l.07-.19.33-.07.37.07.05-.2-.16,0,.05-.31.37-.06.26-.37.27,0,.24,0h0A6.69,6.69,0,0,1,17.93,9.35ZM16.68,7.5l-.06,0-.07-.17Zm-.24-.24h-.1V7.16Zm-.73.41-.16-.1-.11-.07V7.39l.07-.11.23,0,.06.28.13.2.08.1.15.06L16,8.05l-.28,0h-.2l0-.24.17,0Zm-.19,0v.15l-.3.21h-.16V7.83l.14-.23.19,0ZM8.76,6.37h0l0,.12.48,0-.06-.15-.4,0A6.14,6.14,0,0,1,9.44,6l0,0,.31,0L10,5.92l.15.07-.27.25H9.52a1.07,1.07,0,0,1,0,.25H10l0-.12.3,0,0-.18-.18,0L10.26,6l.13,0,.48,0-.26.24,0,.18.27,0V6.09L11.17,6l.46-.06.67.3v.25l.22.06-.11.2H12.1L12,6.94l-.69-.16.55-.29-.21-.18-.47.06,0,0h0L11,6.56l-.22,0,0,.11.08,0v0l-.18,0v.1H10.5l0-.21-.31.09-.64.38.07.26.18.12.36,0V8l.16,0,.15-.32.38-.12V7L11,6.89l.51.11,0,.33h.13L12,7.14l0,.42.27.17V8L12,8.07v.08l.32.14v.18h-.09l-.4-.12V8.22L12,8.14V8l-.12,0,0,.11-.22,0h0v0H11.5L11.44,8l-.07,0h-.16l-.07.06v.13l.13,0,.13,0h0l-.12.14-.06-.07-.11,0-.32.3,0,0-.47.26-.44.46,0,.2-.44.3-.21.22,0,.43-.3-.14V10.1H8.09l-.43.22-.19.35-.08.27.13.27.34,0,.55-.36.05.18-.17.32.41.07.05.64.57.1.36-.42.44.09.15.21.42,0,0-.13.23.12.26.41h.45l.17.29,0,.36.5.19H13l.18.31.28.08,0,.25-.31.39-.09.86-.27.22H12.3l-.14.24.1.44-.45.57-.14.27-.42.2-.28,0v.12l.19.06,0,.12-.18.17.11.14h.21v.17l-.06.16v.13l.29.24c-.25,0-.49,0-.73-.09l-.14-.13-.33-.58,0-.56-.25-.33.1-.56-.14,0V15s-.42-.31-.44-.31l-.22-.06,0-.23-.54-.68.06-.24,0-.4.37-.26-.05-.44-.55-.05L8.2,11.8l-.3-.09-.19,0,0-.18-.25,0v.1l-.62-.15L6.6,11l.11-.18-.4-.58-.07-.42H6.08l.06.41.27.42,0,.17-.23,0-.28-.48V9.86A6.55,6.55,0,0,1,8.76,6.37Zm3,2.07,0,.09h-.1l0,.09-.07,0h-.13v0h0V8.53h.2l0-.1h.08Zm-.55.17v.1H11v-.1l.06-.08Zm6.09,7.18-.09-.13v-.57L17,14.88l0-.23.27-.51-.5-.88.05-.6-.45-.05-.16-.17h-.31l-.15.15h-.54v0h-.3l-.68-.78v-.6l.11,0,0-.23h-.16l-.07-.25.79-.57v-.4l.39-.22.16,0h.31L16,9.43l.8-.07v.41l.64.16.12.09h.12V9.8l.36,0,.07.06A6.29,6.29,0,0,1,18.5,12,6.48,6.48,0,0,1,17.27,15.79Z"/></svg>