<svg fill="none" height="24" viewBox="0 0 24 24" width="24" xmlns="http://www.w3.org/2000/svg"><path clip-rule="evenodd" d="m11.473 3.41792c.3341-.15537.7198-.15537 1.054 0l7.7494 3.60313c.9897.46019.9556 1.8789-.0551 2.29097l-.4713.19213v3.81515c0 .4743-.1943.9629-.6086 1.2927-.4029.3206-1.1415.8523-2.1561 1.3442v4.0438c0 .4142-.3358.75-.75.75s-.75-.3358-.75-.75v-3.4372c-1.0089.33-2.1812.5615-3.4853.5615-3.69632 0-6.33318-2.0219-7.20207-2.7869-.37401-.3293-.54794-.792-.54794-1.2403v-3.59295l-.47127-.19213c-1.01074-.41207-1.04486-1.83078-.05511-2.29097zm-5.72301 6.77538 5.71161 2.7491c.3373.1624.7296.165 1.0691.0072l2.9546-1.3738v3.3961c-.9748.3714-2.1528.6524-3.4853.6524-3.15643 0-5.44734-1.7405-6.21084-2.4127-.014-.0123-.03917-.0458-.03917-.1145zm11.23531 4.0677c.5509-.3157.9655-.6185 1.2219-.8226.0147-.0117.0428-.0451.0428-.1191v-3.0988l-1.2647.6404zm-.7444-4.70451 2.4476-1.23944.4356-.17757-7.1241-3.31239-7.12406 3.31239.42855.17471 6.70101 3.22531 2.536-1.1791-2.8891-1.51122c-.3671-.19199-.509-.64517-.317-1.0122s.6452-.50894 1.0122-.31695z" fill="#000" fill-rule="evenodd"/></svg>