<svg fill="none" height="24" viewBox="0 0 24 24" width="24" xmlns="http://www.w3.org/2000/svg"><path clip-rule="evenodd" d="m11.5768 4.23741c-.0977-.09763-.2559-.09763-.3536 0l-2.18577 2.18578c-.09763.09764-.09763.25593 0 .35356l8.18577 8.18575c.0977.0977.2559.0977.3536 0l2.1858-2.1858c.0976-.0976.0976-.2559 0-.3535zm-1.4142-1.06066c.6834-.68342 1.7914-.68342 2.4748 0l8.1858 8.18575c.6834.6835.6834 1.7915 0 2.4749l-2.1858 2.1858c-.6834.6834-1.7914.6834-2.4748 0l-2.3626-2.3626-6.66967 6.6697c-.95564.9556-2.50503.9556-3.46066 0-.95564-.9556-.95564-2.505 0-3.4607l6.66963-6.6696-2.36253-2.36259c-.68341-.68342-.68341-1.79146 0-2.47488zm1.2374 8.08385-6.66967 6.6697c-.36985.3699-.36985.9695 0 1.3393.36985.3699.96949.3699 1.33934 0l6.66963-6.6696z" fill="#000" fill-rule="evenodd"/></svg>