<svg fill="none" height="24" viewBox="0 0 24 24" width="24" xmlns="http://www.w3.org/2000/svg"><path clip-rule="evenodd" d="m5.79876 12.5254c.82417.1418 1.45124.86 1.45124 1.7246v3.1743c0 1.1626-1.11283 2.002-2.23076 1.6826l-1.5-.4285c-.75128-.2147-1.26924-.9014-1.26924-1.6827v-2.1276c0-.6629.3745-1.2689.96738-1.5653l1.0533-.5266c.01616-.2287.045-.531.09655-.8844.11559-.7927.34816-1.8624.82065-2.9424.47266-1.08036 1.19737-2.1977 2.31071-3.04597 1.12321-.85578 2.59781-1.40343 4.50141-1.40343s3.3782.54765 4.5014 1.40343c1.1134.84827 1.8381 1.96561 2.3107 3.04597.4725 1.08.7051 2.1497.8207 2.9424.0515.3534.0804.6557.0965.8844l1.0533.5266c.5929.2964.9674.9024.9674 1.5652v2.1277c0 .7813-.518 1.468-1.2692 1.6827l-1.5.4285c-1.118.3194-2.2308-.52-2.2308-1.6826v-3.1743c0-.8646.6271-1.5828 1.4512-1.7246-.0135-.1264-.0307-.2662-.0527-.4171-.1032-.7074-.3081-1.6377-.7106-2.55767-.4024-.91965-.9902-1.80231-1.8456-2.45405-.8455-.64423-1.9959-1.09658-3.5923-1.09658s-2.7468.45235-3.59234 1.09658c-.85541.65174-1.4432 1.5344-1.84554 2.45405-.40251.91997-.60744 1.85027-.7106 2.55767-.022.1509-.03925.2907-.05276.4171zm13.02424 1.4746h-.323c-.1381 0-.25.112-.25.25v3.1743c0 .1661.159.286.3187.2404l1.5-.4286c.1073-.0307.1813-.1288.1813-.2404v-2.1277c0-.0947-.0535-.1812-.1382-.2236zm-13.64595 0-1.28885.6445c-.0847.0423-.1382.1289-.1382.2236v2.1276c0 .1116.07399.2097.18132.2404l1.5.4286c.1597.0456.31868-.0743.31868-.2404v-3.1743c0-.138-.11193-.25-.25-.25z" fill="#000" fill-rule="evenodd"/></svg>