<svg id="Layer_1" data-name="Layer 1" xmlns="http://www.w3.org/2000/svg" viewBox="0 0 24 24"><path d="M21.64,10.62,12.32,2.69a.51.51,0,0,0-.64,0L2.36,10.62a1,1,0,0,0-.13,1.44,1,1,0,0,0,1.41.13l8-6.91a.49.49,0,0,1,.64,0l8,6.91a1,1,0,0,0,1.41-.13A1,1,0,0,0,21.64,10.62Z"/><path d="M12.33,6.72a.49.49,0,0,0-.66,0L4.51,13A1.49,1.49,0,0,0,4,14.1v5.82a1.5,1.5,0,0,0,1.5,1.5H9.75a.5.5,0,0,0,.5-.5V17.43a1,1,0,0,1,1-1h1.5a1,1,0,0,1,1,1v3.49a.5.5,0,0,0,.5.5H18.5a1.5,1.5,0,0,0,1.5-1.5V14.11A1.54,1.54,0,0,0,19.49,13Z"/></svg>