<?xml version="1.0" encoding="UTF-8"?>
<svg id="hourglass" xmlns="http://www.w3.org/2000/svg" viewBox="0 0 24 24">
  <path d="M18.25,19.25h-.7c-.41-1.21-1.63-4.17-4.52-7.25,2.89-3.08,4.11-6.04,4.52-7.25h.7c.41,0,.75-.34,.75-.75s-.34-.75-.75-.75H5.75c-.41,0-.75,.34-.75,.75s.34,.75,.75,.75h.7c.41,1.21,1.63,4.17,4.52,7.25-2.89,3.08-4.11,6.04-4.52,7.25h-.7c-.41,0-.75,.34-.75,.75s.34,.75,.75,.75h12.5c.41,0,.75-.34,.75-.75s-.34-.75-.75-.75Zm-2.3-14.5c-.49,1.27-1.65,3.68-3.95,6.16-2.31-2.48-3.46-4.89-3.95-6.16h7.91Zm-3.95,8.34c2.31,2.48,3.46,4.89,3.95,6.16h-7.91c.49-1.27,1.65-3.68,3.95-6.16Z"/>
</svg>