<svg viewBox="0 0 24 24" xmlns="http://www.w3.org/2000/svg"><path d="m18.25 19.25h-.66c-.38-1.36-1.55-4.74-4.4-7.25 2.85-2.51 4.02-5.89 4.4-7.25h.66c.41 0 .75-.34.75-.75s-.34-.75-.75-.75h-12.5c-.41 0-.75.34-.75.75s.34.75.75.75h.66c.38 1.36 1.55 4.74 4.4 7.25-2.85 2.51-4.02 5.89-4.4 7.25h-.66c-.41 0-.75.34-.75.75s.34.75.75.75h12.5c.41 0 .75-.34.75-.75s-.34-.75-.75-.75zm-10.27-14.5h8.03c-.45 1.42-1.6 4.25-4.02 6.28-2.42-2.04-3.57-4.86-4.02-6.28zm4.02 8.22c2.42 2.04 3.57 4.86 4.02 6.28h-8.04c.45-1.42 1.6-4.25 4.02-6.28z"/></svg>