<svg id="Layer_1" data-name="Layer 1" xmlns="http://www.w3.org/2000/svg" viewBox="0 0 24 24"><path d="M4,9v8a1,1,0,0,0,1,1H19a1,1,0,0,0,1-1V9Zm4,1a1.42,1.42,0,1,1-1.37,1.41A1.39,1.39,0,0,1,8,10Zm2,5.29a.7.7,0,0,1-.69.71H6.69A.7.7,0,0,1,6,15.29v-1.4a1.43,1.43,0,0,1,.76-1.26,1.67,1.67,0,0,0,2.48,0A1.43,1.43,0,0,1,10,13.89Zm8,.41a.31.31,0,0,1-.3.3H12.3a.31.31,0,0,1-.3-.3v-.4a.31.31,0,0,1,.3-.3h5.4a.31.31,0,0,1,.3.3Zm0-2a.31.31,0,0,1-.3.3H12.3a.31.31,0,0,1-.3-.3v-.4a.31.31,0,0,1,.3-.3h5.4a.31.31,0,0,1,.3.3Zm0-2a.31.31,0,0,1-.3.3H12.3a.31.31,0,0,1-.3-.3v-.4a.31.31,0,0,1,.3-.3h5.4a.31.31,0,0,1,.3.3Z"/><path d="M19,6H5A1,1,0,0,0,4,7V8H20V7A1,1,0,0,0,19,6Z"/></svg>