<svg viewBox="0 0 24 24" xmlns="http://www.w3.org/2000/svg"><path d="m19 18.75h-14a1.76 1.76 0 0 1 -1.75-1.75v-10a1.76 1.76 0 0 1 1.75-1.75h14a1.76 1.76 0 0 1 1.75 1.75v10a1.76 1.76 0 0 1 -1.75 1.75zm-14-12a.25.25 0 0 0 -.25.25v10a.25.25 0 0 0 .25.25h14a.25.25 0 0 0 .25-.25v-10a.25.25 0 0 0 -.25-.25z"/><path d="m9 11.75a2 2 0 1 1 2-2 2 2 0 0 1 -2 2zm0-2.5a.5.5 0 1 0 .5.5.5.5 0 0 0 -.5-.5z"/><path d="m12 15.75a.76.76 0 0 1 -.75-.75c0-.68-.17-1.25-2.25-1.25s-2.25.57-2.25 1.25a.75.75 0 0 1 -1.5 0c0-2.75 2.82-2.75 3.75-2.75s3.75 0 3.75 2.75a.76.76 0 0 1 -.75.75z"/><path d="m17 10.75h-3a.75.75 0 0 1 0-1.5h3a.75.75 0 0 1 0 1.5z"/><path d="m16 13.75h-2a.75.75 0 0 1 0-1.5h2a.75.75 0 0 1 0 1.5z"/></svg>