<svg fill="none" height="24" viewBox="0 0 24 24" width="24" xmlns="http://www.w3.org/2000/svg"><path clip-rule="evenodd" d="m5.24999 3.5c0-.41421.33579-.75.75-.75h12.00001c.4142 0 .75.33579.75.75s-.3358.75-.75.75h-4.9189c.0743.07028.1463.14258.216.2168.7662.81643 1.2246 1.83771 1.3865 2.89431h3.3164c.4142 0 .75.33579.75.75s-.3358.75-.75.75h-3.2836c-.1245 1.14459-.5928 2.26359-1.4193 3.14429-.9867 1.0514-2.4406 1.7168-4.29711 1.7168h-1.06936l7.07567 6.4745c.3056.2796.3266.754.047 1.0596s-.754.3266-1.0596.047l-8.50001-7.7778c-.22827-.2088-.30484-.5364-.1928-.8249.11204-.2884.38969-.4784.6991-.4784h3c1.47701 0 2.52321-.5186 3.20331-1.2432.5472-.5831.8848-1.32907 1.0012-2.11789h-7.20451c-.41421 0-.75-.33579-.75-.75s.33579-.75.75-.75h7.15991c-.146-.6956-.4676-1.34678-.9566-1.86784-.6801-.72469-1.7263-1.24327-3.20331-1.24327h-3c-.41421 0-.75-.33579-.75-.75z" fill="#000" fill-rule="evenodd"/></svg>