<svg viewBox="0 0 24 24" xmlns="http://www.w3.org/2000/svg"><path d="m12 7.9a4.1 4.1 0 1 0 4.1 4.1 4.09 4.09 0 0 0 -4.1-4.1zm0 6.77a2.67 2.67 0 1 1 2.67-2.67 2.67 2.67 0 0 1 -2.67 2.67zm5.23-6.94a1 1 0 1 1 -1-1 1 1 0 0 1 1 1zm2.71 1a4.71 4.71 0 0 0 -1.29-3.35 4.71 4.71 0 0 0 -3.35-1.32c-1.3-.06-5.3-.06-6.6 0a4.73 4.73 0 0 0 -3.35 1.29 4.71 4.71 0 0 0 -1.29 3.35c-.06 1.3-.06 5.3 0 6.6a4.71 4.71 0 0 0 1.29 3.35 4.73 4.73 0 0 0 3.35 1.29c1.32.08 5.28.08 6.6 0a4.71 4.71 0 0 0 3.35-1.29 4.71 4.71 0 0 0 1.29-3.35c.06-1.3.06-5.3 0-6.6zm-1.7 8a2.7 2.7 0 0 1 -1.52 1.52 18 18 0 0 1 -4.72.32 17.91 17.91 0 0 1 -4.71-.32 2.7 2.7 0 0 1 -1.52-1.52c-.42-1.06-.33-3.56-.33-4.72s-.09-3.67.33-4.72a2.65 2.65 0 0 1 1.52-1.53 17.91 17.91 0 0 1 4.71-.32 18 18 0 0 1 4.72.32 2.7 2.7 0 0 1 1.52 1.52c.42 1.06.32 3.56.32 4.72s.1 3.67-.32 4.72z"/></svg>