<svg viewBox="0 0 24 24" xmlns="http://www.w3.org/2000/svg"><path d="m15 14.75a5.74 5.74 0 0 1 -4.07-1.68 5.77 5.77 0 1 1 4.07 1.68zm0-10a4.25 4.25 0 0 0 -3 7.25 4.25 4.25 0 1 0 3-7.25z"/><path d="m4.5 20.25a.74.74 0 0 1 -.5-.25.75.75 0 0 1 0-1l6.46-6.47a.75.75 0 1 1 1.06 1.07l-6.52 6.4a.74.74 0 0 1 -.5.25z"/><path d="m8 20.75a.74.74 0 0 1 -.53-.22l-2-2a.75.75 0 0 1 1.06-1.06l2 2a.75.75 0 0 1 0 1.06.74.74 0 0 1 -.53.22z"/><path d="m10 18.75a.74.74 0 0 1 -.53-.22l-2-2a.75.75 0 1 1 1.06-1.06l2 2a.75.75 0 0 1 0 1.06.74.74 0 0 1 -.53.22z"/></svg>