<svg fill="none" height="24" viewBox="0 0 24 24" width="24" xmlns="http://www.w3.org/2000/svg"><path clip-rule="evenodd" d="m12 4c-2.89949 0-5.25 2.35051-5.25 5.25 0 1.7619.86721 3.3213 2.2014 4.2747.45453.3249.7986.8625.7986 1.4994v1.7259c0 .1381.11193.25.25.25h4c.1381 0 .25-.1119.25-.25v-1.7259c0-.6369.3441-1.1745.7986-1.4994 1.3342-.9534 2.2014-2.5128 2.2014-4.2747 0-2.89949-2.3505-5.25-5.25-5.25zm-6.75 5.25c0-3.72792 3.02208-6.75 6.75-6.75 3.7279 0 6.75 3.02208 6.75 6.75 0 2.2667-1.118 4.2722-2.8293 5.4952-.1263.0902-.1707.2019-.1707.2789v1.7259c0 .9665-.7835 1.75-1.75 1.75h-4c-.9665 0-1.75-.7835-1.75-1.75v-1.7259c0-.077-.04439-.1887-.17073-.2789-1.71129-1.223-2.82927-3.2285-2.82927-5.4952zm3 11.5c0-.4142.33579-.75.75-.75h6c.4142 0 .75.3358.75.75s-.3358.75-.75.75h-6c-.41421 0-.75-.3358-.75-.75z" fill="#000" fill-rule="evenodd"/></svg>