<svg viewBox="0 0 24 24" xmlns="http://www.w3.org/2000/svg"><path d="m7.23 18.25a4 4 0 0 1 -2.83-1.16 4.23 4.23 0 0 1 .15-5.95l3.76-3.79a4.44 4.44 0 0 1 3.11-1.35 4 4 0 0 1 2.83 1.2 4.25 4.25 0 0 1 -.15 6l-1.26 1.26a.75.75 0 1 1 -1.06-1.06l1.22-1.3a2.73 2.73 0 0 0 .14-3.84 2.77 2.77 0 0 0 -3.8.15l-3.73 3.78a2.74 2.74 0 0 0 -.15 3.81 2.5 2.5 0 0 0 2 .71.74.74 0 0 1 .81.67.75.75 0 0 1 -.67.82z"/><path d="m12.58 18a4 4 0 0 1 -2.83-1.2 4.25 4.25 0 0 1 .15-6l1.26-1.26a.75.75 0 1 1 1.06 1.06l-1.22 1.3a2.73 2.73 0 0 0 -.14 3.84 2.77 2.77 0 0 0 3.8-.15l3.77-3.78a2.74 2.74 0 0 0 .11-3.81 2.5 2.5 0 0 0 -2-.71.74.74 0 0 1 -.81-.67.75.75 0 0 1 .67-.82 4 4 0 0 1 3.2 1.11 4.23 4.23 0 0 1 -.15 5.95l-3.76 3.79a4.44 4.44 0 0 1 -3.11 1.35z"/></svg>