<svg fill="none" height="24" viewBox="0 0 24 24" width="24" xmlns="http://www.w3.org/2000/svg"><path clip-rule="evenodd" d="m7.53033 7.03033c.29289-.29289.29289-.76777 0-1.06066s-.76777-.29289-1.06066 0l-1.46967 1.46967-.46967-.46967c-.29289-.29289-.76777-.29289-1.06066 0s-.29289.76777 0 1.06066l1 1c.29289.29289.76777.29289 1.06066 0zm2.46967.21967c-.41421 0-.75.33579-.75.75s.33579.75.75.75h10c.4142 0 .75-.33579.75-.75s-.3358-.75-.75-.75zm0 4c-.41421 0-.75.3358-.75.75s.33579.75.75.75h10c.4142 0 .75-.3358.75-.75s-.3358-.75-.75-.75zm10 6h-9.875c-.41421 0-.75-.3358-.75-.75s.33579-.75.75-.75h9.875c.4142 0 .75.3358.75.75s-.3358.75-.75.75zm-12.46967-7.28033c.29289.29293.29289.76773 0 1.06063l-2 2c-.29289.2929-.76777.2929-1.06066 0l-1-1c-.29289-.2929-.29289-.7677 0-1.0606s.76777-.2929 1.06066 0l.46967.4696 1.46967-1.46963c.29289-.29289.76777-.29289 1.06066 0zm0 6.06063c.29289-.2929.29289-.7677 0-1.0606s-.76777-.2929-1.06066 0l-1.46967 1.4696-.46967-.4696c-.29289-.2929-.76777-.2929-1.06066 0s-.29289.7677 0 1.0606l1 1c.29289.2929.76777.2929 1.06066 0z" fill="#000" fill-rule="evenodd"/></svg>