<?xml version="1.0" encoding="iso-8859-1"?>
<!-- Generator: Adobe Illustrator 18.1.1, SVG Export Plug-In . SVG Version: 6.00 Build 0)  -->
<svg version="1.1" id="Capa_1" xmlns="http://www.w3.org/2000/svg" xmlns:xlink="http://www.w3.org/1999/xlink" x="0px" y="0px"
	 viewBox="0 0 18.69 18.69" style="enable-background:new 0 0 18.69 18.69;" xml:space="preserve">
<g>
	<g>
		<path style="fill:#030104;" d="M18.554,7.187c-0.069-0.061-0.321-0.238-0.665,0.062c-0.73,0.637-1.296,0.625-1.49,0.596
			c1.242-2.157,1.089-2.293,0.883-2.471c-0.07-0.06-0.323-0.233-0.667,0.065c-0.68,0.593-1.197,0.385-1.374,0.279l1.519-2.54
			c0.103-0.17,0.068-0.39-0.08-0.522c-0.15-0.132-0.372-0.139-0.527-0.017C15.982,2.77,15.51,2.99,14.252,2.99
			c-2.806,0-7.158-1.078-7.202-1.089C6.883,1.859,6.709,1.925,6.61,2.066c-6.155,8.817-6.658,10.002-6.596,10.343
			c0,0.001,0,0.002,0,0.002c-0.045,0.167,0.019,0.337,0.148,0.436c-0.038,0.196,0.063,0.396,0.256,0.466
			c7.929,2.891,10.814,3.488,11.903,3.488c0.55,0,0.643-0.152,0.695-0.239C19.063,7.637,18.893,7.487,18.554,7.187z M16.14,6.612
			c-0.865,1.55-2.778,4.644-4.577,7.458c-0.256,0.084-1.911,0.387-9.768-1.62c0.297-0.033,0.614-0.055,0.961-0.055
			c3.147,0,7.265,1.336,7.306,1.35c0.043,0.015,0.087,0.021,0.13,0.021c0.142,0,0.278-0.075,0.354-0.202l4.268-7.135
			C15.112,6.606,15.584,6.747,16.14,6.612z M7.126,2.773c1.025,0.243,4.602,1.046,7.124,1.046c0.462,0,0.864-0.027,1.211-0.081
			l-5.457,9.121c-1.046-0.321-4.449-1.291-7.248-1.291c-0.594,0-1.129,0.045-1.599,0.134C2.152,10.011,5.099,5.682,7.126,2.773z
			 M12.413,15.977c-0.007,0.001-0.014,0.001-0.019,0.003c-0.152,0.005-0.526-0.006-1.34-0.172c-1.006-0.206-2.778-0.669-5.828-1.688
			c2.231,0.489,4.273,0.837,5.578,0.837c0.738,0,1.24-0.11,1.409-0.369l0.001,0.001c1.778-2.781,2.971-4.694,3.76-6.021
			c0.027,0.017,0.052,0.038,0.084,0.049c0.03,0.011,0.512,0.17,1.211-0.06C16.204,10.305,13.978,13.663,12.413,15.977z"/>
		<path style="fill:#030104;" d="M10.756,6.845c-0.024-0.033-0.175-0.232-0.646-0.412L9.887,6.341
			c-0.369-0.144-0.619-0.208-0.629-0.21C9.24,6.127,9.22,6.124,9.2,6.123c-0.015,0-0.067-0.003-0.105-0.013
			C9.002,6.084,8.839,6.083,8.809,6.083c-0.037,0-0.932,0.016-1.408,0.357C7.359,6.467,7.164,6.614,7.046,7.041
			C7.024,7.044,7.001,7.049,6.98,7.057c-0.146,0.051-0.179,0.214-0.187,0.31C6.77,7.45,6.798,7.51,6.835,7.551
			C6.687,8.043,7.171,8.619,7.853,8.749c0.795,0.151,1.804-0.18,2.206-0.584c0.076-0.02,0.162-0.058,0.236-0.131
			c0.098-0.079,0.249-0.22,0.189-0.311c-0.004-0.004-0.006-0.009-0.012-0.014C10.681,7.543,11.032,7.187,10.756,6.845z M10.145,7.67
			c-0.033,0.024-0.039,0.056-0.014,0.083c0.013,0.015,0.032,0.026,0.055,0.035c-0.021,0.037-0.083,0.102-0.151,0.155
			c-0.003,0.002-0.007,0.005-0.009,0.008c-0.038,0.04-0.083,0.065-0.128,0.073C9.86,8.03,9.827,8.044,9.81,8.063
			C9.495,8.406,8.593,8.72,7.946,8.597c-0.544-0.103-0.948-0.627-0.8-1.039C7.154,7.536,7.145,7.514,7.12,7.495
			C7.093,7.474,7.084,7.437,7.096,7.393C7.097,7.39,7.098,7.387,7.098,7.384c0.004-0.062,0.023-0.128,0.044-0.167
			c0.03,0.004,0.059,0.004,0.088-0.001c0.054-0.009,0.091-0.034,0.098-0.064c0.106-0.469,0.31-0.605,0.31-0.605
			c0.003-0.002,0.005-0.003,0.009-0.005C8.036,6.26,8.823,6.246,8.828,6.246c0.036,0,0.104,0.002,0.137,0.008
			C9.03,6.272,9.114,6.281,9.158,6.283C9.226,6.302,9.432,6.362,9.71,6.47l0.222,0.093c0.421,0.16,0.537,0.332,0.537,0.333
			c0.002,0.002,0.004,0.005,0.006,0.007C10.733,7.216,10.286,7.569,10.145,7.67z"/>
		<path style="fill:#030104;" d="M3.096,10.161c1.121,0.553,3.138,0.998,3.138,0.998c0.11,0.021,0.215,0.039,0.319,0.055v0.005
			c0,0,2.083,0.337,3.573,0.279c0,0,0.2,0.013,0.343-0.21c0,0,0.528-0.993,0.228-1.543c0,0-0.091-0.146-0.43-0.296
			c0,0-0.028-0.012-0.073-0.03C9.903,9.27,9.611,9.155,9.611,9.155C9.548,9.128,9.496,9.104,9.448,9.081
			c-0.194-0.104-0.349-0.28-0.349-0.28c-1.667,0.676-2.253-0.43-2.253-0.43C6.632,8.527,5.215,8.486,5.215,8.486
			C4.784,8.49,4.551,8.575,4.551,8.575C3.716,8.908,3.054,9.876,3.054,9.876C2.926,10.103,3.096,10.161,3.096,10.161z"/>
		<path style="fill:#030104;" d="M9.037,8.823C9.058,8.816,9.078,8.81,9.099,8.802c0-0.007,0.002-0.011,0.002-0.011
			C9.078,8.803,9.058,8.811,9.037,8.823z"/>
		<polygon style="fill:#030104;" points="6.853,8.368 6.853,8.368 6.853,8.372 		"/>
		<polygon style="fill:#030104;" points="6.853,8.365 6.845,8.372 6.853,8.368 		"/>
		<path style="fill:#030104;" d="M6.666,4.61c0.076,0.011,0.147,0.007,0.213-0.012C6.946,4.58,7,4.547,7.041,4.5l0.261-0.313
			C7.382,4.09,7.468,4.02,7.564,3.975C7.657,3.93,7.786,3.919,7.946,3.942c0.08,0.011,0.131,0.029,0.151,0.055
			c0.021,0.026,0.021,0.055,0.001,0.089c-0.018,0.033-0.051,0.079-0.1,0.137L7.692,4.59C7.65,4.639,7.644,4.678,7.669,4.709
			C7.695,4.74,7.746,4.761,7.82,4.771C7.897,4.782,7.968,4.778,8.036,4.76c0.065-0.017,0.12-0.05,0.162-0.099l0.256-0.307
			C8.536,4.256,8.611,4.189,8.68,4.156c0.058-0.025,0.124-0.043,0.197-0.053C8.95,4.093,9.02,4.092,9.085,4.102
			c0.08,0.011,0.131,0.029,0.154,0.055c0.022,0.026,0.027,0.055,0.01,0.086C9.234,4.274,9.206,4.315,9.164,4.364L8.84,4.751
			C8.8,4.799,8.794,4.838,8.82,4.87c0.028,0.031,0.079,0.052,0.153,0.063c0.077,0.01,0.149,0.008,0.216-0.01
			c0.065-0.018,0.12-0.051,0.161-0.099l0.375-0.45C9.8,4.284,9.833,4.216,9.826,4.168C9.817,4.115,9.774,4.07,9.697,4.031
			C9.619,3.992,9.515,3.964,9.38,3.945c-0.114-0.017-0.229-0.02-0.343-0.01c-0.114,0.01-0.233,0.032-0.355,0.068
			c-0.02-0.055-0.063-0.1-0.132-0.135c-0.069-0.036-0.167-0.062-0.29-0.08c-0.119-0.016-0.235-0.02-0.353-0.012
			C7.792,3.785,7.67,3.808,7.546,3.843l0.019-0.022C7.596,3.784,7.597,3.752,7.57,3.724C7.543,3.697,7.495,3.678,7.428,3.669
			c-0.071-0.01-0.135-0.006-0.197,0.01c-0.062,0.016-0.11,0.046-0.146,0.089l-0.55,0.66c-0.04,0.048-0.046,0.087-0.02,0.119
			C6.541,4.578,6.592,4.599,6.666,4.61z"/>
		<path style="fill:#030104;" d="M11.101,4.6c-0.097-0.003-0.212-0.007-0.345-0.012c-0.133-0.006-0.218-0.01-0.252-0.01
			c-0.16-0.006-0.303,0.008-0.426,0.04S9.867,4.699,9.815,4.761c-0.039,0.047-0.05,0.094-0.031,0.141
			C9.803,4.95,9.85,4.991,9.926,5.028c0.077,0.037,0.178,0.064,0.304,0.082c0.138,0.02,0.272,0.026,0.4,0.02
			c0.129-0.005,0.272-0.021,0.427-0.048c0.02,0.05,0.046,0.09,0.075,0.119c0.031,0.029,0.072,0.047,0.123,0.055
			c0.06,0.009,0.121,0.006,0.185-0.007c0.063-0.012,0.106-0.031,0.126-0.055c0.011-0.013,0.021-0.045,0.029-0.097
			c0.009-0.051,0.031-0.099,0.067-0.142c0.04-0.046,0.075-0.088,0.107-0.125c0.031-0.038,0.071-0.084,0.116-0.137
			c0.071-0.086,0.104-0.158,0.096-0.217s-0.064-0.109-0.169-0.15c-0.102-0.041-0.263-0.077-0.479-0.107
			c-0.192-0.027-0.364-0.038-0.516-0.032c-0.151,0.007-0.272,0.025-0.367,0.055c-0.09,0.028-0.154,0.062-0.188,0.103
			c-0.022,0.026-0.018,0.05,0.008,0.072s0.067,0.037,0.121,0.045c0.062,0.008,0.105,0.009,0.134,0.001
			c0.027-0.008,0.077-0.025,0.148-0.051c0.073-0.026,0.147-0.042,0.225-0.051c0.076-0.007,0.178-0.002,0.302,0.016
			c0.146,0.021,0.229,0.048,0.252,0.083c0.022,0.035,0.012,0.083-0.034,0.145C11.303,4.605,11.198,4.603,11.101,4.6z M11.276,4.776
			c-0.066,0.08-0.138,0.135-0.211,0.163C11,4.965,10.919,4.982,10.821,4.991c-0.101,0.008-0.198,0.006-0.296-0.008
			c-0.092-0.013-0.155-0.036-0.191-0.068s-0.038-0.066-0.009-0.101c0.027-0.034,0.073-0.057,0.135-0.069
			c0.066-0.012,0.127-0.018,0.186-0.017c0.059,0.001,0.161,0.005,0.312,0.011c0.148,0.005,0.264,0.007,0.346,0.005L11.276,4.776z"/>
		<path style="fill:#030104;" d="M13.036,5.603c-0.052,0.026-0.122,0.042-0.206,0.048c-0.083,0.007-0.189,0.001-0.316-0.017
			c-0.063-0.008-0.116-0.019-0.158-0.031c-0.045-0.012-0.078-0.026-0.105-0.042c-0.022-0.016-0.043-0.034-0.059-0.052
			c-0.016-0.02-0.031-0.04-0.045-0.059c-0.028-0.037-0.08-0.061-0.151-0.071c-0.058-0.008-0.114-0.006-0.171,0.006
			c-0.055,0.012-0.095,0.032-0.117,0.06c-0.031,0.037-0.025,0.079,0.017,0.124c0.042,0.045,0.121,0.088,0.236,0.129
			c0.115,0.041,0.256,0.073,0.425,0.097c0.186,0.027,0.349,0.04,0.486,0.039c0.14,0,0.263-0.012,0.369-0.038
			c0.108-0.025,0.201-0.063,0.282-0.112c0.081-0.051,0.153-0.115,0.218-0.191l0.559-0.67c0.044-0.053,0.063-0.097,0.058-0.131
			c-0.007-0.034-0.059-0.056-0.151-0.07c-0.068-0.01-0.131-0.006-0.19,0.01c-0.062,0.016-0.108,0.044-0.142,0.083l-0.026,0.032
			c-0.043-0.066-0.105-0.119-0.187-0.158c-0.08-0.04-0.191-0.069-0.332-0.089c-0.114-0.016-0.229-0.022-0.343-0.016
			c-0.115,0.006-0.224,0.023-0.33,0.05c-0.107,0.028-0.203,0.067-0.29,0.117c-0.088,0.05-0.16,0.11-0.218,0.179
			c-0.078,0.093-0.112,0.179-0.105,0.26c0.008,0.081,0.056,0.149,0.146,0.206s0.218,0.097,0.382,0.12
			c0.138,0.02,0.266,0.022,0.386,0.011c0.122-0.012,0.239-0.038,0.357-0.077C13.25,5.426,13.2,5.479,13.167,5.513
			C13.134,5.547,13.09,5.577,13.036,5.603z M13.118,5.267c-0.09,0.01-0.175,0.01-0.258-0.002c-0.138-0.019-0.23-0.059-0.277-0.119
			c-0.046-0.06-0.032-0.137,0.047-0.23c0.077-0.092,0.179-0.157,0.307-0.195c0.126-0.039,0.259-0.047,0.399-0.028
			c0.145,0.02,0.238,0.063,0.283,0.127c0.044,0.064,0.027,0.144-0.051,0.238c-0.05,0.059-0.114,0.106-0.194,0.142
			C13.295,5.234,13.209,5.257,13.118,5.267z"/>
	</g>
</g>
<g>
</g>
<g>
</g>
<g>
</g>
<g>
</g>
<g>
</g>
<g>
</g>
<g>
</g>
<g>
</g>
<g>
</g>
<g>
</g>
<g>
</g>
<g>
</g>
<g>
</g>
<g>
</g>
<g>
</g>
</svg>
