<svg viewBox="0 0 24 24" xmlns="http://www.w3.org/2000/svg"><path d="m19.9 4.09a1.75 1.75 0 0 0 -1.66-.15l-3.57 1.53-4.75-2a1.51 1.51 0 0 0 -1.18 0l-4.36 1.84a1.88 1.88 0 0 0 -1.13 1.75v11.25a1.91 1.91 0 0 0 .85 1.6 1.75 1.75 0 0 0 1.66.15l3.57-1.53 4.75 2a1.45 1.45 0 0 0 .59.12 1.52 1.52 0 0 0 .59-.12l4.36-1.87a1.88 1.88 0 0 0 1.13-1.75v-11.22a1.91 1.91 0 0 0 -.85-1.6zm-9.82 1 3.84 1.64v12.13l-3.84-1.64zm-4.91 13.59a.25.25 0 0 1 -.25 0 .4.4 0 0 1 -.17-.35v-11.27a.39.39 0 0 1 .25-.37l3.58-1.55v12.08zm14.08-1.74a.39.39 0 0 1 -.22.37l-3.61 1.55v-12.08l3.41-1.46a.25.25 0 0 1 .25 0 .4.4 0 0 1 .17.35z"/></svg>