<svg fill="none" height="24" viewBox="0 0 24 24" width="24" xmlns="http://www.w3.org/2000/svg"><path clip-rule="evenodd" d="m15.5 4.25c0-.41421.3358-.75.75-.75h3.5c.4142 0 .75.33579.75.75v3.5c0 .41421-.3358.75-.75.75s-.75-.33579-.75-.75v-1.67386l-3.4508 3.49247c.908 1.14949 1.4508 2.60259 1.4508 4.18139 0 3.7279-3.0221 6.75-6.75 6.75-3.72792 0-6.75-3.0221-6.75-6.75s3.02208-6.75 6.75-6.75c1.6081 0 3.0856.56303 4.2448 1.50154l3.4598-3.50154h-1.7046c-.4142 0-.75-.33579-.75-.75zm-5.25 4.25c-2.89949 0-5.25 2.3505-5.25 5.25s2.35051 5.25 5.25 5.25c2.8995 0 5.25-2.3505 5.25-5.25 0-1.4359-.5755-2.736-1.5102-3.6846-.953-.96718-2.2758-1.5654-3.7398-1.5654z" fill="#000" fill-rule="evenodd"/></svg>