<?xml version="1.0" encoding="UTF-8"?>
<svg id="megaphone" xmlns="http://www.w3.org/2000/svg" viewBox="0 0 24 24">
  <path d="M19.75,4.25h-1.4c-.76,0-1.4,.49-1.64,1.17-.02,0-.05,0-.07,.02l-10.5,3.54c-.31-.47-.85-.79-1.46-.79h-.43c-.96,0-1.75,.79-1.75,1.75v3.89c0,.96,.79,1.75,1.75,1.75h.43c.61,0,1.14-.31,1.46-.79l1.71,.58v3.64c0,.41,.34,.75,.75,.75s.75-.34,.75-.75v-3.13l7.29,2.45s.05,0,.07,.01c.24,.68,.88,1.17,1.64,1.17h1.4c.96,0,1.75-.79,1.75-1.75V6c0-.96-.79-1.75-1.75-1.75ZM4.93,13.82c0,.14-.11,.25-.25,.25h-.43c-.14,0-.25-.11-.25-.25v-3.89c0-.14,.11-.25,.25-.25h.43c.14,0,.25,.11,.25,.25v3.89Zm1.5-3.37l10.17-3.42v9.7l-7.63-2.54c-.09-.05-.19-.09-.29-.1l-2.25-.75v-2.89Zm13.57,7.3c0,.14-.11,.25-.25,.25h-1.4c-.14,0-.25-.11-.25-.25V6c0-.14,.11-.25,.25-.25h1.4c.14,0,.25,.11,.25,.25v11.75Z"/>
</svg>