<svg fill="none" height="24" viewBox="0 0 24 24" width="24" xmlns="http://www.w3.org/2000/svg"><path clip-rule="evenodd" d="m8.75 4c0-.41421-.33579-.75-.75-.75s-.75.33579-.75.75v1.25h-.25c-.9665 0-1.75.7835-1.75 1.75v.25h-1.25c-.41421 0-.75.33579-.75.75s.33579.75.75.75h1.25v2.5h-1.25c-.41421 0-.75.3358-.75.75s.33579.75.75.75h1.25v2.5h-1.25c-.41421 0-.75.3358-.75.75s.33579.75.75.75h1.25v.25c0 .9665.7835 1.75 1.75 1.75h.25v1.25c0 .4142.33579.75.75.75s.75-.3358.75-.75v-1.25h2.5v1.25c0 .4142.3358.75.75.75s.75-.3358.75-.75v-1.25h2.5v1.25c0 .4142.3358.75.75.75s.75-.3358.75-.75v-1.25h.25c.9665 0 1.75-.7835 1.75-1.75v-.25h1.25c.4142 0 .75-.3358.75-.75s-.3358-.75-.75-.75h-1.25v-2.5h1.25c.4142 0 .75-.3358.75-.75s-.3358-.75-.75-.75h-1.25v-2.5h1.25c.4142 0 .75-.33579.75-.75s-.3358-.75-.75-.75h-1.25v-.25c0-.9665-.7835-1.75-1.75-1.75h-.25v-1.25c0-.41421-.3358-.75-.75-.75s-.75.33579-.75.75v1.25h-2.5v-1.25c0-.41421-.3358-.75-.75-.75s-.75.33579-.75.75v1.25h-2.5zm-2 3c0-.13807.11193-.25.25-.25h1 4 4 1c.1381 0 .25.11193.25.25v1 4 4 1c0 .1381-.1119.25-.25.25h-1-4-4-1c-.13807 0-.25-.1119-.25-.25v-1-8zm5.0486 7.7531-.2751-.7719h-2.02683l-.27509.7719c-.13906.3902-.56808.5937-.95826.4547-.39017-.1391-.59374-.5681-.45469-.9583l1.70002-4.77.00339-.00953.00365-.00944c.15207-.39283.51591-.71175.99441-.71175.4786 0 .8424.31892.9944.71175l.0037.00944.0034.00953 1.7 4.77c.139.3902-.0645.8192-.4547.9583-.3902.139-.8192-.0645-.9583-.4547zm-1.2885-3.6155.4788 1.3436h-.9576zm3.7399-1.63882c0-.41421.3358-.75.75-.75s.75.33579.75.75v5.00252c0 .4143-.3358.75-.75.75s-.75-.3357-.75-.75z" fill="#000" fill-rule="evenodd"/></svg>