<svg fill="none" height="24" viewBox="0 0 24 24" width="24" xmlns="http://www.w3.org/2000/svg"><path clip-rule="evenodd" d="m7.99997 3.25c.41421 0 .75.33579.75.75v1.25h2.50003v-1.25c0-.41421.3358-.75.75-.75s.75.33579.75.75v1.25h2.5v-1.25c0-.41421.3358-.75.75-.75s.75.33579.75.75v1.25h.25c.9665 0 1.75.7835 1.75 1.75v.25h1.25c.4142 0 .75.33579.75.75s-.3358.75-.75.75h-1.25v2.5h1.25c.4142 0 .75.3358.75.75s-.3358.75-.75.75h-1.25v2.5h1.25c.4142 0 .75.3358.75.75s-.3358.75-.75.75h-1.25v.25c0 .9665-.7835 1.75-1.75 1.75h-.25v1.25c0 .4142-.3358.75-.75.75s-.75-.3358-.75-.75v-1.25h-2.5v1.25c0 .4142-.3358.75-.75.75s-.75-.3358-.75-.75v-1.25h-2.50003v1.25c0 .4142-.33579.75-.75.75s-.75-.3358-.75-.75v-1.25h-.25c-.9665 0-1.75-.7835-1.75-1.75v-.25h-1.25c-.41421 0-.75-.3358-.75-.75s.33579-.75.75-.75h1.25v-2.5h-1.25c-.41421 0-.75-.3358-.75-.75s.33579-.75.75-.75h1.25v-2.5h-1.25c-.41421 0-.75-.33579-.75-.75s.33579-.75.75-.75h1.25v-.25c0-.9665.7835-1.75 1.75-1.75h.25v-1.25c0-.41421.33579-.75.75-.75zm-1 3.5c-.13807 0-.25.11193-.25.25v10c0 .1381.11193.25.25.25h10.00003c.138 0 .25-.1119.25-.25v-10c0-.13807-.112-.25-.25-.25z" fill="#000" fill-rule="evenodd"/></svg>