<?xml version="1.0" encoding="UTF-8" standalone="no"?>
<svg
   width="24"
   height="24"
   viewBox="0 0 24 24"
   version="1.1"
   id="svg4"
   sodipodi:docname="movie.svg"
   inkscape:version="1.1.1 (3bf5ae0d25, 2021-09-20)"
   xmlns:inkscape="http://www.inkscape.org/namespaces/inkscape"
   xmlns:sodipodi="http://sodipodi.sourceforge.net/DTD/sodipodi-0.dtd"
   xmlns="http://www.w3.org/2000/svg"
   xmlns:svg="http://www.w3.org/2000/svg">
  <defs
     id="defs8" />
  <sodipodi:namedview
     id="namedview6"
     pagecolor="#ffffff"
     bordercolor="#666666"
     borderopacity="1.0"
     inkscape:pageshadow="2"
     inkscape:pageopacity="0.0"
     inkscape:pagecheckerboard="0"
     showgrid="false"
     width="24px"
     inkscape:zoom="14.230524"
     inkscape:cx="12.754274"
     inkscape:cy="16.092169"
     inkscape:window-width="1920"
     inkscape:window-height="1015"
     inkscape:window-x="1920"
     inkscape:window-y="0"
     inkscape:window-maximized="1"
     inkscape:current-layer="svg4" />
  <path
     fill="var(--ci-primary-color, currentColor)"
     d="M 6.25018,23.11701 H 23.5 V 0.88299 H 0.5 V 23.11701 Z M 19.28392,2.41637 h 2.6827 v 1.91672 h -2.6827 z m 0,3.4501 h 2.6827 V 7.7832 h -2.6827 z m 0,3.45011 h 2.6827 v 1.91673 h -2.6827 z m 0,3.45011 h 2.6827 v 1.91673 h -2.6827 z m 0,3.45011 h 2.6827 v 1.91673 h -2.6827 z m 0,3.45011 h 2.6827 v 1.91672 h -2.6827 z M 6.25018,9.31658 V 2.41637 h 11.49964 v 8.81694 H 6.25018 Z m 0,10.35033 v -6.90022 h 11.49964 v 8.81694 H 6.25018 Z M 2.03338,2.41637 H 4.7168 V 4.33309 H 2.03338 Z m 0,3.4501 H 4.7168 V 7.7832 H 2.03338 Z m 0,3.45011 H 4.7168 v 1.91673 H 2.03338 Z m 0,3.45011 H 4.7168 v 1.91673 H 2.03338 Z m 0,3.45011 H 4.7168 v 1.91673 H 2.03338 Z m 0,3.45011 H 4.7168 v 1.91672 H 2.03338 Z"
     class="ci-primary"
     id="path2"
     style="stroke-width:0.0479182" />
</svg>
