<svg fill="none" height="24" viewBox="0 0 24 24" width="24" xmlns="http://www.w3.org/2000/svg"><path clip-rule="evenodd" d="m5 3.25c-.9665 0-1.75.7835-1.75 1.75v6c0 .9665.7835 1.75 1.75 1.75h4c.9665 0 1.75-.7835 1.75-1.75v-6c0-.9665-.7835-1.75-1.75-1.75zm-.25 1.75c0-.13807.11193-.25.25-.25h4c.13807 0 .25.11193.25.25v6c0 .1381-.11193.25-.25.25h-4c-.13807 0-.25-.1119-.25-.25zm.25 10.25c-.9665 0-1.75.7835-1.75 1.75v2c0 .9665.7835 1.75 1.75 1.75h4c.9665 0 1.75-.7835 1.75-1.75v-2c0-.9665-.7835-1.75-1.75-1.75zm-.25 1.75c0-.1381.11193-.25.25-.25h4c.13807 0 .25.1119.25.25v2c0 .1381-.11193.25-.25.25h-4c-.13807 0-.25-.1119-.25-.25zm8.5-4c0-.9665.7835-1.75 1.75-1.75h4c.9665 0 1.75.7835 1.75 1.75v6c0 .9665-.7835 1.75-1.75 1.75h-4c-.9665 0-1.75-.7835-1.75-1.75zm1.75-.25c-.1381 0-.25.1119-.25.25v6c0 .1381.1119.25.25.25h4c.1381 0 .25-.1119.25-.25v-6c0-.1381-.1119-.25-.25-.25zm0-9.5c-.9665 0-1.75.7835-1.75 1.75v2c0 .9665.7835 1.75 1.75 1.75h4c.9665 0 1.75-.7835 1.75-1.75v-2c0-.9665-.7835-1.75-1.75-1.75zm-.25 1.75c0-.13807.1119-.25.25-.25h4c.1381 0 .25.11193.25.25v2c0 .13807-.1119.25-.25.25h-4c-.1381 0-.25-.11193-.25-.25z" fill="#000" fill-rule="evenodd"/></svg>