<svg id="Layer_1" data-name="Layer 1" xmlns="http://www.w3.org/2000/svg" viewBox="0 0 24 24"><title>paperclip</title><path d="M9.28,20a5.38,5.38,0,0,1-3.71-1.45,4.87,4.87,0,0,1,0-7.16l6.72-6.34a4,4,0,0,1,5.36,0,3.53,3.53,0,0,1,0,5.2L10.92,16.6a2.44,2.44,0,0,1-3.29,0A2.23,2.23,0,0,1,6.92,15a2.19,2.19,0,0,1,.71-1.62l6.21-5.86a.89.89,0,0,1,1.26,0,.9.9,0,0,1,0,1.26L8.85,14.64a.44.44,0,0,0,0,.66.63.63,0,0,0,.85,0L16.43,9A1.78,1.78,0,0,0,17,7.65a1.81,1.81,0,0,0-.58-1.31,2.15,2.15,0,0,0-2.92,0L6.79,12.69a3.08,3.08,0,0,0,0,4.56,3.68,3.68,0,0,0,5,0l6.72-6.34a.89.89,0,1,1,1.22,1.29L13,18.55A5.4,5.4,0,0,1,9.28,20Z"/></svg>