<svg fill="none" height="24" viewBox="0 0 24 24" width="24" xmlns="http://www.w3.org/2000/svg"><path clip-rule="evenodd" d="m12 4.5c-4.14214 0-7.5 3.35786-7.5 7.5 0 4.1421 3.35786 7.5 7.5 7.5 4.1421 0 7.5-3.3579 7.5-7.5 0-4.14214-3.3579-7.5-7.5-7.5zm-9 7.5c0-4.97056 4.02944-9 9-9 4.9706 0 9 4.02944 9 9 0 4.9706-4.0294 9-9 9-4.97056 0-9-4.0294-9-9zm7-3.75c.4142 0 .75.33579.75.75v6c0 .4142-.3358.75-.75.75-.41421 0-.75-.3358-.75-.75v-6c0-.41421.33579-.75.75-.75zm4.75.75c0-.41421-.3358-.75-.75-.75s-.75.33579-.75.75v6c0 .4142.3358.75.75.75s.75-.3358.75-.75z" fill="#000" fill-rule="evenodd"/></svg>