<svg viewBox="0 0 24 24" xmlns="http://www.w3.org/2000/svg"><path d="m9.16 13.41c-.12.67-.61 3.83-.75 4.72 0 .07 0 .09-.11.09h-2.62a.43.43 0 0 1 -.43-.49l2.06-13.12a.73.73 0 0 1 .69-.61c5.35 0 5.8-.13 7.17.41 2.11.82 2.31 2.8 1.55 4.95s-2.55 3.15-4.93 3.18c-1.52 0-2.44-.24-2.65.86zm8.64-5.08c-.06-.05-.08-.06-.1 0a8 8 0 0 1 -.31 1.19c-1.4 4-5.29 3.67-7.19 3.67a.35.35 0 0 0 -.39.33c-.79 5-1 6-1 6a.38.38 0 0 0 .37.46h2.24a.63.63 0 0 0 .61-.53c0-.19 0 .22.51-3.22.16-.77.5-.69 1-.69 2.49 0 4.44-1 5-4a3.14 3.14 0 0 0 -.84-3.27z"/></svg>