<svg fill="none" height="24" viewBox="0 0 24 24" width="24" xmlns="http://www.w3.org/2000/svg"><path clip-rule="evenodd" d="m17.9069 4.92989c.1043-.10454.2943-.18575.5389-.18026.2447.0055.4529.09674.5725.21657.1288.12892.2215.34002.2309.57477.0094.2337-.0653.41302-.1672.51531l-.0002.0002-7.4899 7.49962-1.2729.1157.1002-1.2445 7.4876-7.49731zm2.173-1.02346c-.4372-.43795-1.0371-.64376-1.6004-.65642-.5635-.01266-1.1816.16684-1.6341.62001l-.0001.0001-7.68223 7.69218c-.12575.1259-.20263.2925-.21691.4699l-.19374 2.407c-.01775.2205.06276.4376.22.5932.15725.1557.37517.2339.59549.2139l2.43049-.221c.1749-.0159.3387-.0927.4628-.2169l7.6823-7.69234.0004-.0004c.4549-.45616.6266-1.07274.6041-1.63472-.0224-.56107-.24-1.14564-.6681-1.57451zm-14.26792.84356c-1.41109 0-2.5625 1.15141-2.5625 2.5625v10.87501c0 1.4111 1.15141 2.5625 2.5625 2.5625h10.87502c1.4111 0 2.5625-1.1514 2.5625-2.5625v-5.4375c0-.4142-.3358-.75-.75-.75s-.75.3358-.75.75v5.4375c0 .5827-.4799 1.0625-1.0625 1.0625h-10.87502c-.58266 0-1.0625-.4798-1.0625-1.0625v-10.87501c0-.58266.47984-1.0625 1.0625-1.0625h5.43752c.4142 0 .75-.33579.75-.75s-.3358-.75-.75-.75z" fill="#000" fill-rule="evenodd"/></svg>