<svg fill="none" height="24" viewBox="0 0 24 24" width="24" xmlns="http://www.w3.org/2000/svg"><path d="m20 12c0 4.4194-3.5806 8-8 8-.8258 0-1.6194-.1258-2.36774-.3581.3258-.5322.81294-1.4032.99354-2.0967.0968-.3742.4968-1.9033.4968-1.9033.2613.4968 1.0226.9194 1.8322.9194 2.4129 0 4.1517-2.2194 4.1517-4.9774 0-2.64196-2.1581-4.61938-4.9323-4.61938-3.45162 0-5.2871 2.31612-5.2871 4.84198 0 1.1741.6258 2.6354 1.62258 3.1.15161.0709.23226.0387.26774-.1065.02581-.1097.16129-.6548.22258-.9065.01935-.0806.00968-.1516-.05484-.229-.32581-.4032-.59032-1.1387-.59032-1.8258 0-1.7645 1.33548-3.47096 3.61286-3.47096 1.9646 0 3.342 1.33871 3.342 3.25486 0 2.1645-1.0936 3.6645-2.5162 3.6645-.7838 0-1.3741-.6484-1.1838-1.4452.2258-.9516.6613-1.9774.6613-2.6645 0-.6129-.3291-1.1258-1.0129-1.1258-.8033 0-1.44842.829-1.44842 1.9419 0 .7097.23872 1.1871.23872 1.1871s-.79034 3.3484-.9355 3.9742c-.16129.6904-.09677 1.6646-.02903 2.2968-2.97419-1.1645-5.08387-4.0613-5.08387-7.4516 0-4.41935 3.58065-8 8-8 4.4194 0 8 3.58065 8 8z" fill="#000"/></svg>