<svg fill="none" height="24" viewBox="0 0 24 24" width="24" xmlns="http://www.w3.org/2000/svg"><path clip-rule="evenodd" d="m4.5 12c0-4.14214 3.35786-7.5 7.5-7.5 4.1421 0 7.5 3.35786 7.5 7.5 0 4.1421-3.3579 7.5-7.5 7.5-4.14214 0-7.5-3.3579-7.5-7.5zm7.5-9c-4.97056 0-9 4.02944-9 9 0 4.9706 4.02944 9 9 9 4.9706 0 9-4.0294 9-9 0-4.97056-4.0294-9-9-9zm-2 12.5858c0 .8909 1.0771 1.3371 1.7071.7071l3.5858-3.5858c.3905-.3905.3905-1.0237 0-1.4142l-3.5858-3.58579c-.63-.62997-1.7071-.1838-1.7071.7071z" fill="#000" fill-rule="evenodd"/></svg>