<svg viewBox="0 0 24 24" xmlns="http://www.w3.org/2000/svg"><path d="m15.36 11.33-1.1-.25.86 1.22v3.79l2.93-2.44v-4.15l-1.35.48z"/><path d="m8.52 11.33-1.35-1.35-1.34-.48v4.15l2.93 2.44v-3.79l.86-1.22z"/><path d="m13.16 11.45h-2.44l-.61-.37-.98 1.47v5.5l.73 1.09.86.86h2.44l.86-.86.73-1.09v-5.5l-.98-1.47z"/><path d="m15.12 18.41 1.58-1.59v-1.58l-1.58 1.34z"/><path d="m7.17 16.82 1.59 1.59v-1.83l-1.59-1.34z"/><path d="m11.08 10.96h.62v-6.96h-1.35l-.97 2.31-4.41-.36.74 3.06 5.25 1.95z"/><path d="m14.5 6.31-.97-2.31h-1.35v7h.82l5.25-2 .75-3z"/><path d="m17.32 5.71-1.72-1.71h-1.71l.86 1.95z"/><path d="m9.98 4h-1.71l-1.71 1.71 2.57.24z"/></svg>