<svg viewBox="0 0 24 24" xmlns="http://www.w3.org/2000/svg"><path d="m12.38 3.88v7h7v-7zm5.5 5.5h-4v-4h4z"/><path d="m3.88 10.88h7v-7h-7zm1.5-5.5h4v4h-4z"/><path d="m3.88 19.38h7v-7h-7zm1.5-5.5h4v4h-4z"/><path d="m12.38 12.38h1.75v1.75h-1.75z"/><path d="m15.88 12.38h1.75v1.75h-1.75z"/><path d="m14.13 14.13h1.75v1.75h-1.75z"/><path d="m17.63 14.13h1.75v1.75h-1.75z"/><path d="m12.38 15.88h1.75v1.75h-1.75z"/><path d="m15.88 15.88h1.75v1.75h-1.75z"/><path d="m14.13 17.63h1.75v1.75h-1.75z"/><path d="m17.63 17.63h1.75v1.75h-1.75z"/></svg>