<svg id="Layer_1" data-name="Layer 1" xmlns="http://www.w3.org/2000/svg" viewBox="0 0 24 24"><path d="M13.12,4A2.59,2.59,0,0,1,16,6.88v3.94a.59.59,0,0,1-.22.5l-2.54,2.44a.63.63,0,0,0-.2.5v.88a.36.36,0,0,1-.4.4H10.76a.36.36,0,0,1-.4-.4V13.38a.62.62,0,0,1,.2-.48l2.72-2.7V7.44a.73.73,0,0,0-.8-.8h-1a.71.71,0,0,0-.8.8V9a.29.29,0,0,1-.32.32H8.32A.29.29,0,0,1,8,9V6.88A2.58,2.58,0,0,1,10.88,4ZM10.36,17.76a.36.36,0,0,1,.4-.4h1.88a.36.36,0,0,1,.4.4V19.6a.36.36,0,0,1-.4.4H10.76a.36.36,0,0,1-.4-.4Z"/></svg>