<svg id="Layer_1" data-name="Layer 1" xmlns="http://www.w3.org/2000/svg" viewBox="0 0 24 24"><path d="M12,4a8,8,0,1,0,8,8A8,8,0,0,0,12,4Zm.62,12.51a.22.22,0,0,1-.24.24H11.26a.21.21,0,0,1-.23-.24V15.42a.21.21,0,0,1,.23-.24h1.12a.22.22,0,0,1,.24.24Zm1.76-5.21a.36.36,0,0,1-.14.3l-1.5,1.45a.34.34,0,0,0-.12.29v.52a.22.22,0,0,1-.24.24H11.26a.21.21,0,0,1-.23-.24v-1a.39.39,0,0,1,.11-.29l1.62-1.6V9.29a.43.43,0,0,0-.48-.47h-.56a.42.42,0,0,0-.48.47v.93a.17.17,0,0,1-.19.19H9.82c-.14,0-.2-.07-.2-.19V9a1.53,1.53,0,0,1,1.72-1.71h1.32A1.54,1.54,0,0,1,14.38,9Z"/></svg>