<svg fill="none" height="24" viewBox="0 0 24 24" width="24" xmlns="http://www.w3.org/2000/svg"><path clip-rule="evenodd" d="m8.60104 6.45958 1.39896-1.39896 1.399 1.39896c.3319.33195.8701.33194 1.202 0l1.399-1.39896 1.399 1.39896c.3319.33195.8701.33194 1.202 0l.649-.64896v12.37868l-.649-.649c-.3319-.3319-.8701-.3319-1.202 0l-1.399 1.399-1.399-1.399c-.3319-.3319-.8701-.3319-1.202 0l-1.399 1.399-1.39896-1.399c-.33195-.3319-.87014-.3319-1.20208 0l-.64896.649v-12.37868l.64896.64896c.33195.33195.87014.33194 1.20208 0zm1.99996-2.91924c-.3319-.33194-.87009-.33195-1.20204 0l-1.39896 1.39896-1.29896-1.29896c-.53547-.53547-1.45104-.15622-1.45104.60104v15.51712c0 .7573.91557 1.1366 1.45104.6011l1.29896-1.299 1.39896 1.399c.33194.3319.87014.3319 1.20204 0l1.399-1.399 1.399 1.399c.3319.3319.8701.3319 1.202 0l1.399-1.399 1.299 1.299c.5354.5355 1.451.1562 1.451-.6011v-15.51712c0-.75726-.9156-1.13651-1.451-.60104l-1.299 1.29896-1.399-1.39896c-.3319-.33194-.8701-.33195-1.202 0l-1.399 1.39896zm-.601 4.70966c-.41421 0-.75.33579-.75.75s.33579.75.75.75h4c.4142 0 .75-.33579.75-.75s-.3358-.75-.75-.75zm-.75 3.75c0-.4142.33579-.75.75-.75h4c.4142 0 .75.3358.75.75s-.3358.75-.75.75h-4c-.41421 0-.75-.3358-.75-.75zm.75 2.25c-.41421 0-.75.3358-.75.75s.33579.75.75.75h4c.4142 0 .75-.3358.75-.75s-.3358-.75-.75-.75z" fill="#000" fill-rule="evenodd"/></svg>