<svg viewBox="0 0 24 24" xmlns="http://www.w3.org/2000/svg"><path d="m10.24 13.6a.8.8 0 1 1 .8-.8.8.8 0 0 1 -.8.8zm9.76-1.6a8 8 0 1 1 -8-8 8 8 0 0 1 8 8zm-4.27-1.33a1.12 1.12 0 0 0 -.73.33 5.13 5.13 0 0 0 -2.77-.85l.56-2.53 1.79.4a.79.79 0 0 0 .79.8.81.81 0 0 0 .8-.81.79.79 0 0 0 -1.51-.35l-2-.44a.19.19 0 0 0 -.22.14l-.62 2.79a5.18 5.18 0 0 0 -2.77.85 1.07 1.07 0 1 0 -1.25 1.7 2.73 2.73 0 0 0 0 .5c0 1.69 1.91 3.07 4.26 3.07s4.26-1.38 4.26-3.07a2.16 2.16 0 0 0 -.06-.51 1.07 1.07 0 0 0 -.48-2zm-2.22 3.75a2.82 2.82 0 0 1 -3 0 .2.2 0 0 0 -.27 0 .19.19 0 0 0 0 .28 3.17 3.17 0 0 0 3.56 0 .19.19 0 0 0 0-.28.2.2 0 0 0 -.29 0zm.25-2.42a.8.8 0 1 0 .8.8.8.8 0 0 0 -.8-.8z"/></svg>