<svg id="Layer_1" data-name="Layer 1" xmlns="http://www.w3.org/2000/svg" viewBox="0 0 24 24"><path d="M22.54,19.57,18,15a7.92,7.92,0,0,0,1.41-4.52,8,8,0,1,0-3.54,6.64l4.59,4.59a1,1,0,0,0,1.42,0l.71-.71A1,1,0,0,0,22.54,19.57Zm-11.18-4.1a5,5,0,1,1,5-5A5,5,0,0,1,11.36,15.47Z"/><path d="M14.4,9.5H12.34V7.44A.46.46,0,0,0,11.87,7H10.81a.46.46,0,0,0-.47.44V9.5H8.28a.46.46,0,0,0-.44.47V11a.46.46,0,0,0,.44.47h2.06v2.06a.46.46,0,0,0,.47.44h1.06a.46.46,0,0,0,.47-.44V11.5H14.4a.45.45,0,0,0,.44-.47V10A.45.45,0,0,0,14.4,9.5Z"/></svg>