<svg viewBox="0 0 24 24" xmlns="http://www.w3.org/2000/svg"><path d="m20.5 8.5v-3a1 1 0 0 0 -1-1h-15a1 1 0 0 0 -1 1v3a1 1 0 0 0 1 1 1 1 0 0 0 -1 1v3a1 1 0 0 0 1 1 1 1 0 0 0 -1 1v3a1 1 0 0 0 1 1h15a1 1 0 0 0 1-1v-3a1 1 0 0 0 -1-1 1 1 0 0 0 1-1v-3a1 1 0 0 0 -1-1 1 1 0 0 0 1-1zm-1 10h-15v-3h15zm0-5h-15v-3h15zm0-5h-15v-3h15z"/><circle cx="6.25" cy="7" r=".75"/><circle cx="8.75" cy="7" r=".75"/><circle cx="6.25" cy="12" r=".75"/><circle cx="8.75" cy="12" r=".75"/><circle cx="6.25" cy="17" r=".75"/><circle cx="8.75" cy="17" r=".75"/></svg>