<svg viewBox="0 0 24 24" xmlns="http://www.w3.org/2000/svg"><path d="m17.5 14.25a3.24 3.24 0 0 0 -2.62 1.35l-5.29-2.6a3.39 3.39 0 0 0 .16-1 3.39 3.39 0 0 0 -.16-1l5.29-2.6a3.23 3.23 0 1 0 -.63-1.9 2.94 2.94 0 0 0 .05.5l-5.47 2.75a3.19 3.19 0 0 0 -2.33-1 3.25 3.25 0 0 0 0 6.5 3.19 3.19 0 0 0 2.33-1l5.47 2.75a2.94 2.94 0 0 0 -.05.51 3.25 3.25 0 1 0 3.25-3.25zm0-9.5a1.75 1.75 0 1 1 -1.75 1.75 1.76 1.76 0 0 1 1.75-1.75zm-11 9a1.75 1.75 0 1 1 1.75-1.75 1.76 1.76 0 0 1 -1.75 1.75zm11 5.5a1.75 1.75 0 1 1 1.75-1.75 1.76 1.76 0 0 1 -1.75 1.75z"/></svg>