<svg fill="none" height="24" viewBox="0 0 24 24" width="24" xmlns="http://www.w3.org/2000/svg"><path clip-rule="evenodd" d="m7.48069 5.75c-.07594 0-.14777.03452-.19521.09383l-2.4 3c-.13096.16369-.01441.40617.19521.40617h13.83871c.2097 0 .3262-.24248.1953-.40617l-2.4-3c-.0475-.05931-.1193-.09383-.1953-.09383zm-1.36652-.84322c.3321-.41512.8349-.65678 1.36652-.65678h9.03871c.5317 0 1.0345.24166 1.3666.65678l2.4 3c.9166 1.14584.1008 2.84322-1.3666 2.84322h-.1693v8.25c0 .4142-.3358.75-.75.75s-.75-.3358-.75-.75v-8.25h-1.5v6.25c0 1.5188-1.2312 2.75-2.75 2.75h-5.00003c-1.51878 0-2.75-1.2312-2.75-2.75v-6.25h-.16938c-1.46738 0-2.28319-1.69738-1.36652-2.84322zm.6359 5.84322v6.25c0 .6904.55964 1.25 1.25 1.25h5.00003c.6903 0 1.25-.5596 1.25-1.25v-6.25h-1.25v4.5c0 .9665-.7835 1.75-1.75 1.75h-1.50003c-.9665 0-1.75-.7835-1.75-1.75v-4.5zm2.75 0v4.5c0 .1381.11193.25.25.25h1.50003c.138 0 .25-.1119.25-.25v-4.5z" fill="#000" fill-rule="evenodd"/></svg>