<svg id="Layer_1" data-name="Layer 1" xmlns="http://www.w3.org/2000/svg" viewBox="0 0 24 24"><title>sign-out</title><path d="M19.79,11.53,14.48,6.15a.62.62,0,0,0-1,.47V10h-5a.5.5,0,0,0-.5.5v3a.5.5,0,0,0,.5.5h5v3.38a.62.62,0,0,0,1,.47l5.31-5.39A.62.62,0,0,0,19.79,11.53Z"/><path d="M10.54,17H8a2,2,0,0,1-.78-.16,2.21,2.21,0,0,1-.34-.18,2.31,2.31,0,0,1-.54-.54A2.05,2.05,0,0,1,6,15V9a2.05,2.05,0,0,1,.34-1.12,2.31,2.31,0,0,1,.54-.54,2.21,2.21,0,0,1,.34-.18A2,2,0,0,1,8,7h2.54A.47.47,0,0,0,11,6.54V5.46A.47.47,0,0,0,10.54,5H8.46A4.46,4.46,0,0,0,4,9.46v5.08A4.46,4.46,0,0,0,8.46,19h2.08a.47.47,0,0,0,.46-.46V17.46A.47.47,0,0,0,10.54,17Z"/></svg>