<svg id="Layer_1" data-name="Layer 1" xmlns="http://www.w3.org/2000/svg" viewBox="0 0 24 24"><path d="M15.79,11.53,10.48,6.15a.62.62,0,0,0-1,.47V10h-5a.5.5,0,0,0-.5.5v3a.5.5,0,0,0,.5.5h5v3.38a.62.62,0,0,0,1,.47l5.31-5.39A.62.62,0,0,0,15.79,11.53Z"/><path d="M13.46,7H16a2,2,0,0,1,.78.16,2.21,2.21,0,0,1,.34.18,2.31,2.31,0,0,1,.54.54A2.05,2.05,0,0,1,18,9v6a2.05,2.05,0,0,1-.34,1.12,2.31,2.31,0,0,1-.54.54,2.21,2.21,0,0,1-.34.18A2,2,0,0,1,16,17H13.46a.47.47,0,0,0-.46.46v1.08a.47.47,0,0,0,.46.46h2.08A4.46,4.46,0,0,0,20,14.54V9.46A4.46,4.46,0,0,0,15.54,5H13.46a.47.47,0,0,0-.46.46V6.54A.47.47,0,0,0,13.46,7Z"/></svg>