<svg id="Layer_1" data-name="Layer 1" xmlns="http://www.w3.org/2000/svg" viewBox="0 0 24 24"><path d="M19.5,5.48h-6V5a1,1,0,0,0-1-1h-1a1,1,0,0,0-1,1v.48h-6A.5.5,0,0,0,4,6V7a.5.5,0,0,0,.5.5h6V8a1,1,0,0,0,1,1h1a1,1,0,0,0,1-1V7.48h6A.5.5,0,0,0,20,7V6A.5.5,0,0,0,19.5,5.48Z"/><path d="M19.5,10.78H17V10.5a1,1,0,0,0-1-1H15a1,1,0,0,0-1,1v.28H4.5a.5.5,0,0,0-.5.5v1a.5.5,0,0,0,.5.5H14v.72a1,1,0,0,0,1,1h1a1,1,0,0,0,1-1v-.72h2.5a.5.5,0,0,0,.5-.5v-1A.5.5,0,0,0,19.5,10.78Z"/><path d="M19.5,16.52H10V16a1,1,0,0,0-1-1H8a1,1,0,0,0-1,1v.52H4.5A.5.5,0,0,0,4,17v1a.5.5,0,0,0,.5.5H7V19a1,1,0,0,0,1,1H9a1,1,0,0,0,1-1v-.48h9.5A.5.5,0,0,0,20,18V17A.5.5,0,0,0,19.5,16.52Z"/></svg>