<svg viewBox="0 0 24 24" xmlns="http://www.w3.org/2000/svg"><path d="m19 8.25h-7a.75.75 0 0 1 0-1.5h7a.75.75 0 0 1 0 1.5z"/><path d="m10 8.25h-5a.75.75 0 0 1 0-1.5h5a.75.75 0 0 1 0 1.5z"/><path d="m10 9.75a.76.76 0 0 1 -.75-.75v-3a.75.75 0 0 1 1.5 0v3a.76.76 0 0 1 -.75.75z"/><path d="m19 17.25h-7a.75.75 0 0 1 0-1.5h7a.75.75 0 0 1 0 1.5z"/><path d="m10 17.25h-5a.75.75 0 0 1 0-1.5h5a.75.75 0 0 1 0 1.5z"/><path d="m10 18.75a.76.76 0 0 1 -.75-.75v-3a.75.75 0 0 1 1.5 0v3a.76.76 0 0 1 -.75.75z"/><path d="m19 12.75h-3a.75.75 0 0 1 0-1.5h3a.75.75 0 0 1 0 1.5z"/><path d="m14 12.75h-9a.75.75 0 0 1 0-1.5h9a.75.75 0 0 1 0 1.5z"/><path d="m14 14.25a.76.76 0 0 1 -.75-.75v-3a.75.75 0 0 1 1.5 0v3a.76.76 0 0 1 -.75.75z"/></svg>