<svg id="Layer_1" data-name="Layer 1" xmlns="http://www.w3.org/2000/svg" viewBox="0 0 24 24"><path d="M18.52,19.5v-6H19a1,1,0,0,0,1-1v-1a1,1,0,0,0-1-1h-.48v-6A.5.5,0,0,0,18,4H17a.5.5,0,0,0-.5.5v6H16a1,1,0,0,0-1,1v1a1,1,0,0,0,1,1h.52v6a.5.5,0,0,0,.5.5h1A.5.5,0,0,0,18.52,19.5Z"/><path d="M13.22,19.5V17h.28a1,1,0,0,0,1-1V15a1,1,0,0,0-1-1h-.28V4.5a.5.5,0,0,0-.5-.5h-1a.5.5,0,0,0-.5.5V14H10.5a1,1,0,0,0-1,1v1a1,1,0,0,0,1,1h.72v2.5a.5.5,0,0,0,.5.5h1A.5.5,0,0,0,13.22,19.5Z"/><path d="M7.48,19.5V10H8A1,1,0,0,0,9,9V8A1,1,0,0,0,8,7H7.48V4.5A.5.5,0,0,0,7,4H6a.5.5,0,0,0-.5.5V7H5A1,1,0,0,0,4,8V9a1,1,0,0,0,1,1h.48v9.5A.5.5,0,0,0,6,20H7A.5.5,0,0,0,7.48,19.5Z"/></svg>