<svg viewBox="0 0 24 24" xmlns="http://www.w3.org/2000/svg"><path d="m16.5 19.75a.76.76 0 0 1 -.75-.75v-7a.75.75 0 0 1 1.5 0v7a.76.76 0 0 1 -.75.75z"/><path d="m16.5 10.75a.76.76 0 0 1 -.75-.75v-5a.75.75 0 0 1 1.5 0v5a.76.76 0 0 1 -.75.75z"/><path d="m18 10.75h-3a.75.75 0 0 1 0-1.5h3a.75.75 0 0 1 0 1.5z"/><path d="m7.5 19.75a.76.76 0 0 1 -.75-.75v-7a.75.75 0 0 1 1.5 0v7a.76.76 0 0 1 -.75.75z"/><path d="m7.5 10.75a.76.76 0 0 1 -.75-.75v-5a.75.75 0 0 1 1.5 0v5a.76.76 0 0 1 -.75.75z"/><path d="m9 10.75h-3a.75.75 0 0 1 0-1.5h3a.75.75 0 0 1 0 1.5z"/><path d="m12 19.75a.76.76 0 0 1 -.75-.75v-3a.75.75 0 0 1 1.5 0v3a.76.76 0 0 1 -.75.75z"/><path d="m12 14.75a.76.76 0 0 1 -.75-.75v-9a.75.75 0 0 1 1.5 0v9a.76.76 0 0 1 -.75.75z"/><path d="m13.5 14.75h-3a.75.75 0 0 1 0-1.5h3a.75.75 0 0 1 0 1.5z"/></svg>