<svg id="Layer_1" data-name="Layer 1" xmlns="http://www.w3.org/2000/svg" viewBox="0 0 24 24"><path d="M10.29,15.65H8.9V4.4c0-.22-.26-.4-.57-.4H7.17c-.31,0-.57.18-.57.4V15.65H5.21a.47.47,0,0,0-.37.75l2.54,3.41a.46.46,0,0,0,.74,0l2.54-3.41A.47.47,0,0,0,10.29,15.65Z"/><path d="M13.41,11h1.27c.11,0,.17,0,.19-.12l.32-1.28H17.3l.33,1.28a.18.18,0,0,0,.19.12h1.26c.14,0,.19-.05.16-.15l-2-6.73a.18.18,0,0,0-.2-.12H15.43c-.11,0-.18,0-.2.12l-2,6.73C13.22,11,13.28,11,13.41,11Zm2.84-5.47L17,8.58H15.49Z"/><path d="M19,13H13.86c-.14,0-.22.05-.22.15V14c0,.09.08.14.22.14H16.7l-3.42,5.63c-.08.12,0,.21.21.21h5.33c.14,0,.22-.06.22-.15V19c0-.09-.08-.13-.22-.13h-3l3.41-5.64C19.29,13.09,19.24,13,19,13Z"/></svg>