<svg id="Layer_1" data-name="Layer 1" xmlns="http://www.w3.org/2000/svg" viewBox="0 0 24 24"><path d="M8.62,4.19a.46.46,0,0,0-.74,0L5.34,7.6a.47.47,0,0,0,.37.75H7.1V19.6c0,.22.26.4.57.4H8.83c.31,0,.57-.18.57-.4V8.35h1.39a.47.47,0,0,0,.37-.75Z"/><path d="M15.59,13.4l.57-.07v5.53a.12.12,0,0,0,.14.14h.95c.1,0,.15-.05.15-.14V12.14c0-.09,0-.14-.15-.14l-1.68.22a.17.17,0,0,0-.17.18v.84A.15.15,0,0,0,15.59,13.4Z"/><path d="M17.35,4h-1.2c-.91,0-1.4.43-1.4,1.22V7.07c0,.8.49,1.23,1.4,1.23H17l-1.21,2.5c-.06.12,0,.2.15.2h1a.22.22,0,0,0,.23-.13l1.42-3a1,1,0,0,0,.1-.44V5.22C18.75,4.43,18.26,4,17.35,4Zm.08,2.79c0,.23-.14.35-.4.35h-.56c-.26,0-.4-.12-.4-.35V5.5c0-.22.14-.35.4-.35H17c.26,0,.4.13.4.35Z"/></svg>