<svg viewBox="0 0 24 24" xmlns="http://www.w3.org/2000/svg"><path d="m10.75 8.25c-.19 0-.38-.07-.53-.22l-1.97-1.97-1.97 1.97c-.29.29-.77.29-1.06 0s-.29-.77 0-1.06l2.5-2.5c.29-.29.77-.29 1.06 0l2.5 2.5c.29.29.29.77 0 1.06-.15.15-.34.22-.53.22z"/><path d="m8.25 19.75c-.41 0-.75-.34-.75-.75v-14c0-.41.34-.75.75-.75s.75.34.75.75v14c0 .41-.34.75-.75.75z"/><path d="m17 11.25c-.41 0-.75-.34-.75-.75v-4.06l-.39.21c-.37.2-.82.07-1.02-.29s-.07-.82.29-1.02l.65-.36c.36-.26.82-.3 1.22-.12.45.21.74.67.74 1.19v4.45c0 .41-.34.75-.75.75z"/><path d="m16.5 17.25c-1.24 0-2.25-1.01-2.25-2.25s1.01-2.25 2.25-2.25 2.25 1.01 2.25 2.25-1.01 2.25-2.25 2.25zm0-3c-.41 0-.75.34-.75.75s.34.75.75.75.75-.34.75-.75-.34-.75-.75-.75z"/><path d="m15.98 19.25h-.48c-.41 0-.75-.34-.75-.75s.34-.75.75-.75h.48c.65 0 1.22-.54 1.25-1.19.01-.29.01-.64.01-1.06v-.5c0-.41.34-.75.75-.75s.75.34.75.75v.5c0 .45 0 .82-.02 1.14-.07 1.44-1.31 2.61-2.75 2.61z"/></svg>