<svg viewBox="0 0 24 24" xmlns="http://www.w3.org/2000/svg"><path d="m8.38 19.75a.75.75 0 0 1 -.54-.22l-2.5-2.53a.75.75 0 0 1 0-1.06.77.77 0 0 1 1.07 0l2 2 2-2a.77.77 0 0 1 1.07 0 .75.75 0 0 1 0 1.06l-2.5 2.5a.74.74 0 0 1 -.6.25z"/><path d="m8.38 19.75a.76.76 0 0 1 -.76-.75v-14a.76.76 0 0 1 .76-.75.75.75 0 0 1 .74.75v14a.75.75 0 0 1 -.74.75z"/><path d="m17.12 19.25a.75.75 0 0 1 -.74-.75v-4.06l-.39.22a.75.75 0 0 1 -.73-1.32l.66-.36a1.19 1.19 0 0 1 1.22-.11 1.29 1.29 0 0 1 .74 1.18v4.45a.76.76 0 0 1 -.76.75z"/><path d="m16.62 9.25a2.25 2.25 0 1 1 2.26-2.25 2.24 2.24 0 0 1 -2.26 2.25zm0-3a.75.75 0 0 0 0 1.5.75.75 0 1 0 0-1.5z"/><path d="m16.11 11.25h-.49a.75.75 0 0 1 0-1.5h.49a1.28 1.28 0 0 0 1.25-1.19c0-.29 0-.64 0-1.06v-.5a.75.75 0 0 1 .74-.75.76.76 0 0 1 .76.75v.5 1.14a2.78 2.78 0 0 1 -2.75 2.61z"/></svg>