<svg viewBox="0 0 24 24" xmlns="http://www.w3.org/2000/svg"><path d="m6.03 8.03 1.22-1.22v5.69c0 .41.34.75.75.75s.75-.34.75-.75v-5.69l1.22 1.22c.15.15.34.22.53.22s.38-.07.53-.22c.29-.29.29-.77 0-1.06l-2.5-2.5c-.07-.07-.15-.12-.24-.16-.18-.08-.39-.08-.57 0-.09.04-.17.09-.24.16l-2.5 2.5c-.29.29-.29.77 0 1.06s.77.29 1.06 0z"/><path d="m17.97 15.97-1.22 1.22v-5.69c0-.41-.34-.75-.75-.75s-.75.34-.75.75v5.69l-1.22-1.22c-.29-.29-.77-.29-1.06 0s-.29.77 0 1.06l2.5 2.5c.07.07.15.12.24.16s.19.06.29.06.2-.02.29-.06.17-.09.24-.16l2.5-2.5c.29-.29.29-.77 0-1.06s-.77-.29-1.06 0z"/><path d="m19.03 6.03c.29-.29.29-.77 0-1.06s-.77-.29-1.06 0l-1.22 1.22v-1.19c0-.41-.34-.75-.75-.75s-.75.34-.75.75v2.69l-10.28 10.28c-.29.29-.29.77 0 1.06.15.15.34.22.53.22s.38-.07.53-.22l1.22-1.22v1.19c0 .41.34.75.75.75s.75-.34.75-.75v-2.69z"/></svg>