<svg fill="none" height="24" viewBox="0 0 24 24" width="24" xmlns="http://www.w3.org/2000/svg"><path clip-rule="evenodd" d="m18.8923 5.29743 1.2539.41796c.2735.09117.2735.47804 0 .56921l-1.2539.41796c-.0896.02986-.1599.10016-.1897.18974l-.418 1.25388c-.0912.27351-.478.27351-.5692 0l-.418-1.25388c-.0298-.08958-.1001-.15988-.1897-.18974l-1.2539-.41796c-.2735-.09117-.2735-.47804 0-.56921l1.2539-.41796c.0896-.02986.1599-.10015.1897-.18973l.418-1.25389c.0912-.27351.478-.27351.5692 0l.418 1.25389c.0298.08958.1001.15987.1897.18973zm-9.69869-.25c.25831-.77495 1.35449-.77493 1.61279 0l1.5365 4.60964 4.6097 1.53653c.7749.2583.7749 1.3545 0 1.6128l-4.6097 1.5365-1.5365 4.6097c-.2583.7749-1.35448.7749-1.61279 0l-1.53655-4.6097-4.60964-1.5365c-.77495-.2583-.77493-1.3545 0-1.6128l4.60964-1.53653zm.80638 2.32428-1.02268 3.06799c-.0846.2538-.28377.453-.53758.5376l-3.06803 1.0227 3.06803 1.0227c.25381.0846.45298.2837.53758.5376l1.02268 3.068 1.02271-3.068c.0846-.2539.2837-.453.5376-.5376l3.068-1.0227-3.068-1.0227c-.2539-.0846-.453-.2838-.5376-.5376zm10.14621 10.34369-1.2539-.418c-.0896-.0298-.1599-.1001-.1897-.1897l-.418-1.2539c-.0912-.2735-.478-.2735-.5692 0l-.418 1.2539c-.0298.0896-.1001.1599-.1897.1897l-1.2539.418c-.2735.0912-.2735.478 0 .5692l1.2539.418c.0896.0298.1599.1001.1897.1897l.418 1.2539c.0912.2735.478.2735.5692 0l.418-1.2539c.0298-.0896.1001-.1599.1897-.1897l1.2539-.418c.2735-.0912.2735-.478 0-.5692z" fill="#000" fill-rule="evenodd"/></svg>