<svg fill="none" height="24" viewBox="0 0 24 24" width="24" xmlns="http://www.w3.org/2000/svg"><path clip-rule="evenodd" d="m12 5.5c.8284 0 1.5-.67157 1.5-1.5s-.6716-1.5-1.5-1.5-1.5.67157-1.5 1.5.6716 1.5 1.5 1.5zm-6.5 6.5c0 .8284-.67157 1.5-1.5 1.5s-1.5-.6716-1.5-1.5.67157-1.5 1.5-1.5 1.5.6716 1.5 1.5zm16 0c0 .8284-.6716 1.5-1.5 1.5s-1.5-.6716-1.5-1.5.6716-1.5 1.5-1.5 1.5.6716 1.5 1.5zm-8 8c0 .8284-.6716 1.5-1.5 1.5s-1.5-.6716-1.5-1.5.6716-1.5 1.5-1.5 1.5.6716 1.5 1.5zm-8.21732-12.59597c.58578.58578 1.53553.58578 2.12132 0 .58578-.58579.58578-1.53554 0-2.12132-.58579-.58579-1.53554-.58579-2.12132 0-.58579.58578-.58579 1.53553 0 2.12132zm13.43462 11.31327c-.5858.5857-1.5355.5857-2.1213 0-.5858-.5858-.5858-1.5356 0-2.1214.5858-.5857 1.5355-.5857 2.1213 0 .5858.5858.5858 1.5356 0 2.1214zm-13.43462 0c.58578.5857 1.53553.5857 2.12132 0 .58578-.5858.58578-1.5356 0-2.1214-.58579-.5857-1.53554-.5857-2.12132 0-.58579.5858-.58579 1.5356 0 2.1214z" fill="#000" fill-rule="evenodd"/></svg>