<svg fill="none" height="24" viewBox="0 0 24 24" width="24" xmlns="http://www.w3.org/2000/svg"><path clip-rule="evenodd" d="m12.1704 3.26956c.3394.07918.5796.38181.5796.73039v13.27005c0 .2787-.1546.5344-.4014.664l-5.19997 2.73c-.25264.1326-.55865.1104-.78949-.0573-.23083-.1677-.3465-.4519-.29841-.7332l.92365-5.4019-3.91828-3.825c-.20428-.1994-.27764-.4975-.18922-.76893.08841-.27144.32326-.46915.60581-.51l5.41935-.78352 2.42536-4.91603c.1542-.31261.5035-.47774.843-.39856zm-.9204 3.94572-1.1774 2.38651c-.10931.22157-.32075.37509-.56528.41041l-4.30601.6226 3.1126 3.0385c.1764.1722.25691.4201.21536.6631l-.73422 4.2941 3.45495-1.8139z" fill="#000" fill-rule="evenodd"/></svg>