<svg id="Layer_1" data-name="Layer 1" xmlns="http://www.w3.org/2000/svg" viewBox="0 0 24 24"><title>star-o</title><path d="M16.1,20a1.37,1.37,0,0,1-.65-.17L12,17.92,8.55,19.83a1.33,1.33,0,0,1-1.42-.08,1.31,1.31,0,0,1-.55-1.32l.67-4.14L4.38,11.35A1.35,1.35,0,0,1,4.07,10a1.32,1.32,0,0,1,1.07-.9l3.91-.6,1.73-3.71a1.35,1.35,0,0,1,2.44,0L15,8.48l3.91.6a1.32,1.32,0,0,1,1.07.9,1.35,1.35,0,0,1-.31,1.37l-2.87,2.94.67,4.14a1.31,1.31,0,0,1-.55,1.32A1.29,1.29,0,0,1,16.1,20ZM12,16.07a1.26,1.26,0,0,1,.65.17l2.86,1.58L15,14.36a1.35,1.35,0,0,1,.37-1.16l2.42-2.48-3.29-.51a1.36,1.36,0,0,1-1-.76L12,6.39,10.56,9.45a1.32,1.32,0,0,1-1,.76l-3.29.51L8.68,13.2a1.35,1.35,0,0,1,.37,1.16l-.56,3.46,2.86-1.58A1.26,1.26,0,0,1,12,16.07ZM7.41,14.45h0Zm9.19,0h0Z"/></svg>