<?xml version="1.0" encoding="UTF-8"?>
<svg id="stopwatch" xmlns="http://www.w3.org/2000/svg" viewBox="0 0 24 24">
  <path d="M12.25,11.33v-2.33c0-.28-.22-.5-.5-.5s-.5,.22-.5,.5v2.33c-.72,.22-1.25,.88-1.25,1.67,0,.96,.78,1.75,1.75,1.75s1.75-.79,1.75-1.75c0-.79-.53-1.45-1.25-1.67Zm-.5,2.42c-.41,0-.75-.34-.75-.75s.34-.75,.75-.75,.75,.34,.75,.75-.34,.75-.75,.75Zm0-7.75c-3.86,0-7,3.14-7,7s3.14,7,7,7,7-3.14,7-7-3.14-7-7-7Zm0,12.5c-3.03,0-5.5-2.47-5.5-5.5s2.46-5.5,5.5-5.5,5.5,2.47,5.5,5.5-2.46,5.5-5.5,5.5Zm-3.25-13.75c0-.41,.34-.75,.75-.75h5c.41,0,.75,.34,.75,.75s-.34,.75-.75,.75h-5c-.41,0-.75-.34-.75-.75Zm10.53,3.52c-.15,.15-.34,.22-.53,.22s-.38-.07-.53-.22l-1.5-1.5c-.29-.29-.29-.77,0-1.06,.29-.29,.77-.29,1.06,0l1.5,1.5c.29,.29,.29,.77,0,1.06Z"/>
</svg>