<svg id="Layer_1" data-name="Layer 1" xmlns="http://www.w3.org/2000/svg" viewBox="0 0 24 24"><title>table</title><path d="M19,6H5A1,1,0,0,0,4,7V17a1,1,0,0,0,1,1H19a1,1,0,0,0,1-1V7A1,1,0,0,0,19,6ZM11,16a.5.5,0,0,1-.5.5h-4A.5.5,0,0,1,6,16V14a.5.5,0,0,1,.5-.5h4a.5.5,0,0,1,.5.5Zm0-5a.5.5,0,0,1-.5.5h-4A.5.5,0,0,1,6,11V9a.5.5,0,0,1,.5-.5h4A.5.5,0,0,1,11,9Zm7,5a.5.5,0,0,1-.5.5h-4A.5.5,0,0,1,13,16V14a.5.5,0,0,1,.5-.5h4a.5.5,0,0,1,.5.5Zm0-5a.5.5,0,0,1-.5.5h-4A.5.5,0,0,1,13,11V9a.5.5,0,0,1,.5-.5h4A.5.5,0,0,1,18,9Z"/></svg>