<svg viewBox="0 0 24 24" xmlns="http://www.w3.org/2000/svg"><path d="m21.07 10.3-6-6c-.14-.14-.33-.22-.53-.22h-11.54c-.41 0-.75.34-.75.75v7.88c0 .2.08.39.22.53l6 5.99c.44.44 1.02.68 1.64.68s1.21-.24 1.64-.68l.22-.22c.04.08.08.16.15.22.45.45 1.05.68 1.64.68s1.19-.23 1.65-.68l5.65-5.65c.9-.9.9-2.37 0-3.28zm-10.37 7.87c-.16.16-.36.24-.58.24s-.43-.09-.58-.24l-5.79-5.77v-6.82h6.82l5.78 5.78c.32.32.32.84 0 1.16zm9.31-5.65-5.65 5.65c-.32.32-.85.32-1.17 0-.07-.07-.14-.11-.23-.15l4.44-4.44c.9-.91.9-2.38 0-3.28l-4.72-4.72h1.54l5.78 5.78c.32.32.32.84 0 1.16zm-11.76-4.02c0 .69-.56 1.25-1.25 1.25s-1.25-.56-1.25-1.25.56-1.25 1.25-1.25 1.25.56 1.25 1.25z"/></svg>