<svg fill="none" height="24" viewBox="0 0 24 24" width="24" xmlns="http://www.w3.org/2000/svg"><path clip-rule="evenodd" d="m6.25 4c0-.41421.33579-.75.75-.75h10c.4142 0 .75.33579.75.75s-.3358.75-.75.75h-.25v5.25c0 .0525.019.1231.1016.214.0872.0959.2257.1893.3932.2523 1.3439.5056 1.9478 1.7524 2.2226 2.6922.1423.4863.2122.9406.2469 1.2711.0175.1664.0264.3041.031.4023.0022.0492.0034.0887.004.1171l.0006.0342.0001.0107v.0036.0014c0 .0003 0 .0011-.75.0011h.75c0 .4142-.3358.75-.75.75h-6.25v4.25c0 .4142-.3358.75-.75.75s-.75-.3358-.75-.75v-4.25h-6.25c-.41421 0-.75-.3358-.75-.75h.75c-.75 0-.75.0003-.75 0v-.0011-.0014l.00002-.0036.00008-.0107.00057-.0342c.00062-.0284.0018-.0679.00407-.1171.00453-.0982.01343-.2359.03093-.4023.03477-.3305.10464-.7848.24689-1.2711.27487-.9398.87871-2.1866 2.22261-2.6922.16749-.063.30603-.1564.39322-.2523.08259-.0909.10161-.1615.10161-.214v-5.25h-.25c-.41421 0-.75-.33579-.75-.75zm2.5.75v5.25c0 1.0095-.82166 1.6276-1.4667 1.8703-.67534.254-1.08111.9231-1.31105 1.7092-.06897.2358-.11684.4656-.14994.6705h12.35539c-.0331-.2049-.081-.4347-.1499-.6705-.23-.7861-.6358-1.4552-1.3111-1.7092-.645-.2427-1.4667-.8608-1.4667-1.8703v-5.25z" fill="#000" fill-rule="evenodd"/></svg>