<svg fill="none" height="24" viewBox="0 0 24 24" width="24" xmlns="http://www.w3.org/2000/svg"><path d="m19 10.5594c-1.3763.0029-2.7187-.4267-3.8375-1.22815v5.58745c-.0003 1.0349-.3166 2.0449-.9065 2.8952-.59.8502-1.4254 1.5-2.3947 1.8625-.9692.3625-2.02605.4205-3.02913.1661s-1.90458-.809-2.58392-1.5896c-.67935-.7806-1.10416-1.75-1.21761-2.7786-.11346-1.0286.08985-2.0673.58272-2.9773.49288-.9099 1.25183-1.6476 2.17535-2.1145s1.96758-.64068 2.99259-.49812v2.80942c-.4687-.1476-.97201-.1433-1.43808.0123-.46607.1555-.87107.4544-1.15719.8538-.28611.3994-.43871.8791-.43599 1.3704s.1606.9693.45111 1.3655c.29052.3963.6988.6906 1.16656.841s.97109.1491 1.43809-.0036.8738-.449 1.1624-.8467c.2885-.3977.444-.8764.4443-1.3678v-10.9187h2.75c-.0015.23258.0183.46481.0594.69375.0956.51031.2943.99576.5839 1.42669.2896.43092.6641.79825 1.1005 1.07956.6211.41026 1.3493.62871 2.0937.62812z" fill="#000"/></svg>