<svg id="Layer_1" data-name="Layer 1" xmlns="http://www.w3.org/2000/svg" viewBox="0 0 24 24"><title>trash</title><path d="M19,6.5H16.58v-2A1.58,1.58,0,0,0,15,2.92H9A1.58,1.58,0,0,0,7.42,4.5v2H5a.5.5,0,0,0-.5.5V8a.5.5,0,0,0,.5.5H6v10a2,2,0,0,0,2,2h8a2,2,0,0,0,2-2V8.5h1a.5.5,0,0,0,.5-.5V7A.5.5,0,0,0,19,6.5ZM9.58,5.58a.51.51,0,0,1,.5-.5h3.84a.51.51,0,0,1,.5.5V6.5H9.58ZM9.75,18.5a.5.5,0,0,1-.5.5h-.5a.5.5,0,0,1-.5-.5v-7a.5.5,0,0,1,.5-.5h.5a.5.5,0,0,1,.5.5Zm3,0a.5.5,0,0,1-.5.5h-.5a.5.5,0,0,1-.5-.5v-7a.5.5,0,0,1,.5-.5h.5a.5.5,0,0,1,.5.5Zm3,0a.5.5,0,0,1-.5.5h-.5a.5.5,0,0,1-.5-.5v-7a.5.5,0,0,1,.5-.5h.5a.5.5,0,0,1,.5.5Z"/></svg>