<svg id="Layer_1" data-name="Layer 1" xmlns="http://www.w3.org/2000/svg" viewBox="0 0 24 24"><path d="M20,7H17.56V5.51A2.66,2.66,0,0,0,14.78,3H9.22A2.66,2.66,0,0,0,6.44,5.51V7H4A1,1,0,0,0,4,9h.78v9.54A2.65,2.65,0,0,0,7.56,21h8.88a2.65,2.65,0,0,0,2.78-2.51V9H20a1,1,0,1,0,0-2ZM8.44,5.51c0-.24.34-.51.78-.51h5.56c.44,0,.78.27.78.51V7H8.44Zm8.78,13c0,.24-.33.51-.78.51H7.56c-.45,0-.78-.27-.78-.51V9H17.22Z"/><path d="M10.22,17.24a1,1,0,0,0,1-1V11.72a1,1,0,0,0-2,0v4.52A1,1,0,0,0,10.22,17.24Z"/><path d="M13.78,17.24a1,1,0,0,0,1-1V11.72a1,1,0,0,0-2,0v4.52A1,1,0,0,0,13.78,17.24Z"/></svg>