<?xml version="1.0" encoding="UTF-8"?>
<svg id="truck" xmlns="http://www.w3.org/2000/svg" viewBox="0 0 24 24">
  <path d="M17.75,17.12c0,.96-.79,1.75-1.75,1.75s-1.75-.79-1.75-1.75,.79-1.75,1.75-1.75,1.75,.79,1.75,1.75Zm-9.75-1.75c-.96,0-1.75,.79-1.75,1.75s.79,1.75,1.75,1.75,1.75-.79,1.75-1.75-.79-1.75-1.75-1.75ZM21,6.62V15.62c0,.83-.67,1.5-1.5,1.5h-.35c-.35,0-.65-.24-.72-.59-.26-1.13-1.26-1.91-2.42-1.91s-2.16,.79-2.42,1.92c-.08,.34-.37,.58-.72,.58h-1.71c-.35,0-.65-.24-.72-.59-.26-1.13-1.26-1.91-2.42-1.91s-2.16,.79-2.42,1.92c-.08,.34-.37,.58-.72,.58h-.35c-.83,0-1.5-.67-1.5-1.5v-6c0-1.93,1.57-3.5,3.5-3.5h1.09c.21-.58,.76-1,1.41-1h10.5c.83,0,1.5,.67,1.5,1.5ZM4,12.12h3.5V7.12h-1c-1.38,0-2.5,1.12-2.5,2.5v2.5ZM20,6.62c0-.28-.22-.5-.5-.5H9c-.28,0-.5,.22-.5,.5v7.04c1.35,.19,2.46,1.14,2.85,2.46h1.3c.43-1.48,1.78-2.5,3.35-2.5s2.92,1.02,3.35,2.5h.15c.28,0,.5-.22,.5-.5V6.62Z"/>
</svg>