<svg fill="none" height="24" viewBox="0 0 24 24" width="24" xmlns="http://www.w3.org/2000/svg"><path clip-rule="evenodd" d="m10 3.25c.4142 0 .75.33579.75.75v3.62655l4.8839-1.82896c.3879-.14526.8201.05143.9654.43934.1452.3879-.0515.82012-.4394.96539l-5.4099 2.02597v.64826l4.8839-1.82896c.3879-.14526.8201.05143.9654.43934.1452.3879-.0515.82012-.4394.96539l-5.4099 2.02598v7.7326c3.6179-.3789 6.5-3.4651 6.5-7.2109 0-.4142.3358-.75.75-.75s.75.3358.75.75c0 4.8353-3.9658 8.75-8.75 8.75-.41419 0-.74997-.3358-.74997-.75v-7.96l-2.98697 1.1186c-.38791.1453-.82013-.0514-.9654-.4393-.14526-.3879.05143-.8201.43934-.9654l3.51303-1.3156v-.64828l-2.98697 1.11858c-.38791.1453-.82013-.0514-.9654-.4393-.14526-.3879.05143-.82014.43934-.96541l3.51303-1.3156v-4.18829c0-.41421.33578-.75.74997-.75z" fill="#000" fill-rule="evenodd"/></svg>