<svg id="Layer_1" data-name="Layer 1" xmlns="http://www.w3.org/2000/svg" viewBox="0 0 24 24"><path d="M20.75,6.66a7.77,7.77,0,0,1-2.06.56,3.57,3.57,0,0,0,1.58-2A7,7,0,0,1,18,6.12,3.62,3.62,0,0,0,15.37,5a3.56,3.56,0,0,0-3.59,3.53,3.2,3.2,0,0,0,.09.81,10.25,10.25,0,0,1-7.4-3.69A3.44,3.44,0,0,0,4,7.42a3.52,3.52,0,0,0,1.6,2.94A3.46,3.46,0,0,1,4,9.92V10a3.55,3.55,0,0,0,2.88,3.46,3.8,3.8,0,0,1-1.62.06,3.59,3.59,0,0,0,3.36,2.45,7.22,7.22,0,0,1-4.46,1.51,6.11,6.11,0,0,1-.86-.05A10.11,10.11,0,0,0,8.75,19,10.06,10.06,0,0,0,19,8.94c0-.15,0-.3,0-.45A7.24,7.24,0,0,0,20.75,6.66Z"/></svg>