<svg id="Layer_1" data-name="Layer 1" xmlns="http://www.w3.org/2000/svg" viewBox="0 0 24 24"><defs><style>.cls-1{opacity:0.99;}</style></defs><path class="cls-1" d="M6.62,10.57H10V15.5a.5.5,0,0,0,.5.5h3a.5.5,0,0,0,.5-.5V10.57h3.38a.61.61,0,0,0,.47-1L12.46,4.28a.64.64,0,0,0-.93,0L6.15,9.56A.61.61,0,0,0,6.62,10.57Z"/><path class="cls-1" d="M19,14.93H15v.49a1.5,1.5,0,0,1-1.49,1.5h-3A1.5,1.5,0,0,1,9,15.42v-.49H5a1,1,0,0,0-1,1v3a1,1,0,0,0,1,1H19a1,1,0,0,0,1-1v-3A1,1,0,0,0,19,14.93Zm-1,3.32a.75.75,0,1,1,.75-.75A.76.76,0,0,1,18,18.25Z"/></svg>