<svg id="Layer_1" data-name="Layer 1" xmlns="http://www.w3.org/2000/svg" viewBox="0 0 24 24"><circle cx="11.97" cy="7.47" r="4.12"/><path d="M15.68,11a5.12,5.12,0,0,1-7.42,0A4.12,4.12,0,0,0,6,14.7v4.09A2.07,2.07,0,0,0,8,20.85h7.88A2.07,2.07,0,0,0,18,18.79V14.7A4.12,4.12,0,0,0,15.68,11Z"/><path d="M19,7.68A2.58,2.58,0,1,0,16.39,5.1,2.57,2.57,0,0,0,19,7.68Z"/><path d="M5,7.68A2.58,2.58,0,1,0,2.45,5.1,2.57,2.57,0,0,0,5,7.68Z"/><path d="M21.3,7.33a3.2,3.2,0,0,1-4.16.42,5.26,5.26,0,0,1-.63,2.17,4.63,4.63,0,0,1,2.23,3.56h2.7a1.29,1.29,0,0,0,1.29-1.29V9.63A2.59,2.59,0,0,0,21.3,7.33Z"/><path d="M7.43,9.92A5,5,0,0,1,6.8,7.79a3.2,3.2,0,0,1-4.1-.46,2.59,2.59,0,0,0-1.43,2.3v2.56a1.29,1.29,0,0,0,1.29,1.29H5.2A4.64,4.64,0,0,1,7.43,9.92Z"/></svg>