<svg id="Layer_1" data-name="Layer 1" xmlns="http://www.w3.org/2000/svg" viewBox="0 0 24 24"><title>user-plus</title><path d="M15.93,18.07H14.5a1.5,1.5,0,0,1-1.5-1.5V15.43a1.5,1.5,0,0,1,1.5-1.5h1.43V12.5a1.48,1.48,0,0,1,.5-1.11,4.89,4.89,0,0,0-.72-.46,5.12,5.12,0,0,1-7.42,0A4.12,4.12,0,0,0,6,14.6v4.09a2.07,2.07,0,0,0,2.06,2.06h7.88a2,2,0,0,0,.55-.09,1.48,1.48,0,0,1-.56-1.16Z"/><circle cx="12" cy="7.37" r="4.12"/><path d="M21.5,14.93H19.07V12.5a.5.5,0,0,0-.5-.5H17.43a.5.5,0,0,0-.5.5v2.43H14.5a.5.5,0,0,0-.5.5v1.14a.5.5,0,0,0,.5.5h2.43V19.5a.5.5,0,0,0,.5.5h1.14a.5.5,0,0,0,.5-.5V17.07H21.5a.5.5,0,0,0,.5-.5V15.43A.5.5,0,0,0,21.5,14.93Z"/></svg>