<svg id="Layer_1" data-name="Layer 1" xmlns="http://www.w3.org/2000/svg" viewBox="0 0 24 24"><circle cx="9.5" cy="7.37" r="4.12"/><path d="M20.26,14l-1-1a.62.62,0,0,0-.88-.1l-.4.39,2,2,.39-.4A.62.62,0,0,0,20.26,14Z"/><path d="M12.7,18.59l-.2,2.16,2.16-.2,4.92-4.91-2-2Zm1.72,1.55h0l-.72.07.06-.72-.72.06.07-.72h0l.39-.39,1.31,1.31Z"/><path d="M13.21,10.93a5.12,5.12,0,0,1-7.42,0A4.12,4.12,0,0,0,3.5,14.6v4.09a2.07,2.07,0,0,0,2.06,2.06h6.05a.61.61,0,0,1-.11-.38L11.72,18a.6.6,0,0,1,.16-.36l3.59-3.56A4.15,4.15,0,0,0,13.21,10.93Z"/></svg>