<svg fill="none" height="24" viewBox="0 0 24 24" width="24" xmlns="http://www.w3.org/2000/svg"><path clip-rule="evenodd" d="m12 3.75c-2.89949 0-5.25 2.35051-5.25 5.25 0 2.8995 2.35051 5.25 5.25 5.25 2.8995 0 5.25-2.3505 5.25-5.25 0-2.89949-2.3505-5.25-5.25-5.25zm-6.75 5.25c0-3.72792 3.02208-6.75 6.75-6.75 3.7279 0 6.75 3.02208 6.75 6.75 0 3.4744-2.625 6.3357-6 6.7088v2.0412h2.25c.4142 0 .75.3358.75.75s-.3358.75-.75.75h-2.25v1.75c0 .4142-.3358.75-.75.75s-.75-.3358-.75-.75v-1.75h-2.25c-.41421 0-.75-.3358-.75-.75s.33579-.75.75-.75h2.25v-2.0412c-3.37496-.3731-6-3.2344-6-6.7088z" fill="#000" fill-rule="evenodd"/></svg>