<svg viewBox="0 0 24 24" xmlns="http://www.w3.org/2000/svg"><path d="m13 18.75h-7a2.75 2.75 0 0 1 -2.75-2.75v-8a2.75 2.75 0 0 1 2.75-2.75h7a2.75 2.75 0 0 1 2.75 2.75v8a2.75 2.75 0 0 1 -2.75 2.75zm-7-12a1.25 1.25 0 0 0 -1.25 1.25v8a1.25 1.25 0 0 0 1.25 1.25h7a1.25 1.25 0 0 0 1.25-1.25v-8a1.25 1.25 0 0 0 -1.25-1.25z"/><path d="m20 16.75a.79.79 0 0 1 -.39-.11l-5-3a.75.75 0 0 1 -.36-.64v-2a.75.75 0 0 1 .36-.64l5-3a.74.74 0 0 1 .76 0 .75.75 0 0 1 .38.65v8a.75.75 0 0 1 -.38.65.71.71 0 0 1 -.37.09zm-4.25-4.17 3.5 2.1v-5.36l-3.5 2.1z"/></svg>