<svg id="Layer_1" data-name="Layer 1" xmlns="http://www.w3.org/2000/svg" viewBox="0 0 24 24"><title>volume-up</title><path d="M10.53,6.1,7.39,9H4.14a1,1,0,0,0-1,1v4a1,1,0,0,0,1,1H7.39l3.14,2.9a.36.36,0,0,0,.61-.26V6.36A.36.36,0,0,0,10.53,6.1Z"/><path d="M12.88,9.73l-.71.89A1.81,1.81,0,0,1,12.89,12a1.81,1.81,0,0,1-.72,1.38l.71.89a.34.34,0,0,0,.5,0,3.12,3.12,0,0,0,0-4.6A.34.34,0,0,0,12.88,9.73Z"/><path d="M15.89,8.2a.4.4,0,0,0-.6.05l-.42.52a.41.41,0,0,0,0,.56A3.69,3.69,0,0,1,16.13,12a3.69,3.69,0,0,1-1.22,2.67.41.41,0,0,0,0,.56l.42.52a.4.4,0,0,0,.6.05,5,5,0,0,0,0-7.6Z"/><path d="M18.34,6.7a.35.35,0,0,0-.5,0l-.51.63a.33.33,0,0,0,0,.47,5.57,5.57,0,0,1,2,4.16,5.57,5.57,0,0,1-2,4.16.33.33,0,0,0,0,.47l.51.63a.35.35,0,0,0,.5,0A7,7,0,0,0,20.86,12,7,7,0,0,0,18.34,6.7Z"/></svg>