<svg fill="none" height="24" viewBox="0 0 24 24" width="24" xmlns="http://www.w3.org/2000/svg"><path clip-rule="evenodd" d="m11.2174 3.55279c.4927-.24633 1.0726-.24633 1.5652 0l7 3.49995c.5929.29643.9674.9024.9674 1.56525v11.38201c0 .4142-.3358.75-.75.75s-.75-.3358-.75-.75v-11.38201c0-.09469-.0535-.18126-.1382-.22361l-7-3.49994c-.0703-.0352-.1532-.0352-.2236-.00001l-6.99997 3.49995c-.0847.04235-.1382.12892-.1382.22361v11.38201c0 .4142-.33579.75-.75.75s-.75-.3358-.75-.75v-11.38201c0-.66285.37451-1.26882.96739-1.56525zm-4.96737 8.44721c0-.9665.7835-1.75 1.75-1.75h7.99997c.9665 0 1.75.7835 1.75 1.75v7c0 .9665-.7835 1.75-1.75 1.75h-7.99997c-.9665 0-1.75-.7835-1.75-1.75zm1.75-.25c-.13807 0-.25.1119-.25.25v1.25h8.49997v-1.25c0-.1381-.1119-.25-.25-.25zm8.24997 3h-8.49997v1.5h8.49997zm0 3h-8.49997v1.25c0 .138.11193.25.25.25h7.99997c.1381 0 .25-.112.25-.25z" fill="#000" fill-rule="evenodd"/></svg>