<svg fill="none" height="24" viewBox="0 0 24 24" width="24" xmlns="http://www.w3.org/2000/svg"><path clip-rule="evenodd" d="m10.0532 5.2519c.3026.0215.5624.22316.6583.51094l3.4274 10.28226 2.1903-4.3805c.127-.2541.3867-.4146.6708-.4146h2c.4142 0 .75.3357.75.75 0 .4142-.3358.75-.75.75h-1.5365l-2.7927 5.5854c-.1356.2713-.4214.4342-.724.4127-.3025-.0215-.5624-.2231-.6583-.5109l-3.42743-10.28228-2.19025 4.38048c-.12705.2541-.38674.4146-.67082.4146h-2c-.41421 0-.75-.3358-.75-.75 0-.4143.33579-.75.75-.75h1.53648l2.7927-5.5854c.13566-.27132.42141-.43421.72402-.4127z" fill="#000" fill-rule="evenodd"/></svg>