<svg viewBox="0 0 24 24" xmlns="http://www.w3.org/2000/svg"><path d="m17.35 12.79a.72.72 0 0 1 -.49-.19 7.24 7.24 0 0 0 -9.66 0 .75.75 0 0 1 -1.06-.06.76.76 0 0 1 .07-1.06 8.7 8.7 0 0 1 11.64 0 .76.76 0 0 1 .07 1.06.79.79 0 0 1 -.57.25z"/><path d="m20 10a.76.76 0 0 1 -.51-.2 10.87 10.87 0 0 0 -15 0 .75.75 0 1 1 -1-1.1 12.36 12.36 0 0 1 17 0 .75.75 0 0 1 -.49 1.3z"/><path d="m9.38 15.64a.75.75 0 0 1 -.6-.3.74.74 0 0 1 .15-1.05 5.06 5.06 0 0 1 6.15 0 .75.75 0 0 1 .15 1.05.76.76 0 0 1 -1.05.15 3.59 3.59 0 0 0 -4.35 0 .78.78 0 0 1 -.45.15z"/><path d="m12 18.75a.75.75 0 1 1 0-1.5.75.75 0 0 1 0 1.5z"/></svg>