<svg id="Layer_1" data-name="Layer 1" xmlns="http://www.w3.org/2000/svg" viewBox="0 0 24 24"><title>wifi</title><path d="M20.43,10A11.25,11.25,0,0,0,12,6a11.25,11.25,0,0,0-8.43,4,.5.5,0,0,0,.06.72l.77.64a.5.5,0,0,0,.69-.06A9.28,9.28,0,0,1,12,8a9.28,9.28,0,0,1,6.91,3.27.5.5,0,0,0,.69.06l.77-.64A.5.5,0,0,0,20.43,10Z"/><circle cx="12" cy="16" r="2"/><path d="M12,10a7.37,7.37,0,0,0-5.43,2.47.5.5,0,0,0,.06.72l.78.65a.48.48,0,0,0,.67-.06A5.42,5.42,0,0,1,12,12a5.42,5.42,0,0,1,3.92,1.78.48.48,0,0,0,.67.06l.78-.65a.5.5,0,0,0,.06-.72A7.37,7.37,0,0,0,12,10Z"/></svg>