<svg id="Layer_1" data-name="Layer 1" xmlns="http://www.w3.org/2000/svg" viewBox="0 0 24 24"><title>window-minimize</title><path d="M18.5,3.56H5.5A1.94,1.94,0,0,0,3.56,5.5v6a.51.51,0,0,0,.51.5h.86a.51.51,0,0,0,.51-.5v-6l.06-.06,13.06.06L18.5,18.56l-6,0A.51.51,0,0,0,12,19v.9a.5.5,0,0,0,.5.5h6a1.94,1.94,0,0,0,1.94-1.94V5.5A1.94,1.94,0,0,0,18.5,3.56Z"/><path d="M10.42,9.14a.37.37,0,0,0-.62.23l0,4.43a.36.36,0,0,0,.38.39h4.43a.36.36,0,0,0,.23-.62L13.25,12l3.42-3.42a.43.43,0,0,0,0-.61l-.61-.61a.42.42,0,0,0-.6,0L12,10.76Z"/><rect x="3.56" y="14.44" width="6" height="6" rx="1"/></svg>