<svg id="Layer_1" data-name="Layer 1" xmlns="http://www.w3.org/2000/svg" viewBox="0 0 24 24"><path d="M18.5,3.56H5.5A1.94,1.94,0,0,0,3.56,5.5v6a.51.51,0,0,0,.51.5h.86a.51.51,0,0,0,.51-.5v-6l.06-.06,13.06.06L18.5,18.56l-6,0A.51.51,0,0,0,12,19v.9a.5.5,0,0,0,.5.5h6a1.94,1.94,0,0,0,1.94-1.94V5.5A1.94,1.94,0,0,0,18.5,3.56Z"/><path d="M16.18,12.26A.37.37,0,0,0,16.8,12l0-4.43a.36.36,0,0,0-.38-.39H12a.36.36,0,0,0-.23.62l1.61,1.61L9.93,12.85a.43.43,0,0,0,0,.61l.61.61a.42.42,0,0,0,.6,0l3.43-3.43Z"/><rect x="3.56" y="14.44" width="6" height="6" rx="1"/></svg>