<?xml version="1.0" encoding="UTF-8"?>
<svg id="wrench" xmlns="http://www.w3.org/2000/svg" viewBox="0 0 24 24">
  <path d="M20.44,8.59c-.08-.53-.53-.86-1-.86-.25,0-.5,.09-.7,.29l-2.8,2.8c-.2,.19-.45,.29-.71,.29s-.51-.1-.71-.29l-1.34-1.34c-.39-.39-.39-1.02,0-1.41l2.8-2.8c.58-.58,.25-1.58-.57-1.7-.29-.04-.58-.07-.89-.07-3.71,0-6.63,3.4-5.82,7.26,.47,2.26,2.29,4.08,4.55,4.55,.43,.09,.86,.13,1.27,.13,3.3,0,5.97-2.68,5.97-5.97,0-.3-.02-.59-.06-.88Zm-5.9,5.35c-.32,0-.65-.03-.97-.1-1.67-.35-3.04-1.71-3.39-3.39-.29-1.39,.03-2.74,.9-3.81,.76-.94,1.85-1.52,3.04-1.63l-1.99,1.99c-.47,.47-.73,1.1-.73,1.77s.26,1.3,.73,1.77l1.34,1.34c.47,.47,1.1,.73,1.77,.73s1.29-.26,1.77-.73l1.99-1.99c-.22,2.27-2.13,4.04-4.45,4.04Zm-4.37,.54c-.23-.19-.44-.4-.64-.64-.29-.35-.72-.57-1.17-.59-.43-.01-.85,.14-1.17,.45l-3.12,3.1c-.73,.75-.76,1.89-.05,2.59l.59,.59c.33,.33,.77,.51,1.24,.51,.03,0,.05,0,.08,0,.48-.02,.93-.22,1.28-.57l3.1-3.09c.32-.31,.48-.73,.46-1.18-.02-.45-.23-.88-.59-1.17h0Zm-4.03,4.38c-.08,.08-.18,.13-.28,.13-.06,0-.13,0-.19-.07l-.59-.59c-.11-.11-.08-.33,.06-.47l3.15-3.12s.05,0,.09,.05c.25,.3,.53,.58,.83,.83,.04,.04,.05,.07,.03,.13l-3.1,3.09Z"/>
</svg>